<svg width="20" height="20" viewBox="0 0 20 20" fill="none" xmlns="http://www.w3.org/2000/svg">
<path d="M18.515 18.0249L13.4596 12.9694C14.5091 11.8035 15.1544 10.2665 15.1544 8.57721C15.1544 4.95075 12.2036 2 8.57718 2C4.95072 2 2 4.95075 2 8.57721C2 12.2037 4.95075 15.1544 8.57721 15.1544C10.2665 15.1544 11.8035 14.5092 12.9694 13.4589L18.0249 18.5143C18.0927 18.5822 18.1813 18.6161 18.2699 18.6161C18.3586 18.6161 18.4472 18.5822 18.515 18.515C18.65 18.3793 18.65 18.1605 18.515 18.0249ZM8.57721 14.4621C5.33224 14.4621 2.69236 11.8222 2.69236 8.57725C2.69236 5.33227 5.33221 2.69236 8.57721 2.69236C11.8222 2.69236 14.4621 5.33224 14.4621 8.57721C14.4621 11.8222 11.8222 14.4621 8.57721 14.4621Z" fill="#232323" stroke="#232323" stroke-width="0.5"/>
</svg>
