<svg width="13" height="13" viewBox="0 0 13 13" fill="none" xmlns="http://www.w3.org/2000/svg">
<path d="M6.7674 0.0773926C3.33741 0.0773926 0.547913 2.86575 0.546387 6.29325C0.546006 7.4678 0.874833 8.61163 1.4972 9.60136L1.64502 9.83653L1.01674 12.1305L3.37022 11.5133L3.59738 11.6479C4.55201 12.2144 5.64645 12.5141 6.76225 12.5145H6.76473C10.192 12.5145 12.9815 9.72591 12.9831 6.29821C12.9836 4.6371 12.3374 3.07536 11.1635 1.90044C9.98949 0.72551 8.42813 0.0779648 6.7674 0.0773926ZM10.4249 8.96583C10.2691 9.40223 9.52238 9.80067 9.16322 9.85446C8.84107 9.90253 8.43366 9.92255 7.98582 9.78046C7.71421 9.69424 7.36612 9.57923 6.91999 9.38678C5.04487 8.5773 3.82016 6.68979 3.7267 6.56505C3.63324 6.44031 2.96338 5.55167 2.96338 4.63176C2.96338 3.71204 3.44632 3.2598 3.6176 3.07288C3.78907 2.88577 3.99163 2.83904 4.11618 2.83904C4.24073 2.83904 4.36547 2.84019 4.47438 2.84553C4.58921 2.85125 4.74332 2.80185 4.89496 3.16634C5.05079 3.54057 5.42463 4.46029 5.47136 4.55375C5.51809 4.6474 5.54918 4.7565 5.487 4.88124C5.42463 5.00598 5.21749 5.27511 5.0197 5.52039C4.93673 5.6232 4.82858 5.71475 4.93768 5.90186C5.04659 6.08878 5.42196 6.70085 5.97757 7.19638C6.69168 7.83305 7.29402 8.03027 7.48094 8.12392C7.66767 8.21738 7.77677 8.20174 7.88587 8.07719C7.99478 7.95245 8.35317 7.5315 8.47772 7.34439C8.60227 7.15728 8.72701 7.18856 8.89829 7.25093C9.06976 7.31311 9.98872 7.76534 10.1756 7.8588C10.3626 7.95245 10.4871 7.99918 10.5338 8.07719C10.5808 8.1552 10.5808 8.52924 10.4249 8.96583Z" fill="#62B651"/>
</svg>
