<svg width="22" height="25" viewBox="0 0 22 25" fill="none" xmlns="http://www.w3.org/2000/svg">
<path d="M9.73579 0.674214C7.92664 1.17167 6.58538 2.50907 6.00053 4.38471C5.83677 4.91478 5.79778 5.2002 5.79778 5.93415C5.78218 7.43465 6.20328 8.60896 7.13124 9.65279C7.88765 10.5091 8.70645 11.0391 9.72019 11.3246C10.305 11.4877 11.5917 11.5121 12.1532 11.3653C13.7518 10.9657 14.9995 9.92191 15.7325 8.38062C16.4655 6.82303 16.4421 5.07788 15.6701 3.44689C15.2412 2.54985 14.2742 1.5631 13.3775 1.09827C12.2312 0.50296 10.9133 0.356172 9.73579 0.674214ZM12.2935 1.57126C13.7284 2.01162 14.9215 3.30826 15.2958 4.83323C15.4985 5.65688 15.4284 6.90458 15.1398 7.64668C14.6953 8.79653 13.9623 9.62833 12.9564 10.1339C11.1862 11.0228 9.17433 10.6477 7.84087 9.18796C7.05326 8.31539 6.69455 7.45096 6.62437 6.26034C6.44502 3.05545 9.32249 0.674214 12.2935 1.57126Z" fill="#232323" stroke="#232323" stroke-width="0.4"/>
<path d="M10.0319 12.4663C8.23833 12.7028 6.58515 13.3552 5.1971 14.3827C4.44848 14.9372 3.31777 16.1197 2.8031 16.9107C1.75036 18.5172 1.13432 20.3684 1.01735 22.2685C0.954962 23.2145 1.04854 23.5325 1.50082 23.8832L1.78935 24.1197H10.9988H20.2083L20.4891 23.9321C20.9647 23.6304 21.0583 23.3123 21.0037 22.2033C20.762 17.5305 17.3776 13.5264 12.8938 12.6212C12.2543 12.4907 10.5466 12.401 10.0319 12.4663ZM12.574 13.4367C16.6212 14.1788 19.7015 17.612 20.1693 21.9178C20.2707 22.8883 20.2707 22.9861 20.1225 23.1329C20.0134 23.2471 19.0776 23.2634 11.0144 23.2634C3.02924 23.2634 2.0077 23.2471 1.92192 23.1411C1.84394 23.0432 1.83614 22.7986 1.86733 22.1788C2.04669 18.9087 4.02739 15.8261 6.90487 14.3256C7.72366 13.9015 8.57365 13.5998 9.38464 13.4449C10.2112 13.2899 11.7241 13.2899 12.574 13.4367Z" fill="#232323" stroke="#232323" stroke-width="0.4"/>
</svg>
