<svg width="24" height="25" viewBox="0 0 24 25" fill="none" xmlns="http://www.w3.org/2000/svg">
<path d="M23.0663 22.1788H23.0644L21.3923 7.14399C21.3699 6.94242 21.2103 6.79063 21.0207 6.79063H16.904V5.5887C16.904 2.7122 14.7258 0.380371 12.0389 0.380371C9.35189 0.380371 7.1737 2.7122 7.1737 5.5887V6.79063H3.05704C2.86744 6.79063 2.70778 6.94242 2.68541 7.14399L1.0133 22.1788C0.891156 23.2775 1.62402 24.274 2.65024 24.4048C2.72377 24.4142 2.79773 24.4189 2.87179 24.4188H21.2078C22.2412 24.4191 23.0792 23.5224 23.0794 22.416C23.0794 22.3368 23.075 22.2576 23.0663 22.1788ZM7.92219 5.5887C7.92219 3.15476 9.76529 1.18165 12.0389 1.18165C14.3124 1.18165 16.1555 3.15476 16.1555 5.5887V6.79063H7.92219V5.5887ZM22.0457 23.2137C21.833 23.4701 21.5281 23.6171 21.2078 23.6175H2.87179C2.25171 23.6178 1.74892 23.0798 1.74869 22.416C1.74869 22.3685 1.75131 22.321 1.75654 22.2738L3.38936 7.59191H7.1737V10.3964C7.1737 10.6177 7.34127 10.797 7.54795 10.797C7.75462 10.797 7.92219 10.6177 7.92219 10.3964V7.59191H16.1555V10.3964C16.1555 10.6177 16.3231 10.797 16.5298 10.797C16.7364 10.797 16.904 10.6177 16.904 10.3964V7.59191H20.6883L22.3212 22.2738C22.359 22.6148 22.2588 22.9569 22.0457 23.2137Z" fill="#232323" stroke="#232323" stroke-width="0.5"/>
</svg>
