<svg width="24" height="23" viewBox="0 0 24 23" fill="none" xmlns="http://www.w3.org/2000/svg">
<path d="M17.0024 0.65654C15.0745 0.644949 13.2417 1.59749 11.9999 3.25651C10.7658 1.58615 8.92792 0.630901 6.99732 0.65654C3.37819 0.65654 0.444336 3.95713 0.444336 8.02865C0.444336 15.0059 11.2685 21.8185 11.7073 22.0818C11.8844 22.2149 12.1153 22.2149 12.2924 22.0818C12.7313 21.8185 23.5554 15.1046 23.5554 8.02865C23.5554 3.95713 20.6215 0.65654 17.0024 0.65654ZM11.9999 20.7654C10.3031 19.6464 1.61452 13.6894 1.61452 8.02865C1.61452 4.68421 4.02449 1.97293 6.99738 1.97293C8.81789 1.94603 10.5216 2.97908 11.5026 4.70456C11.7017 5.01355 12.0859 5.0824 12.3606 4.85827C12.413 4.81543 12.4592 4.76358 12.4972 4.70456C14.1241 1.9054 17.4601 1.11999 19.9482 2.95029C21.4714 4.07077 22.3882 5.9812 22.3852 8.02858C22.3853 13.7552 13.6966 19.6793 11.9999 20.7654Z" fill="#232323"/>
</svg>
