<svg width="32" height="34" viewBox="0 0 32 34" fill="none" xmlns="http://www.w3.org/2000/svg">
<circle cx="16" cy="16.373" r="16" fill="#AACCBC"/>
<g clip-path="url(#clip0_26_3544)">
<path d="M11.8061 8.40744C11.2842 8.46994 10.6686 8.67306 10.1998 8.93869C8.98731 9.63556 8.1873 10.8481 8.03418 12.2262C7.9873 12.6418 7.9873 20.1043 8.03418 20.5199C8.25605 22.5293 9.84356 24.1168 11.8529 24.3387C12.2686 24.3856 19.7311 24.3856 20.1467 24.3387C22.1561 24.1168 23.7436 22.5293 23.9654 20.5199C24.0123 20.1043 24.0123 12.6418 23.9654 12.2262C23.7436 10.2168 22.1561 8.62931 20.1467 8.40744C19.7779 8.36681 12.1654 8.36681 11.8061 8.40744ZM20.4717 9.41056C21.1217 9.58869 21.6217 9.87306 22.0592 10.3137C22.4998 10.7512 22.7842 11.2512 22.9654 11.9012L23.0467 12.2012V16.3731V20.5449L22.9654 20.8449C22.7842 21.4949 22.4998 21.9949 22.0592 22.4324C21.6217 22.8731 21.1217 23.1574 20.4717 23.3387L20.1717 23.4199H15.9998H11.8279L11.5279 23.3387C10.8779 23.1574 10.3779 22.8731 9.94043 22.4324C9.49981 21.9949 9.21543 21.4949 9.03418 20.8449L8.95293 20.5449V16.3731V12.2012L9.03418 11.9012C9.21543 11.2512 9.49981 10.7512 9.93731 10.3137C10.4561 9.79494 11.1404 9.45119 11.8592 9.34494C11.9623 9.32931 13.8748 9.31993 16.1092 9.32306L20.1717 9.32619L20.4717 9.41056Z" fill="white"/>
<path d="M20.3281 10.4574C19.5656 10.5637 19.0468 11.3043 19.2312 12.023C19.3593 12.5324 19.6843 12.8543 20.1906 12.9855C21.05 13.2043 21.8937 12.4262 21.75 11.548C21.6718 11.0574 21.3125 10.6449 20.8437 10.5043C20.7062 10.4637 20.4531 10.4418 20.3281 10.4574ZM20.6781 11.4543C20.8468 11.5605 20.875 11.8199 20.7343 11.9668C20.6187 12.0855 20.4781 12.1137 20.3343 12.0449C20.1156 11.9418 20.0687 11.6543 20.2437 11.4918C20.3718 11.3699 20.5218 11.3574 20.6781 11.4543Z" fill="white"/>
<path d="M15.3966 12.0449C13.6685 12.2824 12.2091 13.5824 11.7685 15.2856C11.381 16.7762 11.8154 18.3512 12.9185 19.4543C14.6372 21.1731 17.3622 21.1731 19.081 19.4543C20.7997 17.7356 20.7997 15.0106 19.081 13.2918C18.0935 12.3074 16.7716 11.8574 15.3966 12.0449ZM16.4997 12.9824C17.2497 13.0949 17.8872 13.4168 18.4216 13.9512C19.7685 15.2949 19.7685 17.4512 18.4216 18.7949C17.0779 20.1418 14.9216 20.1418 13.5779 18.7949C12.231 17.4512 12.231 15.2949 13.5779 13.9512C14.356 13.1731 15.4247 12.8168 16.4997 12.9824Z" fill="white"/>
</g>
<defs>
<clipPath id="clip0_26_3544">
<rect width="16" height="16" fill="white" transform="translate(8 8.37305)"/>
</clipPath>
</defs>
</svg>
