<svg width="16" height="16" viewBox="0 0 16 16" fill="none" xmlns="http://www.w3.org/2000/svg">
<g clip-path="url(#clip0_26_3686)">
<path d="M3.80606 0.0343275C3.28418 0.0968275 2.66856 0.299953 2.19981 0.565578C0.987306 1.26245 0.187305 2.47495 0.0341797 3.85308C-0.0126953 4.2687 -0.0126953 11.7312 0.0341797 12.1468C0.256055 14.1562 1.84356 15.7437 3.85293 15.9656C4.26856 16.0125 11.7311 16.0125 12.1467 15.9656C14.1561 15.7437 15.7436 14.1562 15.9654 12.1468C16.0123 11.7312 16.0123 4.2687 15.9654 3.85308C15.7436 1.8437 14.1561 0.256202 12.1467 0.0343275C11.7779 -0.00629807 4.16543 -0.00629807 3.80606 0.0343275ZM12.4717 1.03745C13.1217 1.21558 13.6217 1.49995 14.0592 1.94058C14.4998 2.37808 14.7842 2.87808 14.9654 3.52808L15.0467 3.82808V7.99995V12.1718L14.9654 12.4718C14.7842 13.1218 14.4998 13.6218 14.0592 14.0593C13.6217 14.5 13.1217 14.7843 12.4717 14.9656L12.1717 15.0468H7.99981H3.82793L3.52793 14.9656C2.87793 14.7843 2.37793 14.5 1.94043 14.0593C1.49981 13.6218 1.21543 13.1218 1.03418 12.4718L0.952931 12.1718V7.99995V3.82808L1.03418 3.52808C1.21543 2.87808 1.49981 2.37808 1.93731 1.94058C2.45606 1.42183 3.14043 1.07808 3.85918 0.971828C3.96231 0.956203 5.87481 0.946827 8.10919 0.949952L12.1717 0.953077L12.4717 1.03745Z" fill="white"/>
<path d="M12.3281 2.08425C11.5656 2.1905 11.0468 2.93112 11.2312 3.64987C11.3593 4.15925 11.6843 4.48112 12.1906 4.61237C13.05 4.83112 13.8937 4.053 13.75 3.17487C13.6718 2.68425 13.3125 2.27175 12.8437 2.13112C12.7062 2.0905 12.4531 2.06862 12.3281 2.08425ZM12.6781 3.08112C12.8468 3.18737 12.875 3.44675 12.7343 3.59362C12.6187 3.71237 12.4781 3.7405 12.3343 3.67175C12.1156 3.56862 12.0687 3.28112 12.2437 3.11862C12.3718 2.99675 12.5218 2.98425 12.6781 3.08112Z" fill="white"/>
<path d="M7.39662 3.67193C5.66849 3.90943 4.20912 5.20943 3.76849 6.91255C3.38099 8.40318 3.81537 9.97818 4.91849 11.0813C6.63724 12.8 9.36225 12.8 11.081 11.0813C12.7997 9.36255 12.7997 6.63755 11.081 4.9188C10.0935 3.93443 8.77162 3.48443 7.39662 3.67193ZM8.49975 4.60943C9.24975 4.72193 9.88725 5.0438 10.4216 5.57818C11.7685 6.92193 11.7685 9.07818 10.4216 10.4219C9.07787 11.7688 6.92162 11.7688 5.57787 10.4219C4.23099 9.07818 4.23099 6.92193 5.57787 5.57818C6.35599 4.80005 7.42475 4.4438 8.49975 4.60943Z" fill="white"/>
</g>
<defs>
<clipPath id="clip0_26_3686">
<rect width="16" height="16" fill="white"/>
</clipPath>
</defs>
</svg>
