<svg width="20" height="20" viewBox="0 0 20 20" fill="none" xmlns="http://www.w3.org/2000/svg">
<path d="M9.08211 2.07422C8.1407 2.17188 7.25789 2.43359 6.38679 2.87109C5.16414 3.48438 4.23835 4.30078 3.47273 5.44531C1.81257 7.91016 1.73445 11.1445 3.26179 13.793L3.43367 14.0898L2.7696 15.8789C2.2696 17.2344 2.11335 17.6992 2.12898 17.7812C2.16023 17.918 2.35945 18.0859 2.48835 18.0859C2.54304 18.0859 3.35554 17.7617 4.29304 17.3633L5.99617 16.6406L6.60164 16.9453C8.37507 17.8438 10.3555 18.0664 12.254 17.582C14.9532 16.8906 17.0977 14.7188 17.7579 12.0117C18.0391 10.8438 18.0391 9.42578 17.7579 8.26172C17.172 5.87109 15.5509 3.88672 13.3009 2.80859C12.0118 2.19141 10.4845 1.92578 9.08211 2.07422ZM10.586 2.85547C13.8126 3.18359 16.4298 5.57812 17.0782 8.79297C17.1563 9.17969 17.168 9.35156 17.168 10.1367C17.168 10.8438 17.1524 11.1094 17.0977 11.3867C16.7462 13.1406 15.8673 14.5859 14.5196 15.6289C12.2345 17.3984 9.04695 17.5508 6.50789 16.0195C6.30867 15.8984 6.13289 15.8203 6.06648 15.8203C6.00007 15.8203 5.33601 16.082 4.58601 16.3984C3.83601 16.7188 3.21882 16.9766 3.21101 16.9727C3.2071 16.9688 3.43757 16.3203 3.73054 15.5352C4.0196 14.75 4.25789 14.0625 4.25789 14.0156C4.25789 13.9648 4.17585 13.793 4.07429 13.6328C2.57429 11.2305 2.5821 8.20703 4.08992 5.91797C5.50789 3.76562 8.00398 2.58984 10.586 2.85547Z" fill="white"/>
<path d="M7.24594 5.26172C6.79281 5.44531 6.21469 5.94141 5.91781 6.40625C5.58969 6.91016 5.49594 7.37109 5.58187 8.01562C5.80844 9.71484 6.93344 11.5352 8.57406 12.8633C9.8514 13.8984 11.2733 14.4922 12.4764 14.5039C12.8045 14.5039 12.9178 14.4883 13.1522 14.4062C13.8162 14.1719 14.5272 13.5 14.7928 12.8516C14.9452 12.4844 14.8944 12.082 14.6678 11.8594C14.6014 11.793 14.3553 11.6211 14.1209 11.4805C13.8827 11.3398 13.4998 11.1055 13.2655 10.9648C12.6014 10.5586 12.3202 10.5078 11.9569 10.7305C11.7967 10.832 11.6678 10.9688 11.242 11.4844L11.0975 11.6602L10.9491 11.6055C10.5858 11.4766 9.85922 10.9219 9.37094 10.3984C8.87875 9.87109 8.43734 9.22266 8.43734 9.02344C8.43734 8.98047 8.55844 8.85156 8.7225 8.71484C9.1014 8.40625 9.39828 8.08203 9.45297 7.90625C9.55062 7.61328 9.42953 7.30469 8.83578 6.34766C8.24984 5.40625 8.23422 5.38281 8.05062 5.28516C7.84359 5.17578 7.48422 5.16406 7.24594 5.26172ZM7.84359 6.23047C7.91781 6.35938 8.10531 6.66797 8.26156 6.91406C8.41781 7.16016 8.58187 7.4375 8.62484 7.52734L8.71078 7.69141L8.44906 7.91797C7.6639 8.59766 7.57406 8.73047 7.65609 9.11328C7.76156 9.625 8.19906 10.3008 8.86312 10.9883C9.7264 11.8789 10.5741 12.4219 11.1209 12.4258C11.4022 12.4297 11.5467 12.332 11.9334 11.8672C12.3944 11.3164 12.3475 11.3438 12.6327 11.4961C12.7616 11.5703 13.117 11.7812 13.4178 11.9648C13.7186 12.1523 13.9959 12.3242 14.0389 12.3477C14.1444 12.4102 14.0975 12.5781 13.8866 12.8711C13.5545 13.3398 13.0467 13.6875 12.6366 13.7344C12.367 13.7656 11.7303 13.6602 11.2889 13.5156C8.95687 12.7422 6.77328 10.3203 6.38265 8.08594C6.26156 7.38281 6.36312 7.01172 6.81234 6.53125C7.0975 6.22656 7.4764 5.96875 7.61312 5.98438C7.68734 5.99219 7.74594 6.05469 7.84359 6.23047Z" fill="white"/>
</svg>
