<svg width="32" height="34" viewBox="0 0 32 34" fill="none" xmlns="http://www.w3.org/2000/svg">
<circle cx="16" cy="16.373" r="16" fill="#AACCBC"/>
<path d="M15.0821 8.8168C14.1407 8.91892 13.2579 9.19262 12.3868 9.65015C11.1641 10.2915 10.2384 11.1453 9.47273 12.3422C7.81257 14.9198 7.73445 18.3022 9.26179 21.0719L9.43367 21.3824L8.7696 23.2533C8.2696 24.6708 8.11335 25.1569 8.12898 25.2427C8.16023 25.3857 8.35945 25.5613 8.48835 25.5613C8.54304 25.5613 9.35554 25.2223 10.293 24.8056L11.9962 24.0499L12.6016 24.3685C14.3751 25.3081 16.3555 25.5409 18.254 25.0344C20.9532 24.3113 23.0977 22.04 23.7579 19.2091C24.0391 17.9877 24.0391 16.5048 23.7579 15.2875C23.172 12.7874 21.5509 10.7123 19.3009 9.58478C18.0118 8.93935 16.4845 8.66157 15.0821 8.8168ZM16.586 9.63381C19.8126 9.97695 22.4298 12.4811 23.0782 15.8431C23.1563 16.2475 23.168 16.4272 23.168 17.2483C23.168 17.9877 23.1524 18.2655 23.0977 18.5555C22.7462 20.3897 21.8673 21.9012 20.5196 22.9919C18.2345 24.8424 15.0469 25.0017 12.5079 23.4004C12.3087 23.2737 12.1329 23.192 12.0665 23.192C12.0001 23.192 11.336 23.4657 10.586 23.7966C9.83601 24.1316 9.21882 24.4012 9.21101 24.3971C9.2071 24.393 9.43757 23.7149 9.73054 22.8938C10.0196 22.0727 10.2579 21.3538 10.2579 21.3047C10.2579 21.2516 10.1759 21.0719 10.0743 20.9044C8.57429 18.3921 8.5821 15.2303 10.0899 12.8365C11.5079 10.5856 14.004 9.35602 16.586 9.63381Z" fill="white"/>
<path d="M13.2459 12.1502C12.7928 12.3422 12.2147 12.861 11.9178 13.3471C11.5897 13.8741 11.4959 14.3561 11.5819 15.0301C11.8084 16.8071 12.9334 18.7107 14.5741 20.0997C15.8514 21.1822 17.2733 21.8031 18.4764 21.8154C18.8045 21.8154 18.9178 21.799 19.1522 21.7132C19.8162 21.4681 20.5272 20.7655 20.7928 20.0874C20.9452 19.7034 20.8944 19.2827 20.6678 19.0498C20.6014 18.9804 20.3553 18.8006 20.1209 18.6536C19.8827 18.5065 19.4998 18.2614 19.2655 18.1143C18.6014 17.6895 18.3202 17.6364 17.9569 17.8692C17.7967 17.9754 17.6678 18.1184 17.242 18.6576L17.0975 18.8415L16.9491 18.7843C16.5858 18.6495 15.8592 18.0694 15.3709 17.522C14.8787 16.9705 14.4373 16.2924 14.4373 16.0841C14.4373 16.0391 14.5584 15.9043 14.7225 15.7614C15.1014 15.4386 15.3983 15.0996 15.453 14.9158C15.5506 14.6094 15.4295 14.2867 14.8358 13.2858C14.2498 12.3013 14.2342 12.2768 14.0506 12.1747C13.8436 12.0603 13.4842 12.0481 13.2459 12.1502ZM13.8436 13.1633C13.9178 13.2981 14.1053 13.6208 14.2616 13.8782C14.4178 14.1355 14.5819 14.4256 14.6248 14.5195L14.7108 14.6911L14.4491 14.928C13.6639 15.6388 13.5741 15.7777 13.6561 16.178C13.7616 16.7132 14.1991 17.4199 14.8631 18.1388C15.7264 19.0702 16.5741 19.638 17.1209 19.6421C17.4022 19.6462 17.5467 19.5441 17.9334 19.058C18.3944 18.482 18.3475 18.5106 18.6327 18.6699C18.7616 18.7475 19.117 18.9681 19.4178 19.1601C19.7186 19.3562 19.9959 19.5359 20.0389 19.5604C20.1444 19.6258 20.0975 19.8014 19.8866 20.1078C19.5545 20.598 19.0467 20.9616 18.6366 21.0106C18.367 21.0433 17.7303 20.933 17.2889 20.7819C14.9569 19.973 12.7733 17.4403 12.3827 15.1037C12.2616 14.3684 12.3631 13.9803 12.8123 13.4778C13.0975 13.1592 13.4764 12.8896 13.6131 12.9059C13.6873 12.9141 13.7459 12.9795 13.8436 13.1633Z" fill="white"/>
</svg>
