<svg width="40" height="38" viewBox="0 0 40 38" fill="none" xmlns="http://www.w3.org/2000/svg">
<path d="M16.4583 13.923H34.5849C34.911 13.923 35.1753 13.6589 35.1753 13.3331C35.1753 13.0073 34.911 12.7433 34.5849 12.7433H16.4583C16.1322 12.7433 15.868 13.0073 15.868 13.3331C15.868 13.6589 16.1322 13.923 16.4583 13.923Z" fill="#2B2B2B"/>
<path d="M16.4583 18.2207H34.5849C34.911 18.2207 35.1753 17.9567 35.1753 17.6309C35.1753 17.3051 34.911 17.041 34.5849 17.041H16.4583C16.1322 17.041 15.868 17.3051 15.868 17.6309C15.868 17.9567 16.1322 18.2207 16.4583 18.2207Z" fill="#2B2B2B"/>
<path d="M21.3004 21.3409H14.2995C13.9734 21.3409 13.7091 21.605 13.7091 21.9308C13.7091 22.2566 13.9734 22.5206 14.2995 22.5206H21.3004C21.6265 22.5206 21.8908 22.2566 21.8908 21.9308C21.8908 21.605 21.6265 21.3409 21.3004 21.3409Z" fill="#2B2B2B"/>
<path d="M6.09295 21.9307C6.09295 22.2565 6.35732 22.5205 6.68334 22.5205H11.1779C11.504 22.5205 11.7683 22.2565 11.7683 21.9307C11.7683 21.6049 11.504 21.3409 11.1779 21.3409H6.68334C6.35725 21.3409 6.09295 21.605 6.09295 21.9307Z" fill="#2B2B2B"/>
<path d="M7.80193 19.6186C8.12803 19.6186 8.39232 19.3546 8.39232 19.0288C8.39232 18.703 8.12803 18.4389 7.80193 18.4389C7.47232 18.4389 7.07943 18.2731 7.07943 17.4826V16.651C7.07943 16.1649 6.93725 15.8355 6.74912 15.6079C6.93717 15.3802 7.07943 15.0508 7.07943 14.5651V13.7335C7.07943 12.9431 7.47232 12.7772 7.80193 12.7772C8.12803 12.7772 8.39232 12.5131 8.39232 12.1874C8.39232 11.8616 8.12803 11.5975 7.80193 11.5975C6.85451 11.5975 5.89858 12.258 5.89858 13.7334V14.565C5.89858 14.8748 5.84217 14.8957 5.57123 14.9966C5.5092 15.0197 5.44514 15.0435 5.37983 15.0737C5.08389 15.2105 4.95498 15.561 5.09186 15.8567C5.14561 15.9728 5.23295 16.0621 5.33647 16.1207C5.34904 16.129 5.51225 16.1989 5.57108 16.2206C5.84217 16.3203 5.89858 16.341 5.89858 16.6508V17.4824C5.89858 18.9582 6.85451 19.6186 7.80193 19.6186Z" fill="#2B2B2B"/>
<path d="M11.5948 17.3898C11.5948 18.1802 11.2019 18.346 10.8723 18.346C10.5462 18.346 10.2819 18.6101 10.2819 18.9359C10.2819 19.2617 10.5462 19.5257 10.8723 19.5257C11.8197 19.5257 12.7756 18.8653 12.7756 17.3899V16.5604C12.7756 16.2507 12.832 16.2296 13.103 16.1289C13.1621 16.1068 13.2232 16.0838 13.2853 16.0556C13.287 16.0548 13.3123 16.0425 13.3192 16.0379C13.4319 15.9792 13.5271 15.8852 13.5837 15.7608C13.7188 15.4643 13.5877 15.1146 13.291 14.9796C13.2269 14.9505 13.1639 14.9273 13.103 14.905C12.832 14.8053 12.7755 14.7845 12.7755 14.4746V13.643C12.7755 12.1675 11.8196 11.5071 10.8722 11.5071C10.5461 11.5071 10.2818 11.7711 10.2818 12.0969C10.2818 12.4227 10.5461 12.6867 10.8722 12.6867C11.2018 12.6867 11.5947 12.8526 11.5947 13.6431V14.4747C11.5947 14.9607 11.7369 15.2901 11.925 15.5178C11.737 15.7455 11.5947 16.0749 11.5947 16.5606L11.5948 17.3898Z" fill="#2B2B2B"/>
<path d="M20.9112 25.6386H6.60602C6.27992 25.6386 6.01562 25.9027 6.01562 26.2284C6.01562 26.5542 6.27992 26.8183 6.60602 26.8183H20.9111C21.2372 26.8183 21.5015 26.5542 21.5015 26.2284C21.5015 25.9027 21.2372 25.6386 20.9112 25.6386Z" fill="#2B2B2B"/>
<path d="M20.8338 29.9385H6.52869C6.2026 29.9385 5.9383 30.2026 5.9383 30.5284C5.9383 30.8541 6.2026 31.1182 6.52869 31.1182H20.8338C21.1599 31.1182 21.4242 30.8541 21.4242 30.5284C21.4242 30.2026 21.1599 29.9385 20.8338 29.9385Z" fill="#2B2B2B"/>
<path d="M33.7993 6.57072C34.8159 6.57072 35.6428 5.74447 35.6428 4.72892C35.6428 3.71338 34.8159 2.88721 33.7993 2.88721C32.7816 2.88721 31.9536 3.71338 31.9536 4.72892C31.9536 5.74447 32.7815 6.57072 33.7993 6.57072ZM33.7993 4.06689C34.1648 4.06689 34.4621 4.36392 34.4621 4.729C34.4621 5.09408 34.1647 5.39111 33.7993 5.39111C33.4327 5.39111 33.1343 5.09408 33.1343 4.729C33.1343 4.36392 33.4326 4.06689 33.7993 4.06689Z" fill="#2B2B2B"/>
<path d="M28.4724 6.57072C29.489 6.57072 30.316 5.74447 30.316 4.72892C30.316 3.71338 29.489 2.88721 28.4724 2.88721C27.4558 2.88721 26.6289 3.71338 26.6289 4.72892C26.6289 5.74447 27.4558 6.57072 28.4724 6.57072ZM28.4724 4.06689C28.8379 4.06689 29.1352 4.36392 29.1352 4.729C29.1352 5.09408 28.8378 5.39111 28.4724 5.39111C28.1069 5.39111 27.8097 5.09408 27.8097 4.729C27.8097 4.36392 28.1069 4.06689 28.4724 4.06689Z" fill="#2B2B2B"/>
<path d="M23.145 6.57072C24.1616 6.57072 24.9885 5.74447 24.9885 4.72892C24.9885 3.71338 24.1616 2.88721 23.145 2.88721C22.1284 2.88721 21.3014 3.71338 21.3014 4.72892C21.3014 5.74447 22.1284 6.57072 23.145 6.57072ZM23.145 4.06689C23.5105 4.06689 23.8078 4.36392 23.8078 4.729C23.8078 5.09408 23.5104 5.39111 23.145 5.39111C22.7796 5.39111 22.4822 5.09408 22.4822 4.729C22.4821 4.36392 22.7795 4.06689 23.145 4.06689Z" fill="#2B2B2B"/>
<path d="M35.442 0.445312H4.55578C2.04375 0.445312 0 2.48703 0 4.99664V33.0013C0 35.512 2.04375 37.5547 4.55578 37.5547H35.442C37.9553 37.5547 40 35.512 40 33.0012V4.99664C40 2.48703 37.9553 0.445312 35.442 0.445312ZM35.442 36.3751H4.55578C2.69484 36.3751 1.18078 34.8616 1.18078 33.0013V9.11875H9.85625C10.1823 9.11875 10.4466 8.85469 10.4466 8.52891C10.4466 8.20312 10.1823 7.93906 9.85625 7.93906H1.18086V4.99664C1.18086 3.1375 2.69484 1.625 4.55586 1.625H35.4421C37.3043 1.625 38.8193 3.1375 38.8193 4.99664V7.93914H12.5596C12.2335 7.93914 11.9692 8.2032 11.9692 8.52898C11.9692 8.85476 12.2335 9.11883 12.5596 9.11883H38.8192V33.0013C38.8192 34.8616 37.3042 36.3751 35.442 36.3751Z" fill="#2B2B2B"/>
<path d="M35.0545 25.0326H34.897C34.8549 24.9197 34.8091 24.8082 34.7599 24.6983L34.8698 24.5884C35.0967 24.3618 35.2212 24.06 35.2204 23.7386C35.2197 23.4183 35.0944 23.1184 34.8703 22.8965L33.7274 21.7525C33.5013 21.5266 33.2001 21.4023 32.8793 21.4023C32.5585 21.4023 32.2572 21.5267 32.0312 21.7525L31.9214 21.8622C31.8111 21.8128 31.6995 21.767 31.5866 21.725V21.5679C31.5866 20.9085 31.0486 20.372 30.3874 20.372H28.7711C28.1098 20.372 27.5718 20.9085 27.5718 21.5679V21.7586C27.4684 21.799 27.3659 21.8427 27.2644 21.8895L27.1272 21.7525C26.9011 21.5266 26.6001 21.4023 26.2795 21.4023C26.2785 21.4023 26.2776 21.4023 26.2766 21.4023C25.9567 21.403 25.6572 21.5275 25.4329 21.7528L24.2905 22.8941C24.064 23.1184 23.9387 23.4183 23.9379 23.7386C23.9372 24.06 24.0618 24.3617 24.2885 24.5884L24.4588 24.7584C24.4191 24.849 24.3821 24.9404 24.3475 25.0325H24.1038C23.4438 25.0325 22.9068 25.57 22.9068 26.2305V27.8452C22.9068 28.5059 23.4437 29.0433 24.1038 29.0433H24.3818C24.4145 29.1266 24.449 29.2091 24.4855 29.2907L24.2886 29.4873C23.821 29.9545 23.821 30.7147 24.289 31.1823L25.4313 32.3212C25.6558 32.5477 25.956 32.6727 26.2767 32.6735H26.2796C26.6002 32.6735 26.9011 32.5492 27.1274 32.3232L27.3231 32.1276C27.4052 32.1643 27.4882 32.199 27.5719 32.2316V32.5077C27.5719 33.1684 28.1099 33.7058 28.7711 33.7058H30.3875C31.0487 33.7058 31.5867 33.1683 31.5867 32.5077V32.2644C31.6787 32.2301 31.7704 32.193 31.8615 32.1536L32.0312 32.3231C32.2573 32.549 32.5585 32.6734 32.8793 32.6734C33.2002 32.6734 33.5014 32.5491 33.7275 32.3231L34.87 31.1818C35.0961 30.9559 35.2206 30.655 35.2206 30.3345C35.2206 30.0141 35.0961 29.7132 34.87 29.4873L34.7333 29.3507C34.7801 29.2494 34.824 29.1468 34.8644 29.0431H35.0547C35.716 29.0431 36.254 28.5056 36.254 27.8451V26.2304C36.2538 25.57 35.7158 25.0326 35.0545 25.0326ZM35.073 27.8453C35.073 27.8536 35.0628 27.8637 35.0545 27.8637H34.4435C34.1824 27.8637 33.9523 28.0351 33.8777 28.285C33.7859 28.5922 33.6582 28.8912 33.498 29.1737C33.3672 29.4044 33.4065 29.6941 33.5942 29.8815L34.0348 30.3216C34.0412 30.328 34.0412 30.3416 34.0348 30.3479L32.8923 31.4892C32.8897 31.4918 32.8687 31.492 32.866 31.4892L32.401 31.0247C32.2183 30.8422 31.938 30.7997 31.7092 30.9195C31.4234 31.0694 31.1296 31.1873 30.8358 31.2701C30.5814 31.3418 30.4057 31.5737 30.4057 31.8377V32.508C30.4057 32.5163 30.3975 32.5264 30.3872 32.5264H28.7709C28.7627 32.5264 28.7525 32.5163 28.7525 32.508V31.8112C28.7525 31.5503 28.5809 31.3204 28.3307 31.2459C28.0395 31.1593 27.7569 31.0409 27.4908 30.8944C27.4012 30.845 27.3031 30.821 27.2058 30.821C27.0529 30.821 26.9017 30.8803 26.7881 30.9938L26.2922 31.4893C26.2909 31.4906 26.2875 31.4941 26.2793 31.4941C26.2729 31.4941 26.2708 31.492 26.2677 31.4889L25.1235 30.348C25.1172 30.3416 25.1172 30.328 25.1236 30.3217L25.6195 29.8262C25.8045 29.6414 25.8457 29.357 25.7206 29.1273C25.5747 28.8595 25.4554 28.575 25.3661 28.2819C25.2903 28.0336 25.0611 27.8639 24.8012 27.8639H24.1037C24.0966 27.8639 24.0875 27.8549 24.0875 27.8455V26.2308C24.0875 26.2213 24.0966 26.2123 24.1037 26.2123H24.7746C25.0389 26.2123 25.271 26.0369 25.3428 25.7827C25.4268 25.4856 25.5447 25.1943 25.6936 24.9167C25.8165 24.6876 25.7747 24.4051 25.5907 24.2212L25.1235 23.7545C25.1222 23.7531 25.1187 23.7497 25.1187 23.7416C25.1187 23.7352 25.1208 23.733 25.1235 23.7304L26.2681 22.5868C26.2687 22.5862 26.2694 22.5855 26.27 22.5848C26.2707 22.5841 26.2727 22.582 26.2792 22.582C26.2872 22.582 26.2908 22.5855 26.2921 22.5867L26.7326 23.0269C26.9199 23.2139 27.2088 23.2536 27.4397 23.1239C27.7259 22.963 28.0261 22.8351 28.3317 22.7434C28.5815 22.6686 28.7524 22.439 28.7524 22.1785V21.568C28.7524 21.5609 28.7614 21.5518 28.7708 21.5518H30.3872C30.398 21.5518 30.4056 21.5603 30.4056 21.568V22.152C30.4056 22.4159 30.5811 22.6477 30.8352 22.7195C31.1528 22.8094 31.4624 22.9362 31.7554 23.0963C31.9854 23.2221 32.2709 23.1812 32.4564 22.996L32.8661 22.5867C32.8686 22.5841 32.8902 22.5845 32.8918 22.5864L34.0367 23.7323C34.0374 23.733 34.0395 23.7351 34.0395 23.7416C34.0395 23.7497 34.0361 23.7532 34.0347 23.7545L33.625 24.1637C33.4397 24.349 33.3988 24.6341 33.5247 24.8639C33.6839 25.1545 33.8108 25.4641 33.9021 25.7841C33.9743 26.0375 34.2061 26.2123 34.4699 26.2123H35.0544C35.0627 26.2123 35.0729 26.2225 35.0729 26.2308L35.073 27.8453Z" fill="#2B2B2B"/>
<path d="M29.5793 23.9532C27.8766 23.9532 26.4914 25.337 26.4914 27.038C26.4914 28.7389 27.8766 30.1227 29.5793 30.1227C31.282 30.1227 32.6671 28.7389 32.6671 27.038C32.6671 25.337 31.2819 23.9532 29.5793 23.9532ZM29.5793 28.9431C28.5278 28.9431 27.6722 28.0885 27.6722 27.038C27.6722 25.9874 28.5278 25.1328 29.5793 25.1328C30.6309 25.1328 31.4864 25.9875 31.4864 27.038C31.4864 28.0884 30.6308 28.9431 29.5793 28.9431Z" fill="#2B2B2B"/>
</svg>
