<svg width="40" height="36" viewBox="0 0 40 36" fill="none" xmlns="http://www.w3.org/2000/svg">
<path d="M37.82 11.1573H35.5784V3.58154C35.5784 1.84498 34.1656 0.432251 32.429 0.432251H5.29342C3.55686 0.432251 2.14413 1.84498 2.14413 3.58154V22.8088C2.14413 23.5322 2.39913 24.2122 2.82749 24.7539H1.01398C0.454842 24.7538 0 25.2106 0 25.7719V27.2585C0 28.6874 1.15382 29.8498 2.57202 29.8498H17.1034C26.7344 29.8498 19.2529 29.6226 19.2529 29.299C19.2529 28.9754 26.4062 28.6779 17.1034 28.6779H2.57202C1.79999 28.6779 1.17187 28.0412 1.17187 27.2585V25.9257H25.8562V28.6779H19.8378C19.5141 28.6779 19.2519 28.9403 19.2519 29.2639C19.2519 29.5874 19.5141 29.8498 19.8378 29.8498H25.8562V33.3879C25.8562 34.59 26.8342 35.568 28.0362 35.568H37.8199C39.022 35.568 39.9999 34.59 39.9999 33.3879C39.9999 32.4924 39.9999 13.978 39.9999 13.3374C40 12.1353 39.022 11.1573 37.82 11.1573ZM25.8562 24.7538H4.93904C4.01077 24.5836 3.31608 23.7551 3.31608 22.8087V3.58154C3.31608 2.49115 4.20311 1.60412 5.2935 1.60412H32.4291C33.5195 1.60412 34.4066 2.49115 34.4066 3.58154V11.1574H33.2756C33.2756 10.3379 33.2756 4.66294 33.2756 3.76364C33.2756 3.18701 32.8064 2.71779 32.2298 2.71779C32.0702 2.71779 6.30748 2.71779 5.49287 2.71779C4.91615 2.71779 4.44701 3.18693 4.44701 3.76364V22.5979C4.44701 23.1746 4.91615 23.6438 5.49287 23.6438H25.8563L25.8562 24.7538ZM32.1036 3.88958V5.44528H8.6084V3.88958H32.1036ZM7.43653 3.88958V5.44528H5.61881V3.88958H7.43653ZM25.8562 13.3373V22.4718H5.61881V6.61715H32.1036V11.1573H28.0363C26.8342 11.1573 25.8562 12.1353 25.8562 13.3373ZM27.0281 15.6377H28.2063V16.8109H27.0281V15.6377ZM38.8281 33.3879C38.8281 33.9438 38.3759 34.3961 37.82 34.3961H28.0362C27.4804 34.3961 27.0281 33.9438 27.0281 33.3879V31.7086H38.8281V33.3879ZM38.8281 30.5367H27.0281C27.0281 25.7536 27.0281 22.761 27.0281 17.9828H38.8281V30.5367ZM38.8281 16.8109H29.3782V15.6377H38.8281V16.8109ZM38.8281 14.4658C38.2301 14.4658 27.5614 14.4658 27.0281 14.4658V13.3373C27.0281 12.7814 27.4804 12.3292 28.0362 12.3292H37.8199C38.3758 12.3292 38.8281 12.7814 38.8281 13.3373L38.8281 14.4658Z" fill="#2B2B2B"/>
<path d="M32.3059 33.5149H33.5515C33.8751 33.5149 34.1374 33.2525 34.1374 32.929C34.1374 32.6054 33.8751 32.343 33.5515 32.343H32.3059C31.9822 32.343 31.72 32.6054 31.72 32.929C31.72 33.2525 31.9822 33.5149 32.3059 33.5149Z" fill="#2B2B2B"/>
<path d="M20.794 13.5531L18.2796 11.8387C17.4839 11.296 16.4033 11.8669 16.4033 12.8301V16.2591C16.4033 17.2221 17.4835 17.7933 18.2796 17.2506L20.794 15.5362C21.4921 15.0601 21.4919 14.029 20.794 13.5531ZM20.1337 14.568L17.6194 16.2825C17.6118 16.2876 17.6053 16.2921 17.5902 16.2841C17.5752 16.2762 17.5752 16.2683 17.5752 16.2591V12.8301C17.5752 12.821 17.5752 12.8131 17.5902 12.8051C17.5962 12.802 17.6008 12.8008 17.6047 12.8008C17.6106 12.8008 17.6148 12.8037 17.6194 12.8068L20.1337 14.5212C20.139 14.5248 20.1461 14.5297 20.1461 14.5446C20.1461 14.5596 20.139 14.5644 20.1337 14.568Z" fill="#2B2B2B"/>
<path d="M18.4707 9.05872C15.4458 9.05872 12.9849 11.5197 12.9849 14.5444C12.9849 17.5692 15.4458 20.0301 18.4707 20.0301C21.4955 20.0301 23.9564 17.5693 23.9564 14.5444C23.9564 11.5196 21.4955 9.05872 18.4707 9.05872ZM18.4707 18.8583C16.092 18.8583 14.1568 16.9232 14.1568 14.5445C14.1568 12.1658 16.092 10.2307 18.4707 10.2307C20.8493 10.2307 22.7845 12.1659 22.7845 14.5445C22.7845 16.9231 20.8493 18.8583 18.4707 18.8583Z" fill="#2B2B2B"/>
<path d="M32.8042 21.7638C32.0599 21.2563 31.0525 21.7925 31.0525 22.6896V25.674C31.0525 26.5784 32.0661 27.103 32.8043 26.5997L34.9926 25.1075C35.6445 24.6631 35.6443 23.7004 34.9927 23.256L32.8042 21.7638ZM32.2244 25.5767V22.7868L34.2702 24.1818L32.2244 25.5767Z" fill="#2B2B2B"/>
<path d="M32.9282 29.0321C34.9671 29.0321 36.8013 27.7435 37.4922 25.8256C37.6019 25.5212 37.4441 25.1855 37.1396 25.0758C36.8352 24.9663 36.4994 25.124 36.3897 25.4285C35.8657 26.883 34.4745 27.8603 32.9281 27.8603C30.8997 27.8603 29.2496 26.21 29.2496 24.1817C29.2496 22.1535 30.8997 20.5032 32.9281 20.5032C34.5395 20.5032 35.9489 21.5346 36.4353 23.0697C36.5329 23.3782 36.8625 23.5491 37.1707 23.4513C37.4793 23.3536 37.6501 23.0243 37.5524 22.7158C36.9111 20.6915 35.0528 19.3314 32.9282 19.3314C30.2537 19.3314 28.0778 21.5074 28.0778 24.1818C28.0778 26.8563 30.2537 29.0321 32.9282 29.0321Z" fill="#2B2B2B"/>
</svg>
