<svg width="40" height="40" viewBox="0 0 40 40" fill="none" xmlns="http://www.w3.org/2000/svg">
<path d="M35.9342 29.4143C35.9773 29.3639 36.0107 29.306 36.0326 29.2434C37.659 26.4343 38.5154 23.2459 38.5154 19.9999C38.5154 16.754 37.659 13.5656 36.0326 10.7565C36.0107 10.6939 35.9773 10.636 35.9342 10.5856C33.5289 6.52931 29.6721 3.53852 25.1448 2.2187C25.0987 2.19769 25.0499 2.18328 24.9998 2.17588C21.7302 1.25371 18.2693 1.25371 14.9998 2.17588C14.9505 2.18288 14.9023 2.19655 14.8567 2.21651C10.3282 3.53625 6.47059 6.52796 4.06541 10.5856C4.0223 10.636 3.98892 10.6939 3.96698 10.7565C2.34058 13.5656 1.48415 16.754 1.48415 19.9999C1.48415 23.2459 2.34058 26.4343 3.96698 29.2434C3.98892 29.306 4.0223 29.3639 4.06541 29.4143C6.46876 33.4689 10.3223 36.4592 14.8467 37.7806C14.8945 37.8019 14.9451 37.8163 14.997 37.8234C18.2675 38.7461 21.7296 38.7461 25.0001 37.8234C25.0547 37.8165 25.1079 37.8015 25.1579 37.7787C29.68 36.4565 33.5315 33.467 35.9342 29.4143ZM20.5467 37.4081V29.6093H28.0195C27.207 32.5812 26.0379 35.0506 24.616 36.7968C23.2886 37.1612 21.9226 37.3664 20.5467 37.4081ZM15.3835 36.7962C13.9617 35.0506 12.7926 32.5815 11.9801 29.6087H19.4529V37.4074C18.077 37.3658 16.711 37.1606 15.3835 36.7962ZM2.59166 20.5462H4.99979V24.8437C4.99987 24.9887 5.05752 25.1278 5.16006 25.2303C5.2626 25.3328 5.40165 25.3905 5.54666 25.3906H10.0201C10.1651 26.4603 10.3532 27.5062 10.5826 28.5156H4.80916C3.43656 26.0777 2.67564 23.3433 2.59166 20.5468V20.5462ZM4.81041 11.4837H10.5829C10.3532 12.4931 10.1651 13.5393 10.0204 14.6087H5.54666C5.47481 14.6087 5.40366 14.6229 5.33729 14.6505C5.27092 14.678 5.21062 14.7183 5.15984 14.7692C5.10905 14.82 5.06878 14.8804 5.04132 14.9468C5.01386 15.0132 4.99975 15.0843 4.99979 15.1562V19.4531H2.59166C2.67564 16.6566 3.43656 13.9222 4.80916 11.4843L4.81041 11.4837ZM19.4529 2.59182V10.3906H11.9801C12.7926 7.4187 13.9617 4.94932 15.3835 3.20307C16.711 2.83868 18.077 2.63348 19.4529 2.59182ZM24.616 3.2037C26.0379 4.94932 27.207 7.41838 28.0195 10.3912H20.5467V2.59182C21.9226 2.63369 23.2886 2.83909 24.616 3.2037ZM37.4079 19.4537H34.9998V15.1562C34.9997 15.0112 34.9421 14.8721 34.8395 14.7696C34.737 14.667 34.5979 14.6094 34.4529 14.6093H29.9795C29.8345 13.5396 29.6464 12.4937 29.417 11.4843H35.1904C36.563 13.9222 37.3239 16.6566 37.4079 19.4531V19.4537ZM35.1892 28.5162H29.4167C29.6464 27.5068 29.8345 26.4606 29.9792 25.3912H34.4529C34.5248 25.3912 34.5959 25.377 34.6623 25.3494C34.7287 25.3219 34.789 25.2815 34.8397 25.2307C34.8905 25.1799 34.9308 25.1195 34.9583 25.0531C34.9857 24.9867 34.9998 24.9156 34.9998 24.8437V20.5468H37.4079C37.3239 23.3433 36.563 26.0777 35.1904 28.5156L35.1892 28.5162ZM20.5454 28.5162V25.3912H28.8748C28.7251 26.4634 28.531 27.5096 28.2929 28.5162H20.5454ZM6.09354 24.2968V15.7031H33.906V24.2968H6.09354ZM28.8748 14.6093H20.5467V11.4843H28.2939C28.531 12.4906 28.7257 13.5371 28.8748 14.6093ZM19.452 11.4843V14.6093H11.1248C11.2745 13.5371 11.4685 12.4909 11.7067 11.4843H19.452ZM11.1248 25.3906H19.4529V28.5156H11.7057C11.4685 27.509 11.2739 26.4628 11.1248 25.3906ZM26.3923 36.2031C27.6478 34.1612 28.5787 31.9368 29.1517 29.6093H34.5232C32.548 32.5844 29.7106 34.8847 26.3914 36.2018L26.3923 36.2031ZM34.5232 10.3906H29.1507C28.5774 8.06319 27.6466 5.83882 26.3914 3.79682C29.7104 5.11462 32.5474 7.41528 34.5223 10.3906H34.5232ZM13.6092 3.79682C12.3539 5.83879 11.423 8.06316 10.8498 10.3906H5.47729C7.45222 7.41554 10.2893 5.11518 13.6082 3.79776L13.6092 3.79682ZM5.47729 29.6093H10.8489C11.4218 31.9368 12.3526 34.1612 13.6079 36.2031C10.289 34.8852 7.4521 32.5846 5.47729 29.6093Z" fill="#2B2B2B"/>
<path d="M14.3093 20.9963L13.2224 17.6953H12.3099L11.2165 20.9963L10.2302 17.6953H9.31083L10.7736 22.3047H11.6055L12.7661 18.8831L13.9202 22.3047H14.7589L16.2146 17.6953H15.2955L14.3093 20.9963Z" fill="#2B2B2B"/>
<path d="M21.1571 22.3047H21.9956L23.4515 17.6953H22.5321L21.5462 20.9963L20.4593 17.6953H19.5468L18.4531 20.9963L17.4671 17.6953H16.5477L18.0102 22.3047H18.8424L20.0031 18.8831L21.1571 22.3047Z" fill="#2B2B2B"/>
<path d="M26.0812 22.3047L27.2415 18.8831L28.3955 22.3047H29.2343L30.6902 17.6953H29.7708L28.7846 20.9963L27.6977 17.6953H26.7852L25.6918 20.9963L24.7055 17.6953H23.7865L25.249 22.3047H26.0812Z" fill="#2B2B2B"/>
</svg>
