<svg width="105" height="40" viewBox="0 0 105 40" fill="none" xmlns="http://www.w3.org/2000/svg">
<path fill-rule="evenodd" clip-rule="evenodd" d="M5.06411 37.3492V37.4272L4.9603 37.5052H4V28.7729H5.10304V28.8769L5.06411 37.3492ZM12.8503 29.2017V29.5786H10.3068V37.3232L10.203 37.4012H9.13888V29.6565H6.4786V28.9548L6.49158 28.7209H12.7594V28.8249L12.8503 29.2017ZM21.5319 36.4136V36.7905L21.441 36.9204L21.3372 37.0244L21.1296 37.1413L20.9349 37.2713L20.6754 37.3752L20.1304 37.5182H18.8716L18.3136 37.3492L17.8594 37.0633L17.4831 36.7125L17.3014 36.4916L17.1846 36.2317L16.8731 35.7639L16.7434 35.1012V33.5159L16.8212 33.139L16.8991 32.7882L17.1716 32.2034L17.509 31.7227L17.9373 31.3718L18.4174 31.1249L18.9624 30.969H20.4029L20.6235 31.0729L21.0517 31.2678L21.2074 31.3718L21.3113 31.4758H21.3891L21.467 31.5797V32.3854H21.2594L21.1296 32.2814L20.9868 32.1904L20.8052 32.0605L20.5846 31.9306L20.2991 31.8006L20.0006 31.7097H19.222L18.8975 31.8006L18.5861 32.0085L18.3655 32.2814L18.1838 32.6193L18.0411 33.0481L17.9632 33.5159V34.6594L18.0411 35.1402L18.1838 35.569L18.3655 35.8939L18.6121 36.1407L18.9235 36.3227L19.2479 36.4526H20.0265L20.325 36.3487L20.6105 36.2187L20.8311 36.0628L21.0387 35.9458L21.2074 35.8159L21.3372 35.7119H21.5059V35.9718L21.5319 36.4136ZM28.5654 34.1916V35.2831L28.3577 35.8809L28.215 36.1667L27.8906 36.6605L27.6829 36.8944L27.4623 37.0763L27.1768 37.2453L26.9043 37.3752L26.6059 37.5052L26.2685 37.5701H24.8669L24.5295 37.4922L24.2311 37.4012L23.725 37.1153L23.2967 36.7385L22.9983 36.2577L22.7517 35.7119L22.6219 35.0492V33.5938L22.7777 32.9051L23.0242 32.3334L23.3486 31.8266L23.5563 31.6187L23.7769 31.4238L24.3089 31.1119L24.9578 30.943H26.3982L26.6967 31.021L27.0081 31.1249L27.5013 31.3978L27.9295 31.7746L28.2669 32.2554L28.4875 32.8142L28.6173 33.4639L28.5654 34.1916ZM27.3975 34.2696V33.7888L27.3326 33.308L27.2547 32.9701L27.0471 32.6193L26.8005 32.3204L26.4761 32.0865L26.0738 31.9436H25.1395L24.7372 32.0605L24.4128 32.2944L24.1532 32.5673L23.9586 32.9181L23.8028 33.334L23.699 33.8018V34.8153L23.7769 35.2701L23.9067 35.6989L24.0754 36.0498L24.3349 36.3227L24.6593 36.5566L25.0876 36.7125H26.0219L26.3982 36.5826L26.7486 36.3746L26.9952 36.0758L27.2028 35.7509L27.3585 35.3221L27.4234 34.8673L27.3975 34.2696ZM39.2714 37.3492V37.4532H38.2851V32.9051L38.1943 32.6063L38.0645 32.3594L37.8828 32.1515L37.6882 31.9955L37.4286 31.9046H36.7798L36.5722 31.9955L36.3775 32.1255L35.9752 32.4763L35.7416 32.7102L35.521 32.9831V37.4012H34.4829V32.9051L34.3791 32.6063L34.2493 32.3594L33.7432 32.1515L33.5356 31.9955L33.289 31.9046H32.6012L32.4066 31.9955L32.1989 32.1255L31.7966 32.4763L31.3684 32.9831V37.4012H30.473V31.1899H31.2257V32.0865L31.4852 31.8136L31.7318 31.5927L31.9913 31.3848L32.2379 31.2289L32.744 31.0339L33.2241 30.956H33.5745L33.8989 31.0339L34.1844 31.1379L34.431 31.2808L34.6516 31.4628L34.8333 31.6577L35.1058 32.1385L35.4172 31.8396L35.6897 31.5797L35.9622 31.3848L36.2218 31.2029L36.4683 31.0859L36.7019 31.008H37.7271L38.1813 31.1639L38.5317 31.4108L38.934 31.6707L39.1546 32.0475L39.2843 32.5023L39.3622 32.9831V33.4899L39.2714 37.3492ZM46.9278 34.1656V34.9583L46.798 35.634L46.6942 35.9328L46.5904 36.2187L46.2919 36.7125L45.9156 37.1153L45.4614 37.4012L44.9293 37.5701H43.5927L43.398 37.4792L43.1774 37.3492L42.9439 37.1673L42.4897 36.7645V39.9221L42.3858 40.0001H41.4515L41.3607 39.9221V31.2419L41.4385 31.1639H42.1652L42.2561 31.2419V32.0735L42.5416 31.8006L42.7881 31.5797L43.2942 31.2159L43.8522 31.021H45.0331L45.5392 31.1899L45.9675 31.5277L46.3179 31.9046L46.5644 32.4114L46.7461 32.9571L46.8499 33.5679L46.9278 34.1656ZM45.7599 34.2955V33.3859L45.6431 32.9701L45.4873 32.6193L45.2927 32.3204L45.0331 32.0605L44.7087 31.9176H43.6706L43.45 32.0475L43.2164 32.2034L42.9958 32.4243L42.7492 32.6842L42.4897 32.9831V35.569L42.9439 36.0758L43.3721 36.4526L43.5797 36.5826L43.8003 36.6865H44.8125L44.9553 36.5826L45.2408 36.3487L45.4354 36.0498L45.6171 35.6989L45.7209 35.2961L45.7858 34.8673L45.7599 34.2955ZM53.2216 37.3492V37.4272H52.4689V36.7385L52.0667 37.1153L51.5606 37.4012L51.0545 37.5701L50.5094 37.6481H50.0552L49.6529 37.5441L49.2766 37.3752L48.9652 37.1673L48.5629 36.8684L48.3812 36.5436L48.2904 36.1667V35.2831L48.4591 34.8543L48.7186 34.5035L49.069 34.1916L49.4972 33.9707L50.0163 33.8147L50.6262 33.7108H52.1575V32.6063L52.0537 32.3594L51.9239 32.1775L51.7293 31.9955L51.4697 31.9046L51.1712 31.8266H50.4186L50.0552 31.9046L49.7568 32.0215L49.5102 32.1255L49.2766 32.2294L49.0819 32.3334H48.8224V31.7486L48.9522 31.5407L49.069 31.4498L49.2507 31.3458L49.4972 31.2419L49.7827 31.1249L50.4056 30.969H51.9888L52.2483 31.0469L52.4689 31.1249L52.6766 31.2419L53.001 31.5017L53.2605 31.8266L53.4033 32.2034L53.5071 32.6842V33.217L53.2216 37.3492ZM52.1056 34.5424H50.3537L50.0163 34.6464L49.7697 34.7763L49.5621 34.9453L49.4453 35.1532L49.3674 35.3741V36.0888L49.4713 36.2577L49.5881 36.4136L49.7697 36.5436H50.8468L51.2491 36.3746L51.6514 36.0888L52.0537 35.6859L52.1056 34.5424ZM60.5276 37.3492V37.4532H59.4376V33.269L59.3597 32.9701L59.2689 32.6712L59.1391 32.4243L58.9574 32.2164L58.7368 32.0605L58.4902 31.9695H57.7506L57.5299 32.0605L57.3223 32.1904L56.8941 32.5413L56.4658 33.0481V37.4662H55.3887V31.1899H56.1414V32.0215L56.388 31.7486L56.6605 31.5277L56.92 31.3198L57.1666 31.1639L57.6727 30.969L58.3994 30.891H58.9444L59.4246 31.0469L59.8009 31.2938L60.0864 31.5927L60.307 31.9695L60.4627 32.4243L60.5406 32.9311V33.5419L60.5276 37.3492ZM65.1085 37.5182L64.278 39.7662L64.2001 39.8701H63.123V39.5843L63.9535 37.4662L63.8497 37.3752V37.2972L61.6566 31.4238V31.0729H62.6688L62.7726 31.1509V31.2549L64.5116 36.1797L66.1856 31.2419V31.1249H67.1978V31.4758L65.1085 37.5182Z" fill="#818385"/>
<path fill-rule="evenodd" clip-rule="evenodd" d="M20.1046 18.9978H28.1114L28.5915 18.9198L28.9938 18.7639L29.3442 18.595L29.6297 18.3351L29.8243 18.0622L29.9282 17.7373V17.0356L29.8243 16.7498L29.6686 16.4769L29.474 16.217L29.1885 15.9701L28.7992 15.7232L28.2931 15.4373L27.6831 15.1645L24.7114 13.982L24.0885 13.6961L23.5046 13.4492L22.9725 13.1633L22.4924 12.8904L22.0641 12.6435L21.7137 12.3577L21.4023 12.0848L21.1298 11.8119L20.7015 11.2272L20.3901 10.5514L20.1954 9.81077V8.47234L20.2733 7.97856L20.3641 7.52375L20.5458 7.12093L20.7535 6.7181L21 6.35426L21.2985 6.0294L21.6489 5.73053L22.0641 5.45765L22.4534 5.19776L22.9206 5.00284L23.4527 4.84691L24.0107 4.71697L24.6076 4.639H32.3419V7.53675H24.6855L24.3091 7.61472L23.9977 7.71867L23.7122 7.90059L23.4916 8.09551L23.3359 8.38138L23.245 8.65427V9.23901L23.3359 9.48591L23.4656 9.71981L23.6733 9.94071L23.9198 10.1486L24.2572 10.3955L24.6595 10.6034L25.1397 10.8243L28.2671 12.1238L28.9679 12.4226L29.6037 12.7345L30.1747 13.0074L30.7068 13.3063L31.161 13.5921L31.5633 13.865L31.9136 14.1639L32.1991 14.4498L32.4197 14.7226L32.6533 15.0215L32.822 15.3464L32.9518 15.7102L33.1464 16.4639V17.8803L33.0816 18.4001L32.9258 18.9068L32.7182 19.3876L32.4716 19.8164L32.1732 20.1933L31.7839 20.4792L31.4075 20.791L30.9404 21.0639L30.4083 21.2848L29.7984 21.4927L29.1885 21.6746L28.4488 21.7916L27.6702 21.8955H20.1046V18.9978ZM36.3518 21.9735V11.0452L36.4556 10.2396L36.5724 9.45992L36.78 8.75822L37.0266 8.06952L37.351 7.44579L37.7403 6.86104L38.1685 6.32827L38.6357 5.86047L39.1678 5.43166L39.7258 5.06781L40.3357 4.76894L40.9845 4.54804L41.6593 4.39211L42.399 4.28815H43.9562L44.7089 4.4181L45.4226 4.61301L46.1234 4.92488L46.7722 5.30171L47.3822 5.78251L47.9661 6.30228L48.4592 6.91302L48.9913 6.28929L49.5753 5.75652L50.1722 5.27572L50.834 4.89889L51.5088 4.61301L52.2485 4.4181L53.0012 4.28815H54.5325L55.2332 4.39211L55.921 4.54804L56.5698 4.76894L57.1798 5.06781L57.7378 5.43166L58.2569 5.86047L58.737 6.32827L59.1652 6.86104L59.5416 7.47178L59.879 8.09551L60.1255 8.75822L60.3461 9.48591L60.4759 10.2396L60.5797 11.0452V21.9735H57.5561V10.4735L57.4782 10.0707L57.3874 9.69382L57.2317 9.32997L57.063 9.00511L56.8553 8.68025L56.6088 8.40737L56.3233 8.14748L56.0508 7.92658L55.7263 7.71867L55.3889 7.57573L55.0386 7.44579L54.6882 7.36782H53.079L52.7027 7.44579L52.3523 7.57573L52.0149 7.71867L51.7165 7.92658L51.444 8.14748L51.1585 8.40737L50.9119 8.68025L50.7043 9.00511L50.5356 9.32997L50.3798 9.69382L50.276 10.0707L50.1852 10.4735V21.9735H46.9799V10.4735L46.902 10.0707L46.8112 9.69382L46.6554 9.32997L46.4478 9.00511L46.2532 8.68025L45.9936 8.40737L45.7211 8.14748L45.4226 7.92658L45.1112 7.71867L44.7608 7.57573L44.4104 7.44579L44.0341 7.36782H42.425L42.0486 7.44579L41.6853 7.57573L41.3609 7.71867L41.0624 7.92658L40.7899 8.14748L40.5044 8.40737L40.2578 8.68025L40.0502 9.00511L39.8815 9.32997L39.7258 9.69382L39.6219 10.0707L39.5571 10.4735V21.9735H36.3518ZM77.878 21.9735V12.6695L77.8131 12.0068L77.7093 11.4351L77.5276 10.8503L77.307 10.3176L77.0475 9.81077L76.7231 9.32997L76.3727 8.90116L75.9704 8.49833L75.5422 8.17347L75.088 7.8746L74.6078 7.6407L74.1017 7.44579L73.5567 7.31584L72.9987 7.23788H71.7918L71.2338 7.31584L70.6758 7.44579L70.1697 7.6407L69.6766 7.8746L69.2224 8.14748L68.7941 8.49833L68.3919 8.88816L68.0415 9.31698L67.7041 9.75879L67.4316 10.2656L67.2239 10.7983L67.0552 11.3311L66.9255 11.9289L66.8476 12.5396V13.826L66.9255 14.4498L67.0552 15.0605L67.2239 15.6193L67.4575 16.165L67.73 16.6718L68.0545 17.1526L68.4438 17.6074L68.846 18.0102L69.3002 18.3611L69.7415 18.647L70.2476 18.8938L70.7796 19.0758L71.3376 19.2187L71.9086 19.2967H73.0765L73.6216 19.2187L74.1796 19.1018L74.7116 18.9198L75.2696 18.6989L75.7887 18.439L76.3208 18.1142L76.8528 17.7373V21.0639L76.3208 21.3368L75.7628 21.5967L75.2177 21.7916L74.6338 21.9735L73.4269 22.1684H71.5582L70.9613 22.0905H70.3254L69.7285 21.9085L69.1445 21.7136L68.5606 21.4537L68.0415 21.1809L67.5094 20.791L66.627 20.0763L65.8743 19.3227L65.2125 18.491L64.6545 17.5554L64.2262 16.5808L63.9278 15.5153L63.7331 14.4108V12.2927L63.824 11.3831L64.0316 10.5255L64.2782 9.69382L64.6285 8.90116L65.0438 8.17347L65.5369 7.47178L66.1209 6.80906L66.7568 6.21132L67.4316 5.70454L68.1193 5.19776L68.872 4.84691L69.6896 4.57403L70.5201 4.36612L71.4025 4.26216H73.5437L74.1406 4.36612L74.7246 4.49606L75.2696 4.66499L75.8276 4.8729L76.3597 5.11979L76.8918 5.41866L77.8391 6.13336L78.2933 6.53618L78.7085 6.93901L79.0849 7.39381L79.4352 7.8746L79.7597 8.36839L80.0581 8.90116L80.2917 9.40794L80.4864 9.94071L80.6421 10.4995L80.7719 11.0712V11.7339L80.8497 12.5396V21.8955L77.878 21.9735ZM84.9375 21.9735V4.60002H87.7794V7.19889L88.2336 6.4972L88.7657 5.89946L89.3496 5.39267L89.9985 4.98985L90.7511 4.67798L91.6336 4.48307L92.1137 4.4051H94.5534V7.43279H93.3206L92.5939 7.51076L91.932 7.61472L91.3351 7.78364L90.7771 7.99155L90.297 8.26443L89.8428 8.5633L89.4664 8.92715L89.142 9.32997L88.8695 9.81077L88.6099 10.3305L88.4153 10.9153L88.2596 11.578L88.1558 12.2797L88.0779 13.0334V22.1294L84.9375 21.9735ZM96.474 0H99.5885V4.60002H104.779V7.54974H99.5885V15.9441L99.6923 16.3729L99.7961 16.7758L99.9258 17.1266L100.095 17.4775L100.328 17.7893L100.549 18.0362L100.821 18.2701L101.133 18.439L101.483 18.621L101.859 18.7379L102.288 18.8679L102.742 18.9458H104.779V21.9215H102.924L102.093 21.8436L101.301 21.7136L100.562 21.5707L99.8869 21.3368L99.303 21.0639L98.7839 20.791L98.3037 20.4142L97.8755 19.9854L97.4992 19.4916L97.2007 18.9588L96.9541 18.3741L96.6686 17.7114L96.5389 17.0097L96.448 16.269V15.4893L96.474 0Z" fill="url(#paint0_linear_217_86)"/>
<path fill-rule="evenodd" clip-rule="evenodd" d="M14.1449 22.0195V12.7155L14.08 12.0528L13.9762 11.481L13.7945 10.8963L13.5739 10.3635L13.3144 9.85674L12.9899 9.37594L12.6396 8.94713L12.2373 8.5443L11.809 8.21944L11.3548 7.92057L10.8747 7.68667L10.3686 7.49176L9.82355 7.36181L9.26554 7.28385H8.05869L7.50068 7.36181L6.94268 7.49176L6.43657 7.68667L5.94345 7.92057L5.48925 8.19345L5.06101 8.5443L4.65873 8.93413L4.30835 9.36295L3.97095 9.80476L3.69844 10.3115L3.49081 10.8443L3.3221 11.3771L3.19233 11.9748L3.11447 12.5856V13.872L3.19233 14.4957L3.3221 15.1065L3.49081 15.6652L3.72439 16.211L3.9969 16.7178L4.32133 17.1986L4.71064 17.6534L5.11292 18.0562L5.56712 18.407L6.00833 18.6929L6.51443 18.9398L7.04649 19.1217L7.6045 19.2647L8.17548 19.3426H9.34341L9.88845 19.2647L10.4464 19.1477L10.9785 18.9658L11.5365 18.7449L12.0556 18.485L12.5877 18.1602L13.1197 17.7833V21.1099L12.5877 21.3828L12.0296 21.6427L11.4846 21.8376L10.9006 22.0195L9.69378 22.2144H7.82511L7.22817 22.1364H6.5923L5.99536 21.9545L5.4114 21.7596L4.82743 21.4997L4.30835 21.2268L3.7763 20.837L2.89386 20.1223L2.1412 19.3686L1.47937 18.537L0.921365 17.6014L0.493128 16.6268L0.19466 15.5613L0 14.4567V12.3387L0.0908401 11.4291L0.298467 10.5714L0.545035 9.73979L0.895415 8.94713L1.31067 8.21944L1.8038 7.51775L2.38776 6.85503L3.02363 6.25729L3.69844 5.75051L4.38621 5.24373L5.13888 4.89288L5.95643 4.62L6.78694 4.41209L7.66939 4.30813H9.81058L10.4075 4.41209L10.9915 4.54203L11.5365 4.71096L12.0945 4.91887L12.6266 5.16576L13.1586 5.46463L14.106 6.17933L14.5601 6.58215L14.9754 6.98498L15.3517 7.43978L15.7021 7.92057L16.0265 8.41436L16.325 8.94713L16.5586 9.45391L16.7533 9.98668L16.909 10.5454L17.0387 11.1172V11.7799L17.1166 12.5856V21.9415L14.1449 22.0195Z" fill="url(#paint1_linear_217_86)"/>
<defs>
<linearGradient id="paint0_linear_217_86" x1="0" y1="11.1072" x2="104.776" y2="11.1072" gradientUnits="userSpaceOnUse">
<stop stop-color="#65AB0E"/>
<stop offset="1" stop-color="#B3E042"/>
</linearGradient>
<linearGradient id="paint1_linear_217_86" x1="0" y1="11.1072" x2="104.776" y2="11.1072" gradientUnits="userSpaceOnUse">
<stop stop-color="#65AB0E"/>
<stop offset="1" stop-color="#B3E042"/>
</linearGradient>
</defs>
</svg>
