<svg width="79" height="43" viewBox="0 0 79 43" fill="none" xmlns="http://www.w3.org/2000/svg">
<path d="M14.8834 0.54024C14.5782 0.64688 13.9831 1.21055 13.7695 1.57618C13.6627 1.75899 13.5559 2.8711 13.5101 4.24219L13.4338 6.60352L10.4584 6.69493C8.82576 6.74063 7.46775 6.78633 7.43724 6.80157C7.40672 6.8168 7.29991 7.04532 7.1931 7.31954C6.90319 7.98985 7.08629 8.53829 7.72715 8.85821C8.20016 9.10196 8.84102 9.11719 15.921 9.08672L23.6113 9.04102L23.9775 8.61446C24.42 8.09649 24.4505 7.60899 24.0232 7.07579L23.7181 6.67969H19.8272H15.9515V4.7754V2.8711H36.169H56.3866L56.356 18.7453L56.3103 34.6348L47.4146 34.6805C40.3804 34.7109 38.5188 34.6805 38.4578 34.5281C37.7559 32.4867 37.1151 31.5117 35.8639 30.5672C33.8802 29.059 31.0422 28.8305 28.7534 30.0035C27.3649 30.7043 26.0984 32.243 25.5338 33.8731L25.2744 34.6348L20.6206 34.6805L15.9515 34.7109V31.207V27.7031H18.0114C19.8729 27.7031 20.1018 27.6727 20.3765 27.3984C20.8342 26.9414 20.8342 26.134 20.3612 25.6465C20.0713 25.3418 19.8577 25.3418 11.8164 25.3418H3.56157L3.19537 25.7684C2.75287 26.2863 2.72235 26.7738 3.14959 27.307L3.45476 27.7031H8.49007H13.5101V32.0297C13.5101 36.0516 13.5254 36.3715 13.8 36.7066L14.0899 37.0723L19.7051 37.1484L25.305 37.2246L25.4881 37.834C26.19 40.2106 28.2804 42.0387 30.8285 42.4957C33.8955 43.0594 37.3287 40.9723 38.1984 38.032L38.4578 37.1484H49.5355H60.5979L60.7963 37.9102C61.2235 39.5555 62.6426 41.1703 64.3668 41.9473C67.9678 43.6078 72.1486 41.8102 73.4608 38.0625L73.7508 37.2246L75.1851 37.1484C76.7719 37.057 77.245 36.859 77.7637 36.0363C78.0537 35.5793 78.0689 35.3203 78.0231 31.0547C77.9774 26.6367 77.9774 26.5453 77.5959 25.6465C77.3823 25.1438 75.6733 21.9902 73.8118 18.6387C70.2413 12.225 69.7835 11.5699 68.6544 11.2652C68.2882 11.1586 66.2741 11.0977 63.4513 11.0977H58.8432L58.7974 6.48165C58.7516 1.9418 58.7516 1.88086 58.4007 1.37813C57.6683 0.357427 59.3009 0.433599 36.1385 0.448834C24.5726 0.448834 15.0055 0.494537 14.8834 0.54024ZM68.2272 13.8246C68.7307 14.4035 75.1698 26.134 75.3834 26.85C75.5513 27.4289 75.6123 28.4801 75.6123 31.1613V34.7262L74.6815 34.6805L73.766 34.6348L73.5066 33.8731C72.347 30.4606 68.8985 28.5715 65.4654 29.4551C63.2529 30.034 61.3761 31.8469 60.7352 34.0254C60.5521 34.6348 60.5521 34.6348 59.6824 34.6805L58.8279 34.7262V24.1231V13.5352H63.4055C67.6931 13.5352 67.9983 13.5504 68.2272 13.8246ZM33.1784 31.9078C34.1244 32.182 35.1925 33.0961 35.6655 34.0102C36.108 34.8633 36.1995 36.2953 35.8791 37.2551C35.5434 38.2606 34.7195 39.1898 33.7429 39.6926C32.7969 40.1801 31.1947 40.241 30.2487 39.8297C29.3637 39.4488 28.3872 38.4586 28.0057 37.575C27.5937 36.6 27.6243 34.9699 28.082 34.0254C28.7229 32.7305 30.325 31.6945 31.7593 31.6793C32.095 31.6641 32.7359 31.7707 33.1784 31.9078ZM68.6391 31.9688C71.5383 33.0504 72.2859 36.9504 69.9972 39.007C69.1122 39.7992 68.395 40.0887 67.2201 40.0887C64.855 40.1039 63.1308 38.5043 62.9782 36.1734C62.9019 34.8176 63.2681 33.8426 64.2294 32.8981C65.4196 31.725 67.0675 31.3746 68.6391 31.9688Z" fill="#599478"/>
<path d="M14.1967 11.7375C13.5405 12.1184 13.5253 12.2402 13.51 16.0793V19.7813H11.679C9.92427 19.7813 9.81746 19.7965 9.46652 20.1621C8.96298 20.6496 8.96298 21.3504 9.46652 21.8379L9.83272 22.2188H21.0325C32.1407 22.2188 32.2475 22.2188 32.6442 21.8988C33.2088 21.457 33.2088 20.543 32.6442 20.1012C32.2475 19.7813 32.0949 19.7813 24.0994 19.7813H15.9514V16.1098V12.4383L15.5089 11.9965C15.0359 11.5242 14.6849 11.4633 14.1967 11.7375Z" fill="#599478"/>
<path d="M0.418384 13.6266C-0.100406 13.9922 -0.0546303 15.0738 0.494676 15.5156C0.891398 15.8203 1.01347 15.8356 5.54525 15.7899L10.1838 15.7442L10.4737 15.3785C10.8705 14.891 10.8552 14.1293 10.4127 13.718C10.0618 13.3828 9.97022 13.3828 5.40792 13.3828C1.45596 13.3828 0.708296 13.4133 0.418384 13.6266Z" fill="#599478"/>
</svg>
