<svg width="49" height="59" viewBox="0 0 49 59" fill="none" xmlns="http://www.w3.org/2000/svg">
<path d="M25.5782 0.241993C25.4397 0.368748 25.2782 0.610741 25.2089 0.772068C25.0589 1.16387 25.0704 5.07031 25.232 5.5082C25.4397 6.10742 25.8206 6.26875 27.1595 6.31484L28.3367 6.36094V8.36602V10.3711H27.3095C26.4439 10.3711 26.2361 10.4057 25.9014 10.6361C25.2666 11.051 25.105 11.5234 25.105 12.8717V14.0355L24.5049 14.1162C22.4504 14.3697 20.7423 15.5336 19.8651 17.2506C19.2072 18.5643 19.2188 18.3223 19.2188 29.0506C19.2188 38.857 19.2188 38.9146 19.4611 39.2258C19.7728 39.6176 20.4537 39.6521 20.7884 39.2834C20.9962 39.0529 21.0077 38.6727 21.0654 28.993L21.1231 18.9561L21.4348 18.2877C21.8503 17.4234 22.7274 16.5707 23.57 16.225L24.2394 15.96L31.9493 15.9254C36.9468 15.9023 39.8899 15.9369 40.3054 16.0176C41.6674 16.2596 42.7523 17.0893 43.3178 18.2992L43.6295 18.9561L43.6641 37.0479C43.6872 49.885 43.6641 55.2664 43.5717 55.5775C43.5025 55.808 43.2832 56.1998 43.0755 56.4303C42.406 57.1908 42.3252 57.2023 38.0664 57.2484L34.223 57.283L33.9921 57.5826C33.692 57.9629 33.7036 58.3086 34.0037 58.7004L34.2345 59H38.2626C42.0598 59 42.3368 58.9885 42.937 58.758C43.8257 58.4238 44.7144 57.5826 45.1414 56.6723L45.4761 55.9463L45.5107 37.6471C45.5454 17.5387 45.58 18.6219 44.8413 17.1699C44.4489 16.3979 43.4909 15.3723 42.7292 14.9344C42.0598 14.5426 41.1249 14.2199 40.317 14.1277L39.6476 14.0471V12.8717C39.6476 11.5234 39.486 11.051 38.8512 10.6361C38.5165 10.4057 38.3087 10.3711 37.3854 10.3711H36.3005V8.35449V6.33789H41.3557C44.4374 6.33789 46.561 6.2918 46.8265 6.22266C47.7268 5.96914 48.1076 4.98965 47.6229 4.19453C47.2651 3.60683 43.1562 1.3252 41.4134 0.737499C39.3244 0.0345688 38.8396 0 32.0531 0C25.9014 0 25.8437 0 25.5782 0.241993ZM39.1859 2.05117C40.6979 2.4084 42.0021 2.92695 43.4563 3.74512L44.7836 4.49414H35.8734H26.9517V3.0998V1.70547L32.584 1.76308C37.697 1.80918 38.2972 1.84375 39.1859 2.05117ZM34.5692 8.35449V10.3711H32.3763H30.1834V8.35449V6.33789H32.3763H34.5692V8.35449ZM37.8009 13.1367V14.0586H32.3763H26.9517V13.1367V12.2148H32.3763H37.8009V13.1367Z" fill="#599478" stroke="#599478" stroke-width="0.5"/>
<path d="M5.99213 8.22772C5.43813 8.46972 5.04571 8.97675 4.90721 9.58749C4.8495 9.91014 4.79179 11.581 4.79179 13.3672V16.5937H4.49171C4.05312 16.5937 3.46449 16.9971 3.2452 17.4465C3.12979 17.6885 3.06054 18.1379 3.06054 18.6449V19.4515L2.46037 19.659C1.60628 19.9355 0.71757 20.8459 0.475195 21.664C0.371319 22.0098 0.290527 22.39 0.290527 22.5283C0.290527 23.139 1.0292 23.5539 1.62936 23.2543C1.83712 23.1506 2.02178 22.8971 2.18337 22.4707C2.35649 22.0443 2.56424 21.7562 2.8297 21.5719L3.21058 21.3183H9.0853C15.7102 21.3183 15.4332 21.2838 15.8718 22.1826C16.0796 22.6205 16.1027 22.9086 16.1027 25.6742V28.6933H9.11993H2.1372V27.1377C2.1372 26.2389 2.07949 25.4783 2.01024 25.3055C1.84866 24.9482 1.35236 24.7408 0.936862 24.8445C0.244361 25.0174 0.290527 24.0033 0.313611 41.0349L0.348236 56.6377L0.613695 57.1562C1.24849 58.3777 2.07949 58.8963 3.47604 58.9769C4.37629 59.023 4.41091 59.023 4.65329 58.7119C4.96492 58.3201 4.97646 57.9629 4.67637 57.5941C4.50325 57.3637 4.30704 57.283 3.76458 57.2254C3.34908 57.1793 2.9682 57.0525 2.78353 56.9142C2.11412 56.3842 2.1372 56.6838 2.1372 48.2832V40.5625H9.11993C16.0219 40.5625 16.1027 40.5625 16.1027 40.793C16.1027 41.0119 16.0219 41.0234 13.4134 41.0234C10.4241 41.0234 9.87014 41.1041 8.68134 41.7494C7.22709 42.5215 5.94596 44.2385 5.61125 45.8402C5.53046 46.2205 5.48429 48.2601 5.48429 51.3369C5.48429 55.9463 5.49583 56.2574 5.71513 56.8451C6.01521 57.6402 6.58075 58.297 7.2848 58.6543L7.85034 58.9424L19.1612 58.9769C27.275 59 30.6106 58.9769 30.9453 58.8732C31.6955 58.6773 32.4919 57.9974 32.8958 57.2138L33.2421 56.534L33.2767 51.6365C33.2998 48.4099 33.2652 46.474 33.1844 45.9785C32.8958 44.3306 31.6032 42.533 30.1027 41.7494C28.787 41.0465 28.5792 41.0234 23.0046 41.0234H17.9609L17.9262 31.5396C17.8916 22.4707 17.8801 22.0443 17.6723 21.5488C17.5454 21.2607 17.3376 20.8805 17.2107 20.7076C16.9106 20.2928 16.068 19.7396 15.5025 19.5668L15.0639 19.44V18.4721C15.0639 17.5502 15.0524 17.4926 14.683 17.1008C14.406 16.8012 14.1867 16.6744 13.8289 16.6283L13.3442 16.5592L13.3096 12.9178C13.2749 9.28788 13.2749 9.27636 12.9979 8.88456C12.467 8.14706 12.1092 8.06639 9.06222 8.07792C7.04242 8.07792 6.25759 8.11249 5.99213 8.22772ZM11.486 13.2519V16.5937H9.06222H6.63846V13.3326C6.63846 11.535 6.67309 10.0254 6.71925 9.99081C6.75388 9.94471 7.85034 9.91014 9.14301 9.91014H11.486V13.2519ZM13.2172 18.956V19.4746H9.06222H4.90721V18.956V18.4375H9.06222H13.2172V18.956ZM16.1027 34.6279V38.7187H9.11993H2.1372V34.6279V30.5371H9.11993H16.1027V34.6279ZM28.937 43.2474C30.2989 43.9158 31.2569 45.2756 31.4069 46.7621L31.4877 47.4765H19.4036H7.33096V47.0963C7.33096 45.8978 8.09272 44.4459 9.09684 43.7084C10.2972 42.8326 9.80089 42.8672 19.5652 42.9017L28.2791 42.9248L28.937 43.2474ZM31.4531 52.6275C31.4531 56.3496 31.4185 56.534 30.6452 56.9834C30.2412 57.2138 30.0912 57.2138 19.392 57.2138C8.69288 57.2138 8.54284 57.2138 8.13888 56.9834C7.36559 56.534 7.33096 56.3496 7.33096 52.6275V49.3203H19.392H31.4531V52.6275Z" fill="#599478" stroke="#599478" stroke-width="0.5"/>
<path d="M8.45067 11.6041C8.16213 11.9383 8.10442 12.3877 8.30063 12.768C8.49684 13.1482 8.69304 13.252 9.16625 13.252C9.88184 13.252 10.2743 12.1572 9.75488 11.6387C9.4548 11.3391 8.71613 11.3275 8.45067 11.6041Z" fill="#599478"/>
<path d="M30.8759 26.9188C29.2947 27.2529 27.6558 28.3707 26.767 29.6959C26.5247 30.0531 26.1784 30.8022 25.9822 31.3438C25.6475 32.3117 25.636 32.3578 25.5898 35.2848C25.5321 38.4768 25.5783 38.9607 25.9245 39.3065C26.213 39.5945 26.8363 39.5945 27.1595 39.2949C27.4018 39.0645 27.4134 38.9838 27.4134 36.3219C27.4134 34.8238 27.4711 33.2682 27.5288 32.8649C27.9097 30.1568 30.5412 28.2094 33.1381 28.6818C35.3079 29.0852 36.9007 30.733 37.2238 32.8994C37.3739 33.9596 37.3739 39.3756 37.2123 40.332C36.993 41.7033 36.439 42.6022 35.1694 43.6623C34.5577 44.1693 34.4538 44.3191 34.4538 44.6303C34.4538 45.5061 35.1694 45.8402 36.0004 45.3563C36.7622 44.9068 37.8124 43.7891 38.2857 42.9018C39.0936 41.4037 39.1282 41.1272 39.1282 36.4717V32.3232L38.805 31.4014C38.6319 30.8943 38.251 30.1223 37.9509 29.6959C36.4044 27.4027 33.6344 26.3195 30.8759 26.9188Z" fill="#599478" stroke="#599478" stroke-width="0.5"/>
</svg>
