<svg width="63" height="63" viewBox="0 0 63 63" fill="none" xmlns="http://www.w3.org/2000/svg">
<g clip-path="url(#clip0_26_924)">
<path d="M50.9041 0.849023C48.6249 1.79648 47.4674 4.4543 48.3146 6.80449C48.6607 7.73965 49.6511 8.85938 50.558 9.31465C51.1666 9.62227 51.3575 9.65918 52.4912 9.65918C53.6129 9.65918 53.8157 9.62227 54.4124 9.31465C55.2119 8.9209 56.2142 7.8627 56.5842 7.05059C56.966 6.20156 56.966 4.13437 56.5842 3.28535C56.2142 2.47324 55.2119 1.41504 54.4124 1.02129C53.5174 0.566015 51.7871 0.479882 50.9041 0.849023ZM53.6606 2.69473C54.6152 3.19922 55.1164 4.06055 55.1164 5.16797C55.1164 6.76758 54.0424 7.875 52.4912 7.875C50.9637 7.875 49.842 6.73066 49.842 5.16797C49.842 4.09746 50.391 3.18691 51.3575 2.67012C51.8706 2.38711 53.0997 2.39941 53.6606 2.69473Z" fill="#599478"/>
<path d="M37.8732 1.95645C37.5152 2.11641 37.2527 2.46094 36.4532 3.83906L35.7134 5.09414L34.2217 5.47559C32.5153 5.90625 32.1454 6.10313 32.0261 6.63223C31.9068 7.19824 32.0141 7.40742 33.112 8.77324L34.1263 10.0283L34.0427 11.9479L33.9592 13.8551L34.3411 14.1873C34.5559 14.3719 34.8423 14.5195 34.9735 14.5195C35.1048 14.5195 35.9043 14.2365 36.7515 13.892L38.2789 13.2521L39.7706 13.892C40.582 14.2365 41.3457 14.5195 41.4531 14.5195C41.7992 14.5195 42.3003 14.175 42.4555 13.8305C42.5629 13.5721 42.5748 13.1414 42.4555 11.8002L42.3123 10.0898L42.8493 9.45C44.2932 7.69043 44.496 7.38281 44.496 6.95215C44.496 6.18926 44.15 5.95547 42.36 5.47559C41.4889 5.2541 40.761 5.04492 40.7371 5.02031C40.7252 4.9957 40.3553 4.35586 39.9138 3.59297C38.9711 1.98106 38.5773 1.66113 37.8732 1.95645ZM38.7801 5.2541C39.4961 6.53379 39.7109 6.71836 40.9758 7.02598C41.5963 7.18594 42.1094 7.3459 42.1094 7.39512C42.1094 7.43203 41.8111 7.85039 41.4412 8.31797C41.0713 8.77324 40.7133 9.30234 40.6536 9.47461C40.582 9.65918 40.5701 10.2867 40.6178 11.025L40.6894 12.2801L39.699 11.8617C38.3147 11.2834 38.088 11.2957 36.2503 12.1078L35.8208 12.2924L35.8804 11.0742C35.9043 10.4098 35.9043 9.7207 35.8566 9.54844C35.8208 9.37617 35.4508 8.82246 35.057 8.30566C34.6513 7.78887 34.3411 7.3582 34.3649 7.33359C34.3888 7.30898 34.8065 7.19824 35.2957 7.0875C36.7635 6.74297 36.8828 6.66914 37.563 5.48789C37.909 4.90957 38.2312 4.4543 38.2909 4.49121C38.3505 4.52813 38.5653 4.87266 38.7801 5.2541Z" fill="#599478"/>
<path d="M59.7465 9.35157C55.5342 10.8158 52.2049 14.3965 50.749 18.9738C50.4627 19.909 50.4388 20.0443 50.5939 20.3643C50.7013 20.5981 50.9042 20.7703 51.1428 20.8318C51.7395 21.0164 52.0617 20.7211 52.3719 19.7244C52.6941 18.7277 53.5175 16.9682 54.0545 16.1438C55.8086 13.449 57.8969 11.8371 60.8443 10.9266C62.0018 10.5697 62.324 10.016 61.787 9.30235C61.4648 8.88399 61.071 8.88399 59.7465 9.35157Z" fill="#599478"/>
<path d="M21.9668 14.1012C20.6542 14.458 20.2246 14.9133 20.4991 15.6147C20.7377 16.2053 21.1673 16.3037 22.0742 15.9961C24.1148 15.2824 26.2866 16.2422 27.2054 18.2602C28.0407 20.1059 27.6827 22.4684 26.1553 25.1262C25.4154 26.3936 24.9978 26.898 24.4369 27.1934C24.1863 27.3287 23.9596 27.4395 23.9358 27.4395C23.9119 27.4395 23.6374 27.0088 23.3391 26.4797C23.0527 25.9506 22.7186 25.4461 22.6112 25.36C22.5038 25.2738 22.4203 25.0647 22.4203 24.917C22.4203 24.474 22.8857 23.0221 23.3272 22.0992C23.7806 21.1395 23.8403 20.5611 23.5181 20.2658C23.2675 20.032 22.7544 19.9951 22.4083 20.192C22.0981 20.352 21.3582 21.927 20.9883 23.2066L20.69 24.2156L19.9502 24.2771C19.5444 24.3264 18.9955 24.4617 18.733 24.5971L18.2676 24.8432L18.196 24.4494C18.1005 23.908 18.3153 21.5701 18.554 20.5734C18.6614 20.1182 18.9001 19.3922 19.091 18.9615C19.5325 17.9648 19.5325 17.5711 19.1268 17.2389C18.4943 16.7221 17.9932 17.042 17.4323 18.2971C16.6805 19.9951 16.239 22.7268 16.3941 24.8555L16.4777 25.9014L15.9407 26.1967L15.3918 26.4797L14.3894 25.7906C11.4778 23.7973 8.25587 22.899 5.91701 23.4281C4.60438 23.7357 3.64975 24.2771 2.73091 25.2123C-0.27619 28.3377 0.630714 33.2473 4.58052 35.2652C5.63062 35.7943 7.2177 36.2988 7.86208 36.2988C8.04107 36.2988 8.22007 36.3357 8.25587 36.3727C8.3036 36.4219 7.1461 37.1479 5.69028 37.9723C4.23446 38.809 2.86217 39.6703 2.64738 39.8918C2.15813 40.3717 1.84787 41.3068 1.9314 42.0328C1.97914 42.5373 3.32756 45.2812 4.15093 46.5732C4.72371 47.4592 5.76188 47.9637 6.74038 47.8037C7.06257 47.7545 8.31553 47.1146 10.3203 45.9703L13.4109 44.1984L13.4706 52.098C13.5302 59.3086 13.5541 60.0223 13.745 60.4529C14.0672 61.1666 14.7235 61.8311 15.4156 62.151L16.0361 62.4463H31.6683C47.2766 62.4463 47.3005 62.4463 47.8375 62.1879C48.6131 61.8188 49.0904 61.3512 49.4365 60.6375L49.7467 59.9977V49.4402C49.7467 39.1535 49.7348 38.8582 49.5081 38.3906C49.2813 37.9477 48.8995 37.5785 48.3744 37.3324C48.2432 37.2709 43.291 37.1971 36.9546 37.1602L25.7615 37.0986L31.8712 33.5918C35.2243 31.66 38.124 29.925 38.315 29.7281C38.8758 29.1621 39.0548 28.6822 39.0667 27.8086C39.0667 27.0211 39.0429 26.9596 37.945 24.9539C37.3365 23.8219 36.6921 22.7514 36.5131 22.5668C36.0119 22.0377 35.3795 21.7793 34.6515 21.7793C33.8878 21.7793 33.9117 21.767 30.7375 23.5881C29.4965 24.3018 28.4703 24.8555 28.4464 24.8309C28.4106 24.8063 28.5299 24.4494 28.6851 24.0434C29.9619 20.7949 29.58 17.7188 27.6588 15.7377C26.1792 14.2119 23.9119 13.5598 21.9668 14.1012ZM35.3437 24.0188C35.7852 24.634 37.3365 27.6117 37.3365 27.8455C37.3365 27.9563 37.2171 28.1777 37.0739 28.35C36.8233 28.6207 27.6708 33.9609 27.456 33.9609C27.3724 33.9486 24.7711 29.1498 24.8307 29.1006C24.8546 29.076 26.9906 27.8455 29.58 26.3566C32.9213 24.4248 34.401 23.6373 34.6754 23.625C34.9737 23.625 35.1169 23.7111 35.3437 24.0188ZM10.0219 25.5938C11.1078 25.9629 12.7904 26.8242 13.3393 27.2918L13.6138 27.5133L13.0171 27.907C12.683 28.1285 12.2653 28.5469 12.0863 28.8299L11.7642 29.3713L10.6186 29.076C9.98614 28.9283 9.05537 28.7561 8.54226 28.7191C7.68308 28.6453 7.59955 28.6576 7.3251 28.916C6.96711 29.2729 6.93131 29.802 7.26543 30.1465C7.51602 30.4049 7.50409 30.4049 9.1747 30.6879C10.8453 30.9709 11.5613 31.217 11.5613 31.5C11.5613 31.6354 11.8 32.2137 12.1102 32.792C12.7188 33.9979 12.7069 34.0594 11.8477 34.4039C11.084 34.6992 8.06494 34.5885 6.78811 34.207C4.99817 33.6779 3.74521 32.6813 3.11277 31.2785C2.83831 30.6879 2.79058 30.4049 2.79058 29.5312C2.79058 28.6576 2.83831 28.3746 3.11277 27.784C4.19866 25.3723 6.90744 24.5232 10.0219 25.5938ZM21.048 26.3813C21.406 26.6273 22.3606 28.2885 22.2293 28.4238C22.0862 28.5715 14.4133 32.9766 14.3059 32.9766C14.1985 32.9766 13.4825 31.5984 13.3512 31.1309C13.208 30.6387 13.399 30.0111 13.7928 29.6297C14.0672 29.3713 16.7163 27.8086 19.3177 26.3689C19.9144 26.0367 20.5349 26.0367 21.048 26.3813ZM24.3415 32.0783C24.9501 33.2227 25.5467 34.3178 25.666 34.527L25.8808 34.9084L21.8714 37.2217C19.6638 38.4891 17.8142 39.4734 17.7664 39.4119C17.6352 39.2889 15.1292 34.6623 15.177 34.6377C15.2128 34.6008 23.1959 30.0234 23.2078 30.0234C23.2198 30.0234 23.721 30.9463 24.3415 32.0783ZM14.9502 38.083C15.6424 39.3627 16.1674 40.4455 16.1197 40.4947C15.9646 40.6547 6.83585 45.8596 6.58525 45.9457C6.02441 46.1303 5.77381 45.8473 4.71178 43.8785C4.15093 42.8326 3.68555 41.8729 3.68555 41.7375C3.68555 41.6021 3.78101 41.3807 3.88841 41.2453C4.16287 40.9131 13.5064 35.5482 13.6018 35.659C13.6496 35.7082 14.2581 36.791 14.9502 38.083ZM26.4775 43.2387C26.4775 47.3238 26.4894 47.4715 26.7281 47.7914C27.0622 48.2344 27.6827 48.2344 28.0168 47.7914C28.2555 47.4715 28.2674 47.3238 28.2674 43.2264V39.0059L31.6444 39.0305L35.0095 39.0674V49.834V60.6006L31.6444 60.6375L28.2674 60.6621V56.0109C28.2674 51.4705 28.2555 51.3352 28.0168 51.0152C27.6946 50.5969 27.1696 50.5846 26.7758 51.0029L26.4775 51.2982V55.9863V60.6744L21.3702 60.6375C16.6567 60.6006 16.239 60.5883 15.9288 60.3791C15.2486 59.9115 15.2605 60.0346 15.2605 51.2244V43.1279L18.8165 41.073L22.3606 39.0305L24.425 39.0182L26.4775 39.0059V43.2387ZM47.7659 39.0797C47.9329 39.1535 47.9568 40.1748 47.9568 49.4033V59.6531L47.6465 60.0346C47.4795 60.2438 47.1453 60.4652 46.9067 60.5391C46.6442 60.6129 44.5678 60.6621 41.6681 60.6621H36.8591V49.834V39.0059H42.217C45.1645 39.0059 47.6585 39.0428 47.7659 39.0797Z" fill="#599478"/>
<path d="M44.6869 15.7623L44.3767 16.0084L44.4483 18.9246C44.6153 25.077 43.8039 29.2975 42.002 31.7461C41.3696 32.6074 41.298 32.9027 41.5963 33.3211C42.0856 33.9979 42.7299 33.8379 43.4101 32.8904C45.4626 30.0481 46.4053 25.4461 46.2502 19.1092C46.2024 17.0051 46.1428 16.3037 45.9996 16.0207C45.7132 15.4424 45.212 15.344 44.6869 15.7623Z" fill="#599478"/>
<path d="M54.9617 23.5389C54.7469 23.7604 54.2695 24.474 53.8996 25.1262L53.2194 26.3074L51.6682 26.7012C49.926 27.1441 49.5083 27.4025 49.5083 28.0547C49.5083 28.5715 49.6396 28.793 50.7255 30.1342L51.6682 31.2908L51.5727 32.5951C51.4056 34.81 51.4295 35.0438 51.8114 35.3883C52.2887 35.819 52.6825 35.7574 54.3173 35.0684L55.7731 34.4531L57.1931 35.0684C58.6728 35.7205 59.1859 35.8066 59.6274 35.499C60.0212 35.2037 60.0809 34.7484 59.9616 32.9397L59.8542 31.2908L60.8923 30.0111C61.9782 28.6576 62.1333 28.3377 61.9663 27.8209C61.7873 27.3164 61.2384 27.0334 59.699 26.652L58.279 26.2951L57.5034 24.9539C57.0738 24.2033 56.5965 23.4896 56.4413 23.3666C55.9879 22.9975 55.4032 23.059 54.9617 23.5389ZM56.3578 26.5658C56.6561 27.0949 57.0141 27.624 57.1334 27.7348C57.2647 27.8578 57.8614 28.0793 58.458 28.2393C59.0547 28.3992 59.5797 28.5469 59.6036 28.5838C59.6274 28.6084 59.3291 29.0391 58.9353 29.5436C58.5415 30.0481 58.1835 30.5895 58.1358 30.7371C58.1 30.8971 58.1 31.5738 58.1239 32.2506C58.1597 32.915 58.1716 33.4688 58.1597 33.4688C58.1477 33.4688 57.742 33.2965 57.2528 33.0873C56.0714 32.5705 55.4509 32.5705 54.2934 33.075C53.8161 33.2965 53.3984 33.4688 53.3746 33.4688C53.3388 33.4688 53.3507 32.9027 53.3984 32.2014C53.4939 30.7248 53.4462 30.6018 52.4319 29.3713L51.7875 28.5715L52.8137 28.3131C54.2815 27.9316 54.4247 27.8209 55.1168 26.6397C55.4509 26.0613 55.7492 25.5938 55.7731 25.5938C55.797 25.5938 56.0595 26.0244 56.3578 26.5658Z" fill="#599478"/>
</g>
<defs>
<clipPath id="clip0_26_924">
<rect width="61.0967" height="63" fill="white" transform="translate(0.940918)"/>
</clipPath>
</defs>
</svg>
