<svg width="63" height="62" viewBox="0 0 63 62" fill="none" xmlns="http://www.w3.org/2000/svg">
<path d="M5.17222 11.136C3.74105 11.5961 2.44329 12.7223 1.80048 14.0785L1.41236 14.902L1.37598 27.9438C1.35172 40.8281 1.35172 40.9977 1.59429 41.7364C2.34626 43.9403 4.29896 45.3571 6.61552 45.3571H7.51303L7.56155 46.5559C7.59793 47.6336 7.64645 47.8274 8.04669 48.6508C8.6046 49.7649 9.52637 50.6731 10.6543 51.2059L11.4791 51.5934H34.2929H57.0946L58.0042 51.1453C59.1322 50.5883 60.0418 49.668 60.5755 48.5418L60.9636 47.7184V34.4586V21.1989L60.5755 20.3754C60.0418 19.2492 59.1322 18.3289 58.0164 17.784C57.2159 17.3844 56.9854 17.3239 55.9909 17.2875L54.8629 17.2391L54.8144 16.0645C54.778 15.0473 54.7174 14.793 54.3535 14.0543C53.8199 12.9524 52.8617 11.9836 51.7459 11.4387L50.8969 11.027L28.2771 11.0028C10.242 10.9907 5.56033 11.0149 5.17222 11.136ZM50.9212 12.8313C52.3159 13.4731 53.165 14.7324 53.3226 16.3793L53.4075 17.2633L32.4494 17.2875L11.4791 17.3239L10.6543 17.7114C9.52637 18.2442 8.6046 19.1524 8.04669 20.2785L7.59793 21.1867L7.56155 32.5574L7.53729 43.9281L6.71255 43.8434C4.9539 43.6617 3.72892 42.8141 3.14675 41.3973L2.86779 40.6949V28.1617V15.6285L3.21952 14.8778C3.80169 13.6063 4.88113 12.7707 6.20315 12.5406C6.50636 12.4922 16.5246 12.4559 28.4591 12.468L50.1692 12.4801L50.9212 12.8313ZM57.0582 19.0555C58.453 19.6246 59.3141 20.8477 59.5082 22.5551L59.5931 23.318H34.2808H8.96846L9.05336 22.5672C9.16252 21.5985 9.38083 20.993 9.82959 20.3875C10.4481 19.5399 11.3214 19.0192 12.3887 18.8375C12.6919 18.7891 22.7101 18.7528 34.6446 18.7649L56.3548 18.777L57.0582 19.0555ZM59.5688 26.7692V28.7672H34.2808H8.99272V26.7692V24.7711H34.2808H59.5688V26.7692ZM59.5446 38.6L59.5082 46.9918L59.1565 47.7547C58.7077 48.7114 57.7738 49.6074 56.8763 49.9223C56.2577 50.1281 55.2632 50.1403 34.2201 50.1403H12.2068L11.5276 49.8254C10.5694 49.3774 9.91449 48.7356 9.4536 47.8031L9.05336 46.9918L9.01697 38.6121L8.98059 30.2203H34.2808H59.581L59.5446 38.6Z" fill="#599478" stroke="#357959" stroke-width="0.3"/>
<path d="M4.57802 14.8293C4.42035 14.9989 4.38396 15.2289 4.40822 15.7617C4.44461 16.4157 4.46886 16.4762 4.78421 16.5852C4.99039 16.6578 5.23296 16.6578 5.45128 16.5852C5.75449 16.4762 5.77875 16.4157 5.81513 15.7617C5.86365 14.9504 5.64533 14.5992 5.11168 14.5992C4.92975 14.5992 4.68718 14.6961 4.57802 14.8293Z" fill="#599478" stroke="#357959" stroke-width="0.3"/>
<path d="M4.63848 17.8325C4.38378 18.0504 4.38378 18.0747 4.40804 23.1364L4.44443 28.2223L4.78403 28.3313C4.99021 28.4039 5.23279 28.4039 5.4511 28.3313L5.77857 28.2223L5.81496 23.1364C5.83922 18.0747 5.83922 18.0504 5.58451 17.8325C5.43897 17.7235 5.23279 17.6266 5.1115 17.6266C4.99021 17.6266 4.78403 17.7235 4.63848 17.8325Z" fill="#599478" stroke="#357959" stroke-width="0.3"/>
<path d="M42.5888 38.2973C42.2371 38.4305 41.7883 38.7574 41.3153 39.2297C40.4663 40.0774 40.1631 40.816 40.1631 41.9664C40.1631 43.1168 40.4663 43.8555 41.3153 44.7032C42.4796 45.8778 42.3584 45.8536 48.3014 45.8172C53.2741 45.7809 53.3226 45.7809 53.8926 45.5024C54.6204 45.1391 55.3481 44.4125 55.7119 43.686C56.1122 42.8625 56.1122 41.0703 55.7119 40.2469C55.3481 39.5203 54.6204 38.7938 53.8926 38.4305C53.3226 38.152 53.2862 38.152 48.2286 38.1277C43.8259 38.1156 43.0618 38.1277 42.5888 38.2973ZM53.2862 39.9441C54.0624 40.3922 54.4748 41.1067 54.4748 41.9664C54.4748 42.8262 54.0624 43.5407 53.2862 43.9887L52.7162 44.3278H48.0952H43.4742L42.892 43.9645C41.0485 42.8262 41.5336 40.0895 43.6561 39.6535C43.8987 39.6051 46.0454 39.5688 48.4105 39.5809L52.7162 39.6051L53.2862 39.9441Z" fill="#599478" stroke="#357959" stroke-width="0.3"/>
<path d="M12.6553 39.6899C12.5704 39.7746 12.5098 40.0289 12.5098 40.2711C12.5098 40.5133 12.5704 40.7676 12.6553 40.8524C12.7645 40.9614 14.2441 40.9977 18.574 40.9977C24.0198 40.9977 24.3715 40.9856 24.5534 40.7797C24.8202 40.4891 24.8081 39.9926 24.5413 39.7504C24.3351 39.5688 23.7408 39.5446 18.5619 39.5446C14.2441 39.5446 12.7645 39.5809 12.6553 39.6899Z" fill="#599478" stroke="#357959" stroke-width="0.3"/>
<path d="M26.6521 39.7383C26.5429 39.8352 26.458 40.0774 26.458 40.2711C26.458 40.8403 26.7248 40.9977 27.7315 40.9977C28.7382 40.9977 29.005 40.8403 29.005 40.2711C29.005 39.702 28.7382 39.5446 27.7315 39.5446C27.0766 39.5446 26.7855 39.593 26.6521 39.7383Z" fill="#599478" stroke="#357959" stroke-width="0.3"/>
<path d="M12.6553 43.2016C12.5704 43.2864 12.5098 43.5406 12.5098 43.7828C12.5098 44.4367 12.6553 44.5094 13.9652 44.5094C15.2508 44.5094 15.5419 44.3762 15.5419 43.7586C15.5419 43.2016 15.2144 43.0563 13.9531 43.0563C13.2132 43.0563 12.7523 43.1047 12.6553 43.2016Z" fill="#599478" stroke="#357959" stroke-width="0.3"/>
<path d="M17.5554 43.2379C17.4462 43.3469 17.3613 43.5891 17.3613 43.7829C17.3613 44.4731 17.5433 44.5215 19.7628 44.4852L21.7883 44.4489L21.8974 44.1098C21.9702 43.9039 21.9702 43.6618 21.8974 43.4438L21.7883 43.1168L19.7628 43.0805C18.0527 43.0563 17.7252 43.0805 17.5554 43.2379Z" fill="#599478" stroke="#357959" stroke-width="0.3"/>
<path d="M23.8625 43.3227C23.7534 43.468 23.6685 43.6739 23.6685 43.7828C23.6685 43.8918 23.7534 44.0977 23.8625 44.243C24.0444 44.4973 24.1051 44.5094 26.3367 44.5094C28.8474 44.5094 29.005 44.4731 29.005 43.7828C29.005 43.0926 28.8474 43.0563 26.3367 43.0563C24.1051 43.0563 24.0444 43.0684 23.8625 43.3227Z" fill="#599478" stroke="#357959" stroke-width="0.3"/>
</svg>
