<svg width="56" height="55" viewBox="0 0 56 55" fill="none" xmlns="http://www.w3.org/2000/svg">
<g clip-path="url(#clip0_26_951)">
<path d="M25.6522 0.0751839C19.6916 0.687489 13.9247 3.24413 9.7716 7.12206C9.15832 7.6914 9.08301 7.79882 9.08301 8.16405C9.08301 8.48632 9.14756 8.62597 9.36275 8.79784C9.83615 9.16308 10.1912 9.08788 10.8583 8.48632C12.7304 6.78905 14.7746 5.42479 17.0986 4.28612C19.7346 3.0078 22.2308 2.26659 25.2218 1.86913C27.0724 1.6328 30.7521 1.708 32.5919 2.03026C36.9816 2.78222 40.8334 4.50097 44.427 7.29394C45.3846 8.03515 47.8162 10.4629 48.5908 11.4404C52.2705 16.124 54.1641 21.5596 54.1641 27.4785C54.1641 30.9697 53.5723 34.0957 52.3458 37.1035C52.0983 37.6943 51.9047 38.2959 51.9047 38.457C51.9047 39.166 52.9483 39.499 53.4002 38.9297C53.8628 38.3389 54.885 35.374 55.3368 33.29C55.8963 30.7012 56.0577 26.791 55.7242 24.0625C55.0894 18.96 52.9591 14.0078 49.699 10.0439C48.5693 8.66894 46.3206 6.49901 45.008 5.51073C41.1455 2.61034 36.5513 0.751942 31.7849 0.161121C30.5691 0.0107307 26.7711 -0.0429802 25.6522 0.0751839Z" fill="#599478" stroke="#357959" stroke-width="0.2"/>
<path d="M6.87744 10.1729C6.72681 10.3447 6.29644 10.8926 5.93063 11.4082C3.21931 15.2217 1.58391 19.4004 0.959873 24.0947C0.744688 25.7705 0.744688 29.208 0.970632 30.959C1.29341 33.5479 2.26174 37.1035 2.76742 37.5762C3.20855 37.9951 3.89714 37.8555 4.12308 37.2861C4.24143 37.0068 4.20916 36.8242 3.83258 35.6856C2.38009 31.3672 2.11111 26.4902 3.06868 22.0215C3.81106 18.5947 5.52178 14.8994 7.74894 11.9131C8.49132 10.9033 8.5774 10.624 8.21158 10.1621C7.89957 9.76465 7.26477 9.76465 6.87744 10.1729Z" fill="#599478" stroke="#357959" stroke-width="0.2"/>
<path d="M16.4529 11.6875C15.9472 11.999 15.8504 12.1709 15.2694 13.8467L14.7314 15.415L12.9454 15.4688C11.2132 15.5225 11.1486 15.5332 10.7828 15.8125C9.97586 16.4248 9.84675 17.6816 10.4923 18.4229C10.6752 18.627 11.2992 19.1318 11.891 19.5615C12.4935 19.9912 12.9992 20.3994 13.0315 20.4746C13.0638 20.5498 12.8809 21.2266 12.6334 21.9785C12.2676 23.0742 12.1923 23.4395 12.2245 23.8906C12.2783 24.5996 12.6119 25.0938 13.2144 25.3623C14.1289 25.7705 14.5593 25.6416 16.1947 24.4492L17.4105 23.5576L18.5832 24.4063C20.2832 25.6523 20.7243 25.7813 21.6389 25.3408C22.2091 25.0615 22.6395 24.3955 22.6395 23.7832C22.6395 23.5576 22.4243 22.709 22.1661 21.9033L21.7034 20.4316L22.8869 19.5938C23.5325 19.1211 24.178 18.6055 24.3179 18.4443C25.0495 17.5742 24.7698 16.1133 23.7799 15.6406C23.4894 15.5117 23.0698 15.4688 21.8002 15.4688C20.649 15.4688 20.1648 15.4258 20.0788 15.3291C20.025 15.2647 19.7883 14.6201 19.5731 13.9111C19.1212 12.4287 18.8307 11.9238 18.3035 11.6768C17.7978 11.4297 16.8618 11.4404 16.4529 11.6875ZM17.9807 14.6738C18.551 16.3926 18.6155 16.5107 19.132 16.8545C19.5408 17.123 19.6376 17.1338 21.2623 17.1768C22.1983 17.1875 22.9622 17.2412 22.9622 17.2842C22.9622 17.3272 22.3812 17.7891 21.6711 18.3047C19.7667 19.6904 19.6807 19.9375 20.4231 22.1826C20.692 23.0098 20.8749 23.7188 20.8319 23.751C20.7889 23.7939 20.1971 23.418 19.5193 22.9238C18.4434 22.1397 17.8301 21.8066 17.4212 21.8066C17.0016 21.8066 16.3561 22.1504 15.2694 22.9453C14.57 23.4502 13.9783 23.8262 13.946 23.7939C13.9137 23.7617 14.0859 23.1064 14.3441 22.333C15.1188 19.9697 15.0219 19.6475 13.1606 18.3047C12.4505 17.7891 11.848 17.3379 11.8157 17.2842C11.7834 17.2305 12.4074 17.1875 13.2251 17.1875C15.8396 17.1875 16.1086 16.9941 16.8402 14.6738C17.0877 13.8682 17.3459 13.2236 17.4105 13.2451C17.4643 13.2666 17.7225 13.9004 17.9807 14.6738Z" fill="#599478" stroke="#357959" stroke-width="0.2"/>
<path d="M38.402 11.6553C37.8533 11.9346 37.6166 12.3535 37.154 13.8037C36.9065 14.5664 36.659 15.2646 36.6052 15.3291C36.5192 15.4258 36.035 15.4687 34.8838 15.4687C33.6142 15.4687 33.1946 15.5117 32.9041 15.6406C31.9142 16.1133 31.6345 17.5742 32.3661 18.4443C32.506 18.6055 33.1515 19.1211 33.7971 19.5937L34.9806 20.4316L34.518 21.9033C34.2597 22.709 34.0445 23.5576 34.0445 23.7832C34.0445 24.3955 34.4749 25.0615 35.0452 25.3408C35.9597 25.7812 36.4008 25.6523 38.1008 24.4062L39.2735 23.5576L40.4463 24.417C41.7589 25.3623 42.157 25.5664 42.6734 25.5664C43.1899 25.5557 43.8785 25.2119 44.1582 24.8144C44.5993 24.1914 44.5778 23.5361 44.0506 21.9785C43.8031 21.2265 43.6202 20.5498 43.6525 20.4746C43.6848 20.3994 44.1905 19.9912 44.793 19.5615C45.3848 19.1318 46.0088 18.6269 46.1917 18.4228C46.8372 17.6816 46.7081 16.4248 45.9012 15.8125C45.5354 15.5332 45.4708 15.5224 43.7386 15.4687L41.9526 15.415L41.4038 13.8359C40.8551 12.2246 40.6722 11.9131 40.1558 11.6445C39.7684 11.4512 38.8109 11.4512 38.402 11.6553ZM39.8545 14.6846C40.5861 17.0049 40.8444 17.1875 43.4589 17.1875C44.2766 17.1875 44.9006 17.2305 44.8683 17.2842C44.836 17.3379 44.2335 17.789 43.5234 18.3047C41.6621 19.6474 41.5652 19.9697 42.3399 22.333C42.5981 23.1064 42.7703 23.7617 42.738 23.7939C42.7057 23.8262 42.114 23.4502 41.4146 22.9453C40.3279 22.1504 39.6824 21.8066 39.2628 21.8066C38.8539 21.8066 38.2406 22.1396 37.1647 22.9238C36.4869 23.418 35.8951 23.7939 35.8521 23.751C35.8091 23.7187 35.992 23.0098 36.2609 22.1826C37.0033 19.9267 36.9065 19.6582 34.9698 18.2617C34.2812 17.7676 33.7218 17.3271 33.7218 17.2842C33.7218 17.2412 34.4857 17.1875 35.4217 17.1767C36.9495 17.1338 37.1432 17.1123 37.4983 16.8867C38.0362 16.5537 38.133 16.3818 38.671 14.7705C38.9185 13.9971 39.1552 13.3418 39.1767 13.2881C39.295 13.0732 39.4242 13.331 39.8545 14.6846Z" fill="#599478" stroke="#357959" stroke-width="0.2"/>
<path d="M16.8297 30.25C15.6461 30.7549 15.4094 31.6357 15.6354 34.5898C15.8936 37.9736 17.0771 40.6484 19.3043 42.8613C25.4801 49.0059 35.7551 47.3838 39.7037 39.6602C40.7043 37.7158 41.0379 36.126 41.0379 33.3867C41.0379 31.3457 40.9948 31.1201 40.4784 30.6475C39.8436 30.0566 40.36 30.0781 28.3205 30.0781C18.6372 30.0889 17.1632 30.1103 16.8297 30.25ZM19.1752 32.7637C19.2612 33.3223 19.4119 33.8379 19.5733 34.1064C19.853 34.6006 20.477 35.0732 21.0365 35.2344C21.2517 35.2988 24.1459 35.3418 28.3528 35.3418C36.0671 35.3418 35.9273 35.3525 36.6696 34.6328C37.2184 34.1064 37.369 33.7412 37.5089 32.6992L37.638 31.7861L38.4449 31.8183L39.2626 31.8506V33.7842C39.2519 35.46 39.2196 35.8359 39.0151 36.6309C38.6063 38.1133 37.4551 40.3369 36.745 40.9707C36.5298 41.1641 36.519 41.1533 35.7981 40.5088C34.4425 39.2627 32.7425 38.3281 31.0318 37.8662C30.0958 37.6191 27.6211 37.5332 26.5345 37.7051C24.4149 38.0488 22.4244 39.0478 20.7353 40.6377C20.2403 41.0996 20.1435 41.1533 19.9929 41.0244C19.6378 40.7344 18.8524 39.5205 18.3897 38.5322C17.6258 36.9424 17.4537 36.1367 17.3999 33.9775C17.3676 32.957 17.3676 32.0439 17.4107 31.958C17.4645 31.8183 17.6258 31.7969 18.2499 31.8183L19.0353 31.8506L19.1752 32.7637ZM35.8197 32.3555C35.7228 33.0215 35.6368 33.2363 35.314 33.4512C35.0988 33.6016 34.2488 33.623 28.342 33.623C22.4352 33.623 21.5852 33.6016 21.37 33.4512C21.0473 33.2363 20.9612 33.0215 20.8644 32.3555L20.789 31.7969H28.342H35.895L35.8197 32.3555ZM30.8704 39.6387C31.9894 39.9932 33.1621 40.6162 34.0552 41.3359C35.002 42.0879 35.314 42.4209 35.1741 42.5176C33.7109 43.5703 32.452 44.1934 30.9457 44.6016C30.2787 44.7842 29.7945 44.8271 28.3958 44.8379C26.8465 44.8379 26.5667 44.8164 25.6307 44.5586C25.0605 44.3975 24.2643 44.1182 23.8554 43.9355C23.1023 43.5918 21.4561 42.5713 21.4561 42.4424C21.4561 42.3994 21.639 42.1953 21.865 41.9805C23.2099 40.7021 24.9206 39.7783 26.6313 39.4238C26.8895 39.3701 27.7825 39.3379 28.611 39.3594C29.8053 39.3916 30.2679 39.4453 30.8704 39.6387Z" fill="#599478" stroke="#357959" stroke-width="0.2"/>
<path d="M4.38136 39.3164C3.78961 39.5527 3.77885 40.1758 4.3706 41.1748C5.62943 43.3555 7.15724 45.3105 8.99707 47.126C10.4818 48.5977 11.2888 49.2529 13.1716 50.5098C16.3886 52.6475 20.1006 54.0762 24.1998 54.7529C25.9105 55.0322 30.7845 55.0322 32.4844 54.7529C38.5096 53.7539 43.362 51.3262 47.5796 47.2119C49.6669 45.1924 52.0124 42.1309 52.0124 41.4434C52.0124 41.0137 51.582 40.6055 51.1194 40.6055C50.6998 40.6055 50.5491 40.7451 49.7637 41.9268C45.5891 48.1787 38.7248 52.293 31.0427 53.1738C29.3858 53.3672 25.7169 53.2598 24.0922 52.9697C19.7132 52.1963 15.614 50.3701 12.2679 47.7168C9.83628 45.7939 6.88826 42.3135 5.69399 39.9502C5.36045 39.3164 4.93008 39.1016 4.38136 39.3164Z" fill="#599478" stroke="#357959" stroke-width="0.2"/>
</g>
<defs>
<clipPath id="clip0_26_951">
<rect width="55.0872" height="55" fill="white" transform="translate(0.79834)"/>
</clipPath>
</defs>
</svg>
