<svg width="18" height="18" viewBox="0 0 18 18" fill="none" xmlns="http://www.w3.org/2000/svg">
<g clip-path="url(#clip0_619_46)">
<path d="M13.1248 13.1522C12.8509 12.877 12.8519 12.4318 13.1272 12.1579L15.5938 9.70312H0.703125C0.314789 9.70312 0 9.38833 0 9C0 8.61166 0.314789 8.29687 0.703125 8.29687H15.5938L13.1271 5.84212C12.8519 5.56818 12.8508 5.123 13.1248 4.84776C13.3988 4.57249 13.8439 4.57147 14.1192 4.84537L17.7931 8.50162C17.7934 8.50183 17.7936 8.50208 17.7938 8.50229C18.0683 8.77623 18.0692 9.22285 17.7938 9.4977C17.7936 9.49792 17.7934 9.49816 17.7932 9.49837L14.1192 13.1546C13.844 13.4285 13.3988 13.4275 13.1248 13.1522Z" fill="#BA0D16"/>
</g>
<defs>
<clipPath id="clip0_619_46">
<rect width="18" height="18" fill="white" transform="matrix(0 1 1 0 0 0)"/>
</clipPath>
</defs>
</svg>
