<svg width="35" height="28" viewBox="0 0 35 28" fill="none" xmlns="http://www.w3.org/2000/svg">
<path d="M34.1594 9.36994C33.7016 8.83578 33.0146 8.52933 32.2747 8.52933H25.5969L21.9759 0.819002C21.7514 0.340951 21.1525 0.122488 20.6384 0.331379C20.1242 0.540144 19.8894 1.09704 20.114 1.57515L23.38 8.5294H11.2942L14.5602 1.57515C14.7847 1.09704 14.55 0.540207 14.0358 0.331379C13.5217 0.122488 12.9228 0.340825 12.6983 0.819002L9.07726 8.5294H2.3995C1.65956 8.5294 0.972642 8.83578 0.514767 9.37C0.0652892 9.89446 -0.100564 10.5687 0.059736 11.22L3.62583 25.7044C3.87484 26.7158 4.83699 27.4222 5.96559 27.4222H28.7086C29.8372 27.4222 30.7994 26.7158 31.0484 25.7044L34.6145 11.2199C34.7748 10.5686 34.6089 9.8944 34.1594 9.36994ZM28.7086 25.5328H5.96559C5.7931 25.5328 5.64201 25.4277 5.60632 25.2827L2.04023 10.7984C2.01226 10.6847 2.05919 10.5992 2.10362 10.5475C2.14479 10.4993 2.23805 10.4187 2.3995 10.4187H8.19002L7.92394 10.9853C7.69943 11.4634 7.93416 12.0202 8.44832 12.229C8.58065 12.2828 8.71853 12.3083 8.85431 12.3083C9.24589 12.3083 9.61904 12.0965 9.78578 11.7415L10.407 10.4188H24.2673L24.8886 11.7415C25.0553 12.0965 25.4284 12.3083 25.82 12.3083C25.9557 12.3083 26.0937 12.2828 26.226 12.229C26.7402 12.0203 26.975 11.4634 26.7504 10.9853L26.4843 10.4187H32.2748C32.4363 10.4187 32.5295 10.4993 32.5707 10.5475C32.6151 10.5992 32.6621 10.6848 32.6341 10.7983L29.068 25.2828C29.0323 25.4277 28.8811 25.5328 28.7086 25.5328Z" fill="#333333"/>
<path d="M11.2424 14.512C10.6814 14.512 10.2266 14.9349 10.2266 15.4566V22.384C10.2266 22.9057 10.6814 23.3286 11.2424 23.3286C11.8035 23.3286 12.2583 22.9057 12.2583 22.384V15.4566C12.2583 14.9349 11.8035 14.512 11.2424 14.512Z" fill="#333333"/>
<path d="M17.3371 14.512C16.7761 14.512 16.3213 14.9349 16.3213 15.4566V22.384C16.3213 22.9057 16.7761 23.3286 17.3371 23.3286C17.8981 23.3286 18.3529 22.9057 18.3529 22.384V15.4566C18.3529 14.9349 17.8981 14.512 17.3371 14.512Z" fill="#333333"/>
<path d="M23.4318 14.512C22.8708 14.512 22.416 14.9349 22.416 15.4566V22.384C22.416 22.9057 22.8708 23.3286 23.4318 23.3286C23.9928 23.3286 24.4476 22.9057 24.4476 22.384V15.4566C24.4476 14.9349 23.9928 14.512 23.4318 14.512Z" fill="#333333"/>
</svg>
