<svg width="398" height="170" viewBox="0 0 398 170" fill="none" xmlns="http://www.w3.org/2000/svg">
<path fill-rule="evenodd" clip-rule="evenodd" d="M78.3821 0.178406H87.4036V3.82156H81.9907V13.7584L64.0399 18.1078L59.9084 7.3822L50.6301 10.9506L54.0873 20.2583L40.4378 30.4121L31.0755 22.7324L24.464 30.2972L32.7081 36.8367L21.9686 52.7388L11.4634 49.2035L8.00586 57.9302L19.244 61.5131L14.1942 79.7207H3.80423V85.1854H0.195618V76.0776H11.4573L14.8275 63.9255L3.2112 60.2221L9.37659 44.661L20.5231 48.4121L27.8266 37.5977L19.2305 30.7789L30.662 17.6991L40.5457 25.8065L49.7507 18.9589L45.9907 8.83636L61.9727 2.6897L66.2612 13.823L78.3821 10.8861V0.178406Z" fill="#C5430A"/>
<path fill-rule="evenodd" clip-rule="evenodd" d="M95.4329 0.178284H86.2942V3.82144H91.7774V13.7583L109.961 18.1077L114.123 7.44134L122.349 10.8929L118.801 20.3223L133.922 30.3695L143.354 22.7323L150.456 30.2738L153.398 28.0646L143.773 17.699L133.708 25.8488L123.242 18.8946L127.005 8.89386L112.079 2.63031L107.711 13.8229L95.4329 10.886V0.178284Z" fill="#C5430A"/>
<path fill-rule="evenodd" clip-rule="evenodd" d="M78.3822 169.059H87.4037V165.464H81.9908V155.66L64.0399 151.369L59.9084 161.951L50.6301 158.43L54.0874 149.247L40.4379 139.229L31.0756 146.806L24.4641 139.342L32.7082 132.89L21.9687 117.2L11.4635 120.688L8.00592 112.077L19.2441 108.542L14.1943 90.5773H3.80429V85.1855H0.195679V94.1719H11.4573L14.8276 106.162L3.21126 109.816L9.37666 125.17L20.5231 121.469L27.8267 132.139L19.2306 138.867L30.6621 151.772L40.5457 143.773L49.7507 150.529L45.9908 160.517L61.9727 166.581L66.2613 155.596L78.3822 158.494V169.059Z" fill="#C5430A"/>
<path fill-rule="evenodd" clip-rule="evenodd" d="M96.5421 169.059H87.4034V165.464H92.8866V155.66L111.071 151.369L115.233 161.893L123.458 158.487L119.91 149.184L135.032 139.27L144.463 146.806L151.16 139.342L142.809 132.89L153.769 117.083L164.395 121.726L167.897 113.116L156.491 108.394L162.564 95.3395H184.847H203.412V98.9341H186.234H165.336L161.852 106.311L172.625 111.173L166.379 126.527L155.072 121.585L147.754 132.139L156.462 138.867L144.882 151.772L134.818 143.731L124.351 150.592L128.114 160.46L113.188 166.64L108.82 155.596L96.5421 158.494V169.059Z" fill="#C5430A"/>
<path fill-rule="evenodd" clip-rule="evenodd" d="M56.5028 54.7469C47.7957 63.6458 43.0808 76.1183 44.6839 89.2386C47.5198 112.449 69.0788 128.948 92.8773 126.04C111.086 123.816 125.296 110.874 129.688 94.5165L133.535 95.5157C128.733 113.398 113.213 127.519 93.3544 129.945C67.4144 133.115 43.8369 115.128 40.7326 89.7214C38.9784 75.3642 44.1451 61.7258 53.6458 52.0158L56.5028 54.7469Z" fill="#C5430A"/>
<path d="M220.814 117.914C222.518 117.914 223.917 117.481 225.014 116.616C226.118 115.744 226.877 114.579 227.293 113.122L225.443 112.631C225.144 113.721 224.605 114.586 223.829 115.227C223.059 115.86 222.054 116.177 220.814 116.177C219.718 116.177 218.801 115.928 218.066 115.431C217.33 114.934 216.778 114.239 216.41 113.346C216.043 112.454 215.862 111.422 215.869 110.25C215.876 109.072 216.063 108.04 216.431 107.154C216.799 106.262 217.347 105.567 218.076 105.07C218.805 104.572 219.718 104.324 220.814 104.324C222.054 104.324 223.059 104.64 223.829 105.274C224.605 105.907 225.144 106.773 225.443 107.869L227.293 107.379C226.877 105.914 226.118 104.749 225.014 103.884C223.917 103.019 222.518 102.587 220.814 102.587C219.35 102.587 218.103 102.91 217.075 103.557C216.053 104.204 215.276 105.104 214.745 106.255C214.213 107.406 213.948 108.738 213.948 110.25C213.948 111.763 214.213 113.094 214.745 114.246C215.276 115.397 216.053 116.296 217.075 116.943C218.103 117.59 219.35 117.914 220.814 117.914Z" fill="#7B7575"/>
<path d="M234.52 117.914C235.59 117.914 236.554 117.648 237.412 117.117C238.27 116.579 238.918 115.823 239.354 114.848L237.606 114.246C236.973 115.54 235.917 116.187 234.439 116.187C233.424 116.187 232.627 115.877 232.048 115.257C231.475 114.63 231.152 113.745 231.077 112.6H239.537C239.592 111.293 239.422 110.165 239.027 109.218C238.638 108.271 238.052 107.542 237.269 107.031C236.492 106.521 235.549 106.265 234.439 106.265C233.369 106.265 232.436 106.507 231.639 106.991C230.842 107.467 230.222 108.149 229.779 109.034C229.343 109.913 229.125 110.955 229.125 112.161C229.125 113.312 229.346 114.321 229.789 115.186C230.239 116.044 230.869 116.715 231.68 117.199C232.49 117.676 233.437 117.914 234.52 117.914ZM234.5 107.9C236.373 107.9 237.422 108.98 237.647 111.139H231.107C231.237 110.09 231.588 109.29 232.16 108.738C232.732 108.179 233.512 107.9 234.5 107.9Z" fill="#7B7575"/>
<path d="M240.995 117.607C241.738 117.757 242.327 117.771 242.763 117.648C243.199 117.532 243.533 117.277 243.764 116.882C243.996 116.48 244.176 115.945 244.306 115.278C244.408 114.76 244.503 114.116 244.592 113.346C244.687 112.577 244.772 111.752 244.847 110.874C244.929 109.995 245.001 109.136 245.062 108.299H249.302V117.607H251.121V106.572H243.407C243.311 108.213 243.206 109.692 243.09 111.006C242.981 112.314 242.841 113.452 242.671 114.419C242.562 115.039 242.409 115.492 242.211 115.778C242.013 116.064 241.608 116.153 240.995 116.044V117.607Z" fill="#7B7575"/>
<path d="M254.196 117.607H258.498C258.811 117.607 259.141 117.601 259.489 117.587C259.843 117.567 260.156 117.526 260.429 117.464C261.226 117.287 261.87 116.919 262.36 116.361C262.857 115.802 263.106 115.046 263.106 114.092C263.106 113.057 262.84 112.273 262.309 111.742C261.784 111.204 261.096 110.85 260.245 110.679C259.993 110.632 259.7 110.601 259.366 110.587C259.039 110.574 258.716 110.567 258.395 110.567H256.015V106.572H254.186L254.196 117.607ZM256.015 116.105V112.069H258.528C258.726 112.069 258.934 112.076 259.152 112.09C259.37 112.103 259.577 112.134 259.775 112.181C260.204 112.277 260.555 112.478 260.827 112.784C261.1 113.091 261.236 113.527 261.236 114.092C261.236 114.651 261.096 115.083 260.817 115.39C260.538 115.69 260.228 115.887 259.887 115.983C259.683 116.037 259.455 116.071 259.203 116.085C258.951 116.098 258.726 116.105 258.528 116.105H256.015Z" fill="#7B7575"/>
<path d="M264.33 117.607H266.507L269.613 113.438L272.699 117.607H274.875L270.645 112.028L274.773 106.572H272.607L269.613 110.618L266.588 106.572H264.422L268.55 112.028L264.33 117.607Z" fill="#7B7575"/>
<path d="M281.019 117.914C282.115 117.914 283.059 117.669 283.849 117.178C284.646 116.688 285.259 116.003 285.688 115.124C286.124 114.246 286.342 113.231 286.342 112.079C286.342 110.942 286.128 109.937 285.699 109.065C285.276 108.186 284.667 107.502 283.87 107.011C283.073 106.514 282.122 106.265 281.019 106.265C279.942 106.265 279.006 106.51 278.209 107.001C277.412 107.484 276.795 108.162 276.359 109.034C275.923 109.906 275.705 110.921 275.705 112.079C275.705 113.217 275.916 114.225 276.339 115.104C276.768 115.983 277.381 116.671 278.178 117.168C278.975 117.665 279.922 117.914 281.019 117.914ZM281.019 116.187C279.908 116.187 279.067 115.816 278.495 115.073C277.923 114.324 277.636 113.326 277.636 112.079C277.636 110.874 277.912 109.893 278.464 109.136C279.016 108.373 279.867 107.992 281.019 107.992C282.149 107.992 282.998 108.363 283.563 109.106C284.128 109.848 284.411 110.839 284.411 112.079C284.411 113.292 284.128 114.28 283.563 115.043C283.004 115.806 282.156 116.187 281.019 116.187Z" fill="#7B7575"/>
<path d="M292.492 117.914C293.282 117.914 293.997 117.778 294.637 117.505C295.278 117.226 295.785 116.831 296.16 116.32C296.541 115.802 296.732 115.182 296.732 114.46C296.732 113.929 296.616 113.425 296.385 112.948C296.16 112.464 295.816 112.093 295.353 111.834C296.068 111.207 296.426 110.424 296.426 109.484C296.426 108.796 296.248 108.213 295.894 107.737C295.547 107.253 295.077 106.888 294.484 106.643C293.898 106.391 293.251 106.265 292.543 106.265C291.657 106.265 290.84 106.425 290.09 106.745C289.348 107.059 288.694 107.508 288.128 108.094L289.232 109.331C289.634 108.942 290.114 108.622 290.673 108.37C291.231 108.111 291.817 107.982 292.43 107.982C293.009 107.982 293.507 108.115 293.922 108.38C294.344 108.646 294.556 109.062 294.556 109.627C294.556 110.186 294.331 110.581 293.881 110.812C293.432 111.044 292.849 111.16 292.134 111.16H291V112.662H292.144C292.996 112.662 293.663 112.771 294.147 112.989C294.631 113.2 294.872 113.629 294.872 114.276C294.872 114.869 294.651 115.336 294.208 115.676C293.765 116.017 293.169 116.187 292.42 116.187C291.705 116.187 291.068 116.027 290.509 115.707C289.951 115.38 289.47 114.913 289.068 114.307L287.617 115.247C288.101 116.085 288.762 116.739 289.6 117.209C290.438 117.679 291.402 117.914 292.492 117.914Z" fill="#7B7575"/>
<path d="M302.102 117.607H303.92V108.227H307.763V106.572H298.26V108.227H302.102V117.607Z" fill="#7B7575"/>
<path d="M314.683 117.914C315.753 117.914 316.717 117.648 317.575 117.117C318.433 116.579 319.081 115.823 319.517 114.848L317.769 114.246C317.136 115.54 316.08 116.187 314.602 116.187C313.587 116.187 312.79 115.877 312.211 115.257C311.638 114.63 311.315 113.745 311.24 112.6H319.7C319.755 111.293 319.585 110.165 319.19 109.218C318.801 108.271 318.215 107.542 317.432 107.031C316.655 106.521 315.712 106.265 314.602 106.265C313.532 106.265 312.599 106.507 311.802 106.991C311.005 107.467 310.385 108.149 309.942 109.034C309.506 109.913 309.288 110.955 309.288 112.161C309.288 113.312 309.509 114.321 309.952 115.186C310.402 116.044 311.032 116.715 311.843 117.199C312.653 117.676 313.6 117.914 314.683 117.914ZM314.663 107.9C316.536 107.9 317.585 108.98 317.81 111.139H311.27C311.4 110.09 311.751 109.29 312.323 108.738C312.895 108.179 313.675 107.9 314.663 107.9Z" fill="#7B7575"/>
<path d="M320.555 117.607H322.731L325.837 113.438L328.923 117.607H331.1L326.869 112.028L330.998 106.572H328.831L325.837 110.618L322.813 106.572H320.646L324.775 112.028L320.555 117.607Z" fill="#7B7575"/>
<path d="M332.932 117.607H334.75V112.948H340.554V117.607H342.373V106.572H340.554V111.221H334.75V106.572H332.932V117.607Z" fill="#7B7575"/>
<path d="M354.473 106.572H352.981L347.187 114.593V106.572H345.43V117.607H346.932L352.715 109.474V117.607H354.473V106.572Z" fill="#7B7575"/>
<path d="M357.529 117.607H359.378V112.294L364.395 117.607H366.94L361.493 112.09L366.368 106.572H364.007L359.378 111.885V106.572H357.539L357.529 117.607Z" fill="#7B7575"/>
<path d="M371.298 117.914C373.137 117.914 374.5 117.24 375.385 115.891V117.607H377V110.782C377 110.346 376.98 109.93 376.939 109.535C376.898 109.133 376.799 108.762 376.642 108.421C376.329 107.699 375.811 107.161 375.089 106.807C374.367 106.446 373.509 106.265 372.514 106.265C371.268 106.265 370.259 106.541 369.49 107.093C368.727 107.645 368.216 108.404 367.957 109.371L369.684 109.893C369.881 109.218 370.232 108.728 370.736 108.421C371.24 108.115 371.826 107.961 372.494 107.961C373.447 107.961 374.132 108.176 374.548 108.605C374.97 109.027 375.191 109.678 375.212 110.557C374.394 110.673 373.536 110.795 372.637 110.925C371.744 111.047 370.951 111.201 370.256 111.384C369.418 111.63 368.757 112.015 368.274 112.539C367.79 113.057 367.548 113.752 367.548 114.624C367.548 115.216 367.688 115.761 367.967 116.259C368.253 116.756 368.672 117.158 369.224 117.464C369.783 117.764 370.474 117.914 371.298 117.914ZM371.574 116.391C370.791 116.391 370.225 116.211 369.878 115.85C369.53 115.482 369.357 115.07 369.357 114.613C369.357 114.096 369.527 113.701 369.868 113.428C370.215 113.149 370.617 112.938 371.073 112.795C371.612 112.645 372.238 112.519 372.954 112.417C373.669 112.314 374.415 112.212 375.191 112.11C375.191 112.362 375.178 112.648 375.15 112.968C375.13 113.288 375.082 113.581 375.007 113.847C374.878 114.528 374.517 115.124 373.924 115.635C373.338 116.139 372.555 116.391 371.574 116.391Z" fill="#7B7575"/>
<path d="M218.72 140.394C219.51 140.394 220.225 140.258 220.866 139.985C221.506 139.706 222.013 139.311 222.388 138.8C222.77 138.282 222.96 137.662 222.96 136.94C222.96 136.409 222.844 135.905 222.613 135.428C222.388 134.944 222.044 134.573 221.581 134.314C222.296 133.688 222.654 132.904 222.654 131.964C222.654 131.276 222.477 130.694 222.122 130.217C221.775 129.733 221.305 129.369 220.712 129.123C220.126 128.871 219.479 128.745 218.771 128.745C217.885 128.745 217.068 128.905 216.318 129.226C215.576 129.539 214.922 129.988 214.357 130.574L215.46 131.811C215.862 131.422 216.342 131.102 216.901 130.85C217.459 130.591 218.045 130.462 218.658 130.462C219.237 130.462 219.735 130.595 220.15 130.86C220.573 131.126 220.784 131.542 220.784 132.107C220.784 132.666 220.559 133.061 220.109 133.292C219.66 133.524 219.077 133.64 218.362 133.64H217.228V135.142H218.372C219.224 135.142 219.891 135.251 220.375 135.469C220.859 135.68 221.101 136.109 221.101 136.756C221.101 137.349 220.879 137.816 220.436 138.156C219.994 138.497 219.398 138.667 218.648 138.667C217.933 138.667 217.296 138.507 216.737 138.187C216.179 137.86 215.699 137.393 215.297 136.787L213.846 137.727C214.329 138.565 214.99 139.219 215.828 139.689C216.666 140.159 217.63 140.394 218.72 140.394Z" fill="#7B7575"/>
<path d="M228.544 140.394C230.384 140.394 231.746 139.72 232.632 138.371V140.088H234.246V133.262C234.246 132.826 234.226 132.41 234.185 132.015C234.144 131.613 234.045 131.242 233.889 130.901C233.575 130.179 233.057 129.641 232.335 129.287C231.613 128.926 230.755 128.745 229.76 128.745C228.514 128.745 227.506 129.021 226.736 129.573C225.973 130.125 225.462 130.884 225.203 131.852L226.93 132.373C227.127 131.698 227.478 131.208 227.982 130.901C228.487 130.595 229.072 130.442 229.74 130.442C230.694 130.442 231.378 130.656 231.794 131.085C232.216 131.508 232.438 132.158 232.458 133.037C231.641 133.153 230.782 133.275 229.883 133.405C228.991 133.527 228.197 133.681 227.502 133.865C226.664 134.11 226.003 134.495 225.52 135.019C225.036 135.537 224.794 136.232 224.794 137.104C224.794 137.696 224.934 138.241 225.213 138.739C225.499 139.236 225.918 139.638 226.47 139.944C227.029 140.244 227.72 140.394 228.544 140.394ZM228.82 138.872C228.037 138.872 227.471 138.691 227.124 138.33C226.777 137.962 226.603 137.55 226.603 137.094C226.603 136.576 226.773 136.181 227.114 135.908C227.461 135.629 227.863 135.418 228.32 135.275C228.858 135.125 229.484 134.999 230.2 134.897C230.915 134.794 231.661 134.692 232.438 134.59C232.438 134.842 232.424 135.128 232.397 135.448C232.376 135.769 232.329 136.062 232.254 136.327C232.124 137.008 231.763 137.605 231.17 138.115C230.585 138.62 229.801 138.872 228.82 138.872Z" fill="#7B7575"/>
<path d="M237.097 140.088H238.916V130.779H244.321V140.088H246.14V129.052H237.097V140.088Z" fill="#7B7575"/>
<path d="M252.343 140.394C254.183 140.394 255.545 139.72 256.431 138.371V140.088H258.045V133.262C258.045 132.826 258.025 132.41 257.984 132.015C257.943 131.613 257.844 131.242 257.688 130.901C257.374 130.179 256.856 129.641 256.134 129.287C255.412 128.926 254.554 128.745 253.559 128.745C252.313 128.745 251.305 129.021 250.535 129.573C249.772 130.125 249.261 130.884 249.002 131.852L250.729 132.373C250.926 131.698 251.277 131.208 251.781 130.901C252.285 130.595 252.871 130.442 253.539 130.442C254.493 130.442 255.177 130.656 255.593 131.085C256.015 131.508 256.237 132.158 256.257 133.037C255.439 133.153 254.581 133.275 253.682 133.405C252.79 133.527 251.996 133.681 251.301 133.865C250.463 134.11 249.802 134.495 249.319 135.019C248.835 135.537 248.593 136.232 248.593 137.104C248.593 137.696 248.733 138.241 249.012 138.739C249.298 139.236 249.717 139.638 250.269 139.944C250.828 140.244 251.519 140.394 252.343 140.394ZM252.619 138.872C251.836 138.872 251.27 138.691 250.923 138.33C250.576 137.962 250.402 137.55 250.402 137.094C250.402 136.576 250.572 136.181 250.913 135.908C251.26 135.629 251.662 135.418 252.119 135.275C252.657 135.125 253.283 134.999 253.999 134.897C254.714 134.794 255.46 134.692 256.237 134.59C256.237 134.842 256.223 135.128 256.196 135.448C256.175 135.769 256.128 136.062 256.053 136.327C255.923 137.008 255.562 137.605 254.969 138.115C254.384 138.62 253.6 138.872 252.619 138.872Z" fill="#7B7575"/>
<path d="M265.556 140.394C266.693 140.394 267.667 140.122 268.478 139.577C269.289 139.032 269.888 138.245 270.276 137.216L268.437 136.736C267.926 138.023 266.966 138.667 265.556 138.667C264.459 138.667 263.631 138.293 263.073 137.543C262.521 136.794 262.238 135.803 262.224 134.57C262.238 133.371 262.514 132.39 263.052 131.627C263.59 130.857 264.425 130.472 265.556 130.472C266.223 130.472 266.819 130.649 267.344 131.004C267.868 131.358 268.246 131.855 268.478 132.495L270.276 131.954C269.983 130.959 269.415 130.176 268.57 129.604C267.732 129.031 266.734 128.745 265.576 128.745C264.472 128.745 263.526 128.994 262.735 129.491C261.952 129.982 261.352 130.663 260.937 131.535C260.521 132.407 260.307 133.418 260.293 134.57C260.307 135.694 260.518 136.695 260.927 137.574C261.335 138.453 261.928 139.144 262.705 139.648C263.488 140.145 264.438 140.394 265.556 140.394Z" fill="#7B7575"/>
<path d="M272.556 140.088H274.375V135.428H280.179V140.088H281.998V129.052H280.179V133.701H274.375V129.052H272.556V140.088Z" fill="#7B7575"/>
<path d="M285.064 140.088H288.671C288.985 140.088 289.315 140.081 289.663 140.067C290.017 140.047 290.33 140.006 290.603 139.944C291.4 139.767 292.044 139.4 292.534 138.841C293.031 138.282 293.28 137.526 293.28 136.572C293.28 135.537 293.014 134.754 292.483 134.222C291.958 133.684 291.27 133.33 290.419 133.16C290.167 133.112 289.874 133.081 289.54 133.068C289.213 133.054 288.889 133.047 288.569 133.047H286.883V129.052H285.054L285.064 140.088ZM294.547 140.088H296.366V129.052H294.547V140.088ZM286.883 138.585V134.549H288.702C288.9 134.549 289.107 134.556 289.325 134.57C289.543 134.583 289.751 134.614 289.949 134.662C290.378 134.757 290.729 134.958 291.001 135.265C291.274 135.571 291.41 136.007 291.41 136.572C291.41 137.131 291.27 137.564 290.991 137.87C290.712 138.17 290.402 138.367 290.061 138.463C289.857 138.517 289.629 138.551 289.377 138.565C289.124 138.579 288.9 138.585 288.702 138.585H286.883Z" fill="#7B7575"/>
<path d="M304.221 140.394C305.29 140.394 306.254 140.128 307.113 139.597C307.971 139.059 308.618 138.303 309.054 137.329L307.307 136.726C306.673 138.02 305.617 138.667 304.139 138.667C303.124 138.667 302.327 138.357 301.748 137.737C301.176 137.111 300.852 136.225 300.777 135.081H309.238C309.292 133.773 309.122 132.645 308.727 131.698C308.339 130.751 307.753 130.023 306.969 129.512C306.193 129.001 305.249 128.745 304.139 128.745C303.07 128.745 302.136 128.987 301.339 129.471C300.542 129.948 299.922 130.629 299.48 131.514C299.044 132.393 298.826 133.435 298.826 134.641C298.826 135.792 299.047 136.801 299.49 137.666C299.939 138.524 300.569 139.195 301.38 139.679C302.191 140.156 303.138 140.394 304.221 140.394ZM304.2 130.38C306.074 130.38 307.123 131.46 307.348 133.619H300.808C300.937 132.57 301.288 131.77 301.86 131.218C302.433 130.659 303.213 130.38 304.2 130.38Z" fill="#7B7575"/>
<path d="M322.655 140.088H324.484V129.052H322.655V134.427C322.341 134.651 321.96 134.832 321.51 134.968C321.061 135.104 320.574 135.173 320.049 135.173C319.259 135.173 318.646 135.006 318.21 134.672C317.781 134.331 317.498 133.82 317.362 133.139C317.307 132.867 317.273 132.587 317.26 132.301C317.246 132.015 317.239 131.77 317.239 131.566V129.052H315.4V131.566C315.4 131.736 315.407 132.053 315.42 132.516C315.441 132.979 315.495 133.422 315.584 133.844C315.788 134.791 316.234 135.517 316.922 136.021C317.617 136.525 318.527 136.777 319.651 136.777C320.237 136.777 320.788 136.716 321.306 136.593C321.831 136.463 322.28 136.303 322.655 136.113V140.088Z" fill="#7B7575"/>
<path d="M330.69 140.394C332.53 140.394 333.892 139.72 334.778 138.371V140.088H336.392V133.262C336.392 132.826 336.372 132.41 336.331 132.015C336.29 131.613 336.191 131.242 336.034 130.901C335.721 130.179 335.203 129.641 334.481 129.287C333.759 128.926 332.901 128.745 331.906 128.745C330.66 128.745 329.651 129.021 328.882 129.573C328.119 130.125 327.608 130.884 327.349 131.852L329.076 132.373C329.273 131.698 329.624 131.208 330.128 130.901C330.632 130.595 331.218 130.442 331.886 130.442C332.839 130.442 333.524 130.656 333.94 131.085C334.362 131.508 334.583 132.158 334.604 133.037C333.786 133.153 332.928 133.275 332.029 133.405C331.136 133.527 330.343 133.681 329.648 133.865C328.81 134.11 328.149 134.495 327.666 135.019C327.182 135.537 326.94 136.232 326.94 137.104C326.94 137.696 327.08 138.241 327.359 138.739C327.645 139.236 328.064 139.638 328.616 139.944C329.175 140.244 329.866 140.394 330.69 140.394ZM330.966 138.872C330.183 138.872 329.617 138.691 329.27 138.33C328.922 137.962 328.749 137.55 328.749 137.094C328.749 136.576 328.919 136.181 329.26 135.908C329.607 135.629 330.009 135.418 330.465 135.275C331.004 135.125 331.63 134.999 332.346 134.897C333.061 134.794 333.807 134.692 334.583 134.59C334.583 134.842 334.57 135.128 334.542 135.448C334.522 135.769 334.474 136.062 334.399 136.327C334.27 137.008 333.909 137.605 333.316 138.115C332.73 138.62 331.947 138.872 330.966 138.872Z" fill="#7B7575"/>
<path d="M343.902 140.394C345.04 140.394 346.014 140.122 346.825 139.577C347.635 139.032 348.235 138.245 348.623 137.216L346.784 136.736C346.273 138.023 345.313 138.667 343.902 138.667C342.806 138.667 341.978 138.293 341.419 137.543C340.868 136.794 340.585 135.803 340.571 134.57C340.585 133.371 340.861 132.39 341.399 131.627C341.937 130.857 342.772 130.472 343.902 130.472C344.57 130.472 345.166 130.649 345.691 131.004C346.215 131.358 346.593 131.855 346.825 132.495L348.623 131.954C348.33 130.959 347.762 130.176 346.917 129.604C346.079 129.031 345.081 128.745 343.923 128.745C342.819 128.745 341.872 128.994 341.082 129.491C340.299 129.982 339.699 130.663 339.284 131.535C338.868 132.407 338.654 133.418 338.64 134.57C338.654 135.694 338.865 136.695 339.274 137.574C339.682 138.453 340.275 139.144 341.052 139.648C341.835 140.145 342.785 140.394 343.902 140.394Z" fill="#7B7575"/>
<path d="M353.636 140.088H355.455V130.707H359.297V129.052H349.794V130.707H353.636V140.088Z" fill="#7B7575"/>
<path d="M370.468 129.052H368.977L363.183 137.073V129.052H361.425V140.088H362.927L368.711 131.954V140.088H370.468V129.052Z" fill="#7B7575"/>
<path d="M108.5 38.1725V41.1008H102.711V84.0717H108.5V87H88.4782V84.0717H91.9173V62.7225C89.3976 62.7225 87.0481 63.3467 84.869 64.5952C82.7125 65.821 80.9419 67.9207 79.5572 70.8944C78.1725 73.8454 77.4801 77.7498 77.4801 82.6076V84.0717H80.1701V87H62.1917V84.0717H65.3924C65.5513 80.2808 66.255 76.9893 67.5035 74.1973C68.7747 71.4052 70.4205 69.1352 72.4408 67.3873C74.4837 65.6167 76.7651 64.2887 79.2848 63.4034C81.8272 62.4955 84.449 61.9847 87.1503 61.8712V60.8497C79.9998 59.8963 74.7448 57.876 71.3852 54.7888C68.0256 51.6789 66.3458 48.2286 66.3458 44.4377C66.3458 42.4855 66.7658 41.0667 67.6057 40.1814C68.4683 39.2734 69.5919 38.7173 70.9766 38.513C72.384 38.286 74.427 38.1725 77.1056 38.1725H108.5ZM91.9173 57.5469V41.1008H83.9496C80.4084 41.1008 78.6378 42.5195 78.6378 45.357C78.6378 47.3546 79.2053 49.2841 80.3403 51.1455C81.4753 53.0069 83.053 54.5278 85.0732 55.7082C87.0935 56.8886 89.3749 57.5015 91.9173 57.5469ZM134.085 68.3747V84.0717H139.873V87H117.468V84.0717H123.257V58.5343C123.257 54.9023 123.325 51.3725 123.461 47.9448C124.846 44.6079 127.059 41.9861 130.101 40.0793C133.143 38.1498 136.536 37.1851 140.282 37.1851C143.959 37.1851 147.126 37.798 149.782 39.0238C152.437 40.2495 154.458 41.9293 155.842 44.0631C157.227 46.1969 157.92 48.5577 157.92 51.1455C157.92 53.6652 157.409 55.9579 156.387 58.0236C155.366 60.0893 153.947 61.7123 152.131 62.8927C150.338 64.0731 148.34 64.6633 146.138 64.6633C145.003 64.6633 144.095 64.5384 143.414 64.2887C142.756 64.039 141.757 63.5623 140.418 62.8587C139.691 62.4955 139.181 62.2458 138.886 62.1096L134.085 68.3747ZM134.085 64.1866L138.545 58.5343C138.976 58.8748 139.442 59.1586 139.941 59.3856C140.463 59.6126 140.849 59.7261 141.099 59.7261C142.211 59.7261 143.244 59.1132 144.197 57.8874C145.151 56.6616 145.628 54.3689 145.628 51.0093C145.628 47.6497 145.23 44.9938 144.436 43.0416C143.596 41.0894 142.041 40.1133 139.771 40.1133C138.068 40.1133 136.809 40.7262 135.991 41.952C135.152 43.1551 134.618 44.642 134.391 46.4126C134.187 48.1832 134.085 50.4078 134.085 53.0863V54.7888V64.1866ZM187.148 36.2998C187.579 36.2998 187.942 36.4473 188.238 36.7424C188.533 37.0148 189.146 37.6504 190.076 38.6492C191.62 40.2382 193.822 42.2925 196.682 44.8122C199.678 47.4227 201.982 50.0332 203.594 52.6437C205.228 55.2315 206.046 58.4322 206.046 62.2458C206.046 65.4918 205.455 68.3407 204.275 70.7923C203.095 73.2439 201.778 75.2301 200.325 76.751C198.872 78.2719 195.921 81.1775 191.472 85.4678C190.156 86.7844 189.18 87.681 188.544 88.1577C187.908 88.6571 187.33 88.9068 186.807 88.9068C186.308 88.9068 185.627 88.589 184.764 87.9534C183.925 87.3405 182.233 85.9558 179.691 83.7993C177.194 81.6428 175.457 80.1106 174.481 79.2026C173.505 78.2946 172.427 77.0574 171.247 75.4911C170.066 73.9022 169.113 72.1089 168.386 70.1113C167.683 68.1137 167.331 65.855 167.331 63.3353C167.331 55.2542 171.894 47.6384 181.019 40.4879C182.358 39.421 183.357 38.5584 184.015 37.9001C184.991 36.8332 186.036 36.2998 187.148 36.2998ZM182.551 45.4932C180.894 45.7202 179.43 46.3672 178.159 47.4341C176.865 48.4783 175.866 49.7608 175.162 51.2817C174.459 52.7799 174.107 54.2667 174.107 55.7422C174.107 56.8545 174.334 58.0009 174.788 59.1813C175.242 60.3617 175.911 61.6102 176.797 62.9268C177.682 64.2433 178.738 65.594 179.963 66.9787C181.212 68.3634 182.767 69.9864 184.628 71.8478C186.898 74.0951 188.374 75.6954 189.055 76.6488C189.758 77.5795 190.167 78.6578 190.281 79.8836C192.301 79.1118 194.185 77.8065 195.933 75.9678C197.703 74.1519 198.736 72.2451 199.031 70.2475V67.898C198.872 66.9446 198.509 65.9685 197.942 64.9697C197.397 63.9482 196.739 62.9495 195.967 61.9734C195.218 60.9973 194.332 59.9417 193.311 58.8067C192.312 57.649 191.12 56.3097 189.736 54.7888C188.487 53.4041 187.42 52.2351 186.535 51.2817C185.672 50.3056 184.991 49.5111 184.492 48.8982C183.993 48.2626 183.595 47.6951 183.3 47.1957C183.028 46.6963 182.778 46.1288 182.551 45.4932ZM242.697 84.0717L235.104 48.6258C233.333 51.3725 231.858 53.9489 230.677 56.3551C229.52 58.784 228.646 61.2016 228.055 63.6077C227.443 65.9912 227.136 68.4428 227.136 70.9625C227.136 72.4607 227.295 74.5945 227.613 77.3639C227.931 80.1333 228.101 81.8585 228.124 82.5395V86.0126C228.055 86.7617 227.726 87.261 227.136 87.5107C226.727 87.6923 226.217 87.7831 225.604 87.7831C225.059 87.7831 224.23 87.6923 223.118 87.5107C222.687 87.4653 222.074 87.4426 221.279 87.4426C220.303 87.4426 219.566 87.4653 219.066 87.5107C218.317 87.6015 217.829 87.6469 217.602 87.6469C216.74 87.6469 216.104 87.3064 215.695 86.6255C215.309 85.9445 215.116 84.6052 215.116 82.6076C215.116 79.1799 215.582 76.104 216.513 73.3801C217.443 70.6334 218.601 68.1931 219.986 66.0593C221.393 63.9028 223.425 61.0427 226.081 57.4788C228.714 53.9603 230.598 51.1796 231.733 49.1366C232.868 47.0709 233.435 44.9711 233.435 42.8373C233.435 42.4287 233.39 41.8499 233.299 41.1008H228.124V38.1725H248.077V41.1008H244.161L253.014 82.0287L260.777 41.1008H257.679V38.1725H276.44V41.1008H271.912L281.275 84.0717H286.076V87H267.383V84.0717H270.447L262.582 47.366L255.738 84.0717H259.449V87H239.088V84.0717H242.697ZM325.894 53.1544L310.504 71.984V84.0717H315.305V87H293.887V84.0717H299.676V41.1008H293.887V38.1725H315.305V41.1008H310.504V67.3873L325.894 48.4896V41.1008H321.093V38.1725H342.511V41.1008H336.722V84.0717H342.511V87H321.093V84.0717H325.894V53.1544ZM368.062 68.3747V84.0717H373.85V87H351.445V84.0717H357.234V58.5343C357.234 54.9023 357.302 51.3725 357.438 47.9448C358.823 44.6079 361.036 41.9861 364.078 40.0793C367.12 38.1498 370.513 37.1851 374.259 37.1851C377.936 37.1851 381.103 37.798 383.759 39.0238C386.414 40.2495 388.435 41.9293 389.819 44.0631C391.204 46.1969 391.897 48.5577 391.897 51.1455C391.897 53.6652 391.386 55.9579 390.364 58.0236C389.343 60.0893 387.924 61.7123 386.108 62.8927C384.315 64.0731 382.317 64.6633 380.115 64.6633C378.98 64.6633 378.072 64.5384 377.391 64.2887C376.733 64.039 375.734 63.5623 374.395 62.8587C373.668 62.4955 373.158 62.2458 372.863 62.1096L368.062 68.3747ZM368.062 64.1866L372.522 58.5343C372.953 58.8748 373.419 59.1586 373.918 59.3856C374.44 59.6126 374.826 59.7261 375.076 59.7261C376.188 59.7261 377.221 59.1132 378.174 57.8874C379.128 56.6616 379.605 54.3689 379.605 51.0093C379.605 47.6497 379.207 44.9938 378.413 43.0416C377.573 41.0894 376.018 40.1133 373.748 40.1133C372.045 40.1133 370.786 40.7262 369.968 41.952C369.128 43.1551 368.595 44.642 368.368 46.4126C368.164 48.1832 368.062 50.4078 368.062 53.0863V54.7888V64.1866Z" fill="#303030"/>
</svg>
