<svg width="29" height="31" viewBox="0 0 29 31" fill="none" xmlns="http://www.w3.org/2000/svg">
<path d="M14.0625 0.252136C9.41006 0.252136 5.625 3.77188 5.625 8.09821C5.625 12.4245 9.41006 15.9443 14.0625 15.9443C18.7149 15.9443 22.5 12.4245 22.5 8.09821C22.5 3.77188 18.7149 0.252136 14.0625 0.252136ZM14.0625 14.2007C10.4439 14.2007 7.5 11.4631 7.5 8.09821C7.5 4.73329 10.4439 1.99571 14.0625 1.99571C17.6811 1.99571 20.625 4.73329 20.625 8.09821C20.625 11.4631 17.6811 14.2007 14.0625 14.2007Z" fill="#333333"/>
<path d="M24.5604 21.07C22.2504 18.889 19.1881 17.6878 15.9375 17.6878H12.1875C8.937 17.6878 5.87462 18.889 3.56462 21.07C1.26594 23.2404 0 26.1054 0 29.1373C0 29.6187 0.41975 30.009 0.9375 30.009H27.1875C27.7053 30.009 28.125 29.6187 28.125 29.1373C28.125 26.1054 26.8591 23.2404 24.5604 21.07ZM1.91625 28.2655C2.38594 23.3204 6.81319 19.4314 12.1875 19.4314H15.9375C21.3118 19.4314 25.7391 23.3204 26.2087 28.2655H1.91625Z" fill="#333333"/>
</svg>
