<svg width="37" height="36" viewBox="0 0 37 36" fill="none" xmlns="http://www.w3.org/2000/svg">
<path d="M0 0H37V36H17.6957H0V0Z" fill="#C5A8D2"/>
<path d="M4.45703 20.1436V18.8804H7.73242V20.1436H4.45703ZM13.1597 23H11.6616V17.0269C11.6616 16.828 11.6637 16.6291 11.668 16.4302C11.6722 16.2313 11.6764 16.0366 11.6807 15.8462C11.6891 15.6558 11.6997 15.4738 11.7124 15.3003C11.6235 15.3976 11.5135 15.5034 11.3823 15.6177C11.2554 15.7319 11.12 15.8504 10.9761 15.9731L9.90967 16.8237L9.16064 15.8779L11.9155 13.7197H13.1597V23ZM22.4971 18.3535C22.4971 19.1025 22.4378 19.7733 22.3193 20.3657C22.2051 20.9539 22.0231 21.4533 21.7734 21.8638C21.5238 22.2743 21.1979 22.5874 20.7959 22.8032C20.3939 23.019 19.9072 23.127 19.3359 23.127C18.6208 23.127 18.0304 22.9386 17.5649 22.562C17.0994 22.1812 16.7546 21.6353 16.5303 20.9243C16.306 20.2091 16.1938 19.3522 16.1938 18.3535C16.1938 17.3548 16.2954 16.5 16.4985 15.7891C16.7059 15.0739 17.0402 14.5259 17.5015 14.145C17.9627 13.7642 18.5742 13.5737 19.3359 13.5737C20.0553 13.5737 20.6478 13.7642 21.1133 14.145C21.583 14.5216 21.93 15.0675 22.1543 15.7827C22.3828 16.4937 22.4971 17.3506 22.4971 18.3535ZM17.6982 18.3535C17.6982 19.1364 17.749 19.7902 17.8506 20.3149C17.9564 20.8397 18.1299 21.2332 18.3711 21.4956C18.6123 21.7537 18.9339 21.8828 19.3359 21.8828C19.738 21.8828 20.0596 21.7537 20.3008 21.4956C20.542 21.2375 20.7155 20.846 20.8213 20.3213C20.9313 19.7965 20.9863 19.1406 20.9863 18.3535C20.9863 17.5749 20.9334 16.9232 20.8276 16.3984C20.7218 15.8737 20.5483 15.4801 20.3071 15.2178C20.0659 14.9512 19.7422 14.8179 19.3359 14.8179C18.9297 14.8179 18.606 14.9512 18.3647 15.2178C18.1278 15.4801 17.9564 15.8737 17.8506 16.3984C17.749 16.9232 17.6982 17.5749 17.6982 18.3535ZM25.6328 13.5864C26.3141 13.5864 26.8304 13.8403 27.1816 14.3481C27.5329 14.8517 27.7085 15.5648 27.7085 16.4873C27.7085 17.4056 27.5392 18.1229 27.2007 18.6392C26.8664 19.1554 26.3438 19.4136 25.6328 19.4136C24.9684 19.4136 24.4627 19.1554 24.1157 18.6392C23.7687 18.1229 23.5952 17.4056 23.5952 16.4873C23.5952 15.5648 23.7581 14.8517 24.084 14.3481C24.4141 13.8403 24.9303 13.5864 25.6328 13.5864ZM25.6392 14.6274C25.3641 14.6274 25.161 14.7819 25.0298 15.0908C24.9028 15.3997 24.8394 15.8674 24.8394 16.4937C24.8394 17.1157 24.9028 17.5854 25.0298 17.9028C25.161 18.216 25.3641 18.3726 25.6392 18.3726C25.9185 18.3726 26.1258 18.216 26.2612 17.9028C26.4009 17.5897 26.4707 17.12 26.4707 16.4937C26.4707 15.8716 26.403 15.4061 26.2676 15.0972C26.1322 14.784 25.9227 14.6274 25.6392 14.6274ZM31.8662 13.7197L26.7183 23H25.4932L30.6411 13.7197H31.8662ZM31.6948 17.2998C32.3761 17.2998 32.8924 17.5537 33.2437 18.0615C33.5991 18.5651 33.7769 19.2782 33.7769 20.2007C33.7769 21.1147 33.6076 21.8299 33.269 22.3462C32.9347 22.8625 32.41 23.1206 31.6948 23.1206C31.0304 23.1206 30.5247 22.8625 30.1777 22.3462C29.8307 21.8299 29.6572 21.1147 29.6572 20.2007C29.6572 19.2782 29.8201 18.5651 30.146 18.0615C30.4761 17.5537 30.9924 17.2998 31.6948 17.2998ZM31.7012 18.3408C31.4261 18.3408 31.223 18.4953 31.0918 18.8042C30.9648 19.1131 30.9014 19.5807 30.9014 20.207C30.9014 20.8291 30.9648 21.2988 31.0918 21.6162C31.223 21.9294 31.4261 22.0859 31.7012 22.0859C31.9847 22.0859 32.1942 21.9315 32.3296 21.6226C32.465 21.3094 32.5327 20.8376 32.5327 20.207C32.5327 19.585 32.465 19.1195 32.3296 18.8105C32.1942 18.4974 31.9847 18.3408 31.7012 18.3408Z" fill="white"/>
</svg>
