<svg width="214" height="106" viewBox="0 0 214 106" fill="none" xmlns="http://www.w3.org/2000/svg">
<path fill-rule="evenodd" clip-rule="evenodd" d="M43.3514 105.403H44.371L42.0258 102.209L44.2181 99.2173H43.2494L41.312 101.905H39.9864V99.2173H39.1196V105.403H39.9864V102.665H41.261L43.3514 105.403ZM48.8577 105.454C50.7441 105.454 52.1207 104.136 52.1207 102.31C52.1207 100.485 50.7441 99.1666 48.8577 99.1666C46.9713 99.1666 45.5437 100.536 45.5437 102.31C45.5437 104.136 46.9713 105.454 48.8577 105.454ZM48.8577 104.693C47.4811 104.693 46.4614 103.679 46.4614 102.31C46.4614 100.941 47.4811 99.9271 48.8577 99.9271C50.2343 99.9271 51.254 100.941 51.254 102.31C51.254 103.679 50.2343 104.693 48.8577 104.693ZM56.8113 99.2173H54.415V105.403H55.2818V103.527H56.8113C58.4428 103.527 59.4115 102.716 59.4115 101.398C59.4115 100.079 58.4428 99.2173 56.8113 99.2173ZM56.8113 102.767H55.2818V99.9779H56.8113C57.933 99.9779 58.5448 100.485 58.5448 101.347C58.5448 102.209 57.933 102.767 56.8113 102.767ZM62.3686 104.643V102.665H65.4787V101.905H62.3686V100.029H65.8356V99.268H61.4509V105.454H65.9375V104.693H62.3686V104.643ZM70.8321 98.8117C71.8008 98.8117 72.3616 98.3553 72.3616 97.5947H71.7498C71.7498 98.0511 71.3929 98.3046 70.8321 98.3046C70.2712 98.3046 69.9653 98.0511 69.9143 97.5947H69.3025C69.3025 98.3553 69.8634 98.8117 70.8321 98.8117ZM68.1809 105.403H68.9966L72.6675 100.637V105.403H73.5343V99.2173H72.7185L69.0476 103.984V99.2173H68.1809V105.403ZM79.0406 105.454C80.0093 105.454 80.8251 105.099 81.3859 104.491L80.8251 103.933C80.3662 104.44 79.7544 104.693 79.0916 104.693C77.715 104.693 76.6443 103.679 76.6443 102.31C76.6443 100.941 77.664 99.9271 79.0916 99.9271C79.7544 99.9271 80.3662 100.181 80.8251 100.637L81.3859 100.079C80.8251 99.4201 80.0093 99.1159 79.0406 99.1159C77.1542 99.1159 75.7776 100.434 75.7776 102.26C75.7776 104.136 77.2051 105.454 79.0406 105.454ZM87.657 105.403H88.6767L86.3314 102.209L88.5237 99.2173H87.555L85.6176 101.905H84.292V99.2173H83.4253V105.403H84.292V102.665H85.5666L87.657 105.403ZM94.9988 105.403H95.9165L93.1124 99.2173H92.2456L89.4415 105.403H90.3592L91.022 103.882H94.336L94.9988 105.403ZM91.3279 103.172L92.6535 100.13L93.9791 103.172H91.3279ZM99.5874 99.2173C98.0579 99.2173 97.0891 100.029 97.0891 101.448C97.0891 102.462 97.599 103.172 98.4657 103.426L97.0891 105.403H98.0069L99.2305 103.578C99.3325 103.578 99.3835 103.578 99.4854 103.578H101.219V105.353H102.086V99.1666H99.5874V99.2173ZM98.0069 101.448C98.0069 100.485 98.6187 100.029 99.6384 100.029H101.219V102.868H99.5874C98.5167 102.868 98.0069 102.361 98.0069 101.448ZM113.761 105.403H114.781L112.436 102.209L114.628 99.2173H113.71L111.773 101.905H110.447V99.2173H109.631V105.403H110.498V102.665H111.773L113.761 105.403ZM119.318 105.454C121.205 105.454 122.581 104.136 122.581 102.31C122.581 100.485 121.205 99.1666 119.318 99.1666C117.432 99.1666 116.004 100.536 116.004 102.31C116.004 104.136 117.381 105.454 119.318 105.454ZM119.318 104.693C117.942 104.693 116.922 103.679 116.922 102.31C116.922 100.941 117.942 99.9271 119.318 99.9271C120.695 99.9271 121.715 100.941 121.715 102.31C121.715 103.679 120.695 104.693 119.318 104.693ZM127.629 105.454C128.598 105.454 129.413 105.099 129.974 104.491L129.413 103.933C128.955 104.44 128.343 104.693 127.68 104.693C126.303 104.693 125.233 103.679 125.233 102.31C125.233 100.941 126.252 99.9271 127.68 99.9271C128.343 99.9271 128.955 100.181 129.413 100.637L129.974 100.079C129.413 99.4201 128.598 99.1159 127.629 99.1159C125.743 99.1159 124.366 100.434 124.366 102.26C124.315 104.136 125.743 105.454 127.629 105.454ZM138.642 105.403V99.2173H137.928L135.379 103.527L132.778 99.2173H132.065V105.403H132.931V100.941L135.175 104.643H135.583L137.826 100.891V105.403H138.642ZM142.262 104.643V102.665H145.372V101.905H142.262V100.029H145.728V99.268H141.344V105.454H145.83V104.693H142.262V104.643ZM152.356 99.2173H147.258V99.9779H149.399V105.353H150.266V99.9779H152.407V99.2173H152.356ZM154.243 105.403H155.059L158.73 100.637V105.403H159.596V99.2173H158.781L155.11 103.984V99.2173H154.243V105.403ZM166.53 105.403H167.55L165.205 102.209L167.397 99.2173H166.428L164.491 101.905H163.165V99.2173H162.298V105.403H163.165V102.665H164.44L166.53 105.403ZM173.923 105.403H174.841L172.037 99.2173H171.17L168.366 105.403H169.283L169.946 103.882H173.26L173.923 105.403ZM170.252 103.172L171.578 100.13L172.903 103.172H170.252Z" fill="#193B1B"/>
<path fill-rule="evenodd" clip-rule="evenodd" d="M11.7921 65.0931H0.626465V65.2452C3.27767 65.2452 3.58357 66.1579 3.63456 68.034V87.606C3.58357 89.4313 3.32865 90.344 0.626465 90.344V90.4961H9.70173V90.344C6.99955 90.344 6.69364 89.4313 6.64265 87.606V78.1749H11.7921C16.8906 78.1749 19.7967 75.4368 19.7967 71.6847C19.7967 67.8312 16.9415 65.0931 11.7921 65.0931ZM10.8744 77.6171H6.69364V65.6508H10.8744C14.7492 65.6508 16.6356 67.4762 16.6356 71.634C16.5847 75.7411 14.6982 77.6171 10.8744 77.6171ZM42.128 88.0116L35.9588 77.9721C39.9866 77.4143 42.2299 74.9298 42.2299 71.634C42.2299 67.8311 39.3238 65.0931 34.2253 65.0931H23.0597V65.2452C25.7109 65.2452 26.0168 66.1579 26.0678 68.034V87.606C26.0168 89.4313 25.7109 90.344 23.0597 90.344V90.4961H32.135V90.344C29.4328 90.344 29.1269 89.4313 29.0759 87.606V78.1749H32.4919L37.8452 86.8454C39.2218 89.0764 39.8337 90.3947 36.8765 90.3947V90.4961H46.2577V90.344C43.9124 90.344 43.1986 89.7355 42.128 88.0116ZM29.0759 77.6171V65.6508H33.2566C37.1315 65.6508 39.0179 67.4762 39.0179 71.634C39.0179 75.7411 37.1315 77.6171 33.2566 77.6171H29.0759ZM59.0039 64.1297C51.3052 64.1297 47.5833 69.9607 47.0225 76.1467C47.0225 76.1974 47.0225 76.096 47.0225 76.1467L50.1835 76.6538C50.4384 70.0621 52.8347 64.6875 59.0039 64.6875C65.224 64.6875 67.6203 70.2143 67.8242 76.958L71.0362 76.1974C71.0362 76.1467 71.0362 76.2481 71.0362 76.1974C70.4244 69.9607 66.7026 64.1297 59.0039 64.1297ZM46.9715 77.2115C46.9715 77.3129 46.9715 77.1608 46.9715 77.2622C46.9715 77.465 46.9715 77.6171 46.9715 77.7693C46.9715 84.513 50.5914 91.4595 59.0039 91.4595C67.0594 91.4595 71.0872 85.02 71.0872 77.6678C71.0872 77.5157 71.0872 77.3636 71.0872 77.2115C71.0872 77.1101 71.0872 77.2115 71.0872 77.1101C70.3225 77.4143 68.589 77.8707 67.8752 78.0228C67.8752 78.1242 67.8752 77.9214 67.8752 78.0228C67.8242 85.0707 65.4789 90.9018 59.0549 90.9018C52.5798 90.9018 50.2345 84.9186 50.2345 77.7693V77.6171C49.2658 77.5157 47.4304 77.3129 46.9715 77.2115ZM100.556 65.0931V65.2452C103.259 65.2452 103.564 66.1579 103.615 67.9833V81.4707C103.615 86.9975 100.199 89.837 96.1717 89.837C92.1439 89.837 88.8299 86.7947 88.8299 82.5355V67.9325C88.8809 66.1072 89.1868 65.1945 91.889 65.1945V65.0424H82.8137V65.1945C85.4649 65.1945 85.7708 66.1072 85.8218 67.9325V82.282C85.8218 87.8595 89.9515 91.4088 94.999 91.4088C100.046 91.4088 104.125 88.2651 104.125 81.6735V67.9325C104.176 66.1072 104.482 65.1945 107.184 65.1945V65.0424H100.556V65.0931ZM129.159 87.9609L120.695 74.2706L125.539 68.9466C127.884 66.4114 128.802 65.1945 131.657 65.1945V65.0424H125.131V65.1945C127.935 65.1945 126.966 66.6649 125.335 68.4396L116.107 78.5805V67.9325C116.158 66.1072 116.464 65.1438 119.166 65.1438V64.9917H110.09V65.1438C112.793 65.1438 113.099 66.0565 113.15 67.9325V87.5045C113.099 89.3299 112.793 90.2426 110.09 90.2426V90.3947H119.166V90.2426C116.464 90.2426 116.158 89.3299 116.107 87.5045V79.3918L118.656 76.603L124.774 86.4905C126.253 88.8229 127.017 90.2426 123.958 90.2426V90.344H133.339V90.2426C130.943 90.2933 130.229 89.6848 129.159 87.9609ZM154.039 87.5553C153.988 89.3806 153.682 90.2933 150.98 90.2933V90.4454H160.106V90.2933C157.404 90.2933 157.098 89.3806 157.098 87.5553V67.9833C157.098 66.1579 157.404 65.1945 160.106 65.1945V65.0424H151.031V65.1945C153.733 65.1945 154.039 66.1072 154.09 67.9833C154.039 74.5242 154.039 81.0144 154.039 87.5553ZM141.803 67.9833C141.854 66.1579 142.16 65.1945 144.811 65.1945V65.0424H135.736V65.1945C138.438 65.1945 138.744 66.1072 138.795 67.9833V87.5553C138.744 89.3806 138.438 90.2933 135.736 90.2933V90.4454H144.811V90.2933C142.16 90.2933 141.854 89.3806 141.803 87.5553C141.803 80.9636 141.803 74.6256 141.803 67.9833ZM175.351 64.1297C167.652 64.1297 163.93 69.9607 163.369 76.1467L166.53 76.603C166.785 70.0114 169.182 64.6367 175.351 64.6367C181.52 64.6367 183.967 70.1129 184.171 76.7552L187.332 75.9946C186.72 69.91 182.999 64.1297 175.351 64.1297ZM163.318 77.3636C163.318 77.6171 163.318 77.5664 163.318 77.82C163.318 84.5637 166.938 91.5102 175.351 91.5102C183.406 91.5102 187.434 85.0707 187.434 77.7186C187.434 77.5157 187.434 77.3636 187.434 77.1608C187.434 77.1101 187.434 77.2115 187.434 77.1101C186.567 77.3636 185.191 77.7186 184.171 77.9214C184.171 78.0228 184.171 77.9721 184.171 78.0735C184.12 85.0707 181.775 90.9018 175.351 90.9018C168.927 90.9018 166.581 85.0707 166.53 78.0228C166.53 77.8707 166.53 77.9214 166.53 77.7693L163.318 77.3636ZM200.639 65.0931H191.003V65.2452C193.705 65.2452 194.011 66.1579 194.062 67.9833V87.5553C194.011 89.3806 193.705 90.344 191.003 90.344V90.4961H200.639C208.95 90.4961 213.334 85.3242 213.385 77.9214V77.6678C213.334 70.265 208.95 65.0931 200.639 65.0931ZM201.353 89.9384H197.07V65.6001H201.353C207.828 65.6001 210.173 70.6706 210.173 77.7693C210.173 84.8679 207.828 89.9384 201.353 89.9384Z" fill="#193B1B"/>
<path fill-rule="evenodd" clip-rule="evenodd" d="M138.795 79.1382C142.874 78.2256 148.941 77.1608 153.428 77.5157C160.871 78.1242 171.782 80.6594 177.492 80.2537C183.203 79.7974 184.987 78.7326 187.587 77.6678V76.9579C184.477 77.8199 181.571 78.8847 176.32 78.7833C171.068 78.7326 163.471 76.4509 153.631 76.096C148.023 75.8932 142.517 77.2622 138.846 78.5298V79.1382H138.795Z" fill="#193B1B"/>
<path fill-rule="evenodd" clip-rule="evenodd" d="M46.8693 78.7833C52.2737 79.6453 56.5564 80.5579 61.196 80.203C65.7846 79.8481 68.6398 78.7326 71.24 77.6171L71.189 76.9072C68.0789 77.7692 64.2551 78.7833 59.9724 78.7326C55.6387 78.6819 52.1717 77.7185 46.8184 76.9579V78.1748L46.8693 78.7833Z" fill="#193B1B"/>
<path fill-rule="evenodd" clip-rule="evenodd" d="M107.032 5.2616C112.691 5.2616 117.84 7.5433 121.562 11.2447C125.284 14.9462 127.578 20.0673 127.578 25.6956C127.578 31.3238 125.284 36.4449 121.562 40.1464C117.84 43.8478 112.691 46.1295 107.032 46.1295C101.372 46.1295 96.2229 43.8478 92.501 40.1464C88.7792 36.4449 86.4849 31.3238 86.4849 25.6956C86.4849 20.0673 88.7792 14.9462 92.501 11.2447C96.2229 7.5433 101.321 5.2616 107.032 5.2616ZM121.205 11.5997C117.585 7.99965 112.538 5.76864 107.032 5.76864C101.474 5.76864 96.4778 7.99965 92.8579 11.5997C89.238 15.1997 86.9947 20.2195 86.9947 25.6956C86.9947 31.2224 89.238 36.1914 92.8579 39.7914C96.4778 43.3915 101.525 45.6225 107.032 45.6225C112.589 45.6225 117.585 43.3915 121.205 39.7914C124.825 36.1914 127.069 31.1717 127.069 25.6956C127.069 20.1688 124.825 15.1997 121.205 11.5997Z" fill="#193B1B"/>
<path fill-rule="evenodd" clip-rule="evenodd" d="M131.249 25.4927V25.6955C131.249 32.3378 128.547 38.3717 124.162 42.7323C119.778 47.0929 113.711 49.7802 107.032 49.7802C100.353 49.7802 94.2855 47.0929 89.9008 42.7323C85.5161 38.3717 82.814 32.3378 82.814 25.6955V25.4927H83.3238V25.6955C83.3238 32.1857 85.975 38.1182 90.2577 42.3774C94.5404 46.6365 100.506 49.2732 107.032 49.2732C113.558 49.2732 119.523 46.6365 123.806 42.3774C128.088 38.1182 130.739 32.1857 130.739 25.6955V25.4927H131.249Z" fill="#193B1B"/>
<path fill-rule="evenodd" clip-rule="evenodd" d="M113.915 23.6673C115.699 21.8927 116.77 19.4589 116.77 16.7715C116.77 16.4166 116.77 16.0616 116.719 15.7574C116.464 15.7574 116.26 15.7574 116.005 15.7574C113.303 15.7574 110.856 16.8729 109.071 18.5969C108.612 19.0532 108.204 19.5096 107.848 20.0673L107.542 20.5744C107.287 20.98 107.083 21.3856 106.93 21.7913L105.961 20.118C105.655 19.7124 105.298 19.3068 104.941 18.9518C103.157 17.1772 100.71 16.1124 98.0075 16.1124C97.7526 16.1124 97.4467 16.1124 97.1917 16.1631C97.1917 16.4166 97.1407 16.6194 97.1407 16.8729C97.1407 19.5603 98.2624 21.9941 99.9959 23.7688C100.914 24.6814 101.729 25.0871 102.8 25.7462C101.729 26.3547 100.914 26.811 100.047 27.673C98.2624 29.4477 97.1917 31.8815 97.1917 34.5688C97.1917 34.9238 97.1917 35.2787 97.2427 35.6336C97.4976 35.6336 97.7016 35.6844 97.9565 35.6844C100.659 35.6844 103.106 34.5688 104.89 32.8449C105.349 32.3885 105.757 31.9322 106.114 31.3745L107.032 29.6505C107.287 30.1575 107.542 30.6646 107.848 31.1209L108 31.3237C108.306 31.7294 108.663 32.135 109.02 32.49C110.805 34.2646 113.252 35.3294 115.954 35.3294C116.209 35.3294 116.515 35.3294 116.77 35.2787C116.77 35.0252 116.821 34.7717 116.821 34.5181C116.821 31.8308 115.699 29.397 113.966 27.6223C113.048 26.7096 112.232 26.304 111.162 25.6448C112.232 24.9857 113.048 24.58 113.915 23.6673ZM116.464 14.1349C116.311 14.1349 116.209 14.1349 116.056 14.1349C112.895 14.1349 110.04 15.4025 108 17.4814C107.644 17.8363 107.287 18.242 106.981 18.6983C106.726 18.3941 106.471 18.0898 106.165 17.7856C104.075 15.7067 101.22 14.4391 98.1094 14.4391C97.9055 14.4391 97.7016 14.4391 97.5486 14.4391C98.0075 12.6644 98.8742 11.1433 100.149 9.87568C101.933 8.10102 104.381 7.03623 107.083 7.03623C109.785 7.03623 112.232 8.15172 114.017 9.87568C115.087 11.0419 115.954 12.5123 116.464 14.1349ZM107.185 32.6421C107.44 32.9463 107.695 33.2505 108 33.5548C110.091 35.6336 112.946 36.9013 116.056 36.9013C116.26 36.9013 116.413 36.9013 116.617 36.9013C116.158 38.6252 115.291 40.1971 114.017 41.414C112.232 43.1886 109.785 44.2534 107.083 44.2534C104.381 44.2534 101.933 43.1379 100.149 41.414C98.9762 40.2478 98.1095 38.828 97.6506 37.2055C97.8035 37.2055 97.9055 37.2055 98.0585 37.2055C101.22 37.2055 104.075 35.9379 106.114 33.859C106.471 33.4533 106.828 33.0477 107.185 32.6421ZM118.146 14.3377C120.441 14.7433 122.531 15.9095 124.112 17.4814C126.202 19.5603 127.477 22.3997 127.477 25.4927C127.477 28.6364 126.202 31.4759 124.112 33.504C122.531 35.0759 120.543 36.1914 118.248 36.597C117.79 38.8787 116.668 40.9069 115.087 42.4788C112.997 44.5577 110.142 45.8253 107.032 45.8253C103.871 45.8253 101.016 44.5577 98.9762 42.4788C97.4467 40.9576 96.376 39.0816 95.9171 36.952C93.6228 36.5463 91.5324 35.3801 89.9519 33.8083C87.8615 31.7294 86.5869 28.8899 86.5869 25.7969C86.5869 22.6533 87.8615 19.8138 89.9519 17.7856C91.5324 16.2138 93.5208 15.149 95.7642 14.6926C96.223 12.4109 97.3447 10.3827 98.9252 8.81089C101.016 6.73201 103.871 5.46439 106.981 5.46439C110.142 5.46439 112.997 6.73201 115.036 8.81089C116.566 10.2306 117.688 12.1574 118.146 14.3377ZM118.503 34.9238C118.503 34.7717 118.503 34.6195 118.503 34.4674C118.503 31.3237 117.229 28.4843 115.138 26.4561C114.832 26.1519 114.527 25.8983 114.221 25.5941C114.527 25.3406 114.832 25.0871 115.087 24.8335C117.178 22.7547 118.452 19.9152 118.452 16.8222C118.452 16.5687 118.452 16.3152 118.401 16.0617C120.186 16.518 121.766 17.38 122.99 18.6476C124.774 20.4223 125.845 22.8561 125.845 25.5434C125.845 28.2308 124.723 30.6646 122.99 32.4392C121.766 33.6054 120.237 34.5181 118.503 34.9238ZM105.808 20.473C105.859 20.3208 105.961 20.2194 106.012 20.0673L105.808 20.473ZM95.5602 16.3659C95.5602 16.518 95.5602 16.6701 95.5602 16.8222C95.5602 19.9659 96.8348 22.8054 98.9252 24.8335C99.2311 25.1378 99.537 25.3913 99.8429 25.6955C99.537 25.9491 99.2311 26.2026 98.9762 26.4561C96.8858 28.535 95.6112 31.3744 95.6112 34.4674C95.6112 34.721 95.6112 34.9745 95.6622 35.2787C93.9287 34.8224 92.3482 33.9604 91.0736 32.6928C89.2891 30.9181 88.2184 28.4843 88.2184 25.7969C88.2184 23.1096 89.3401 20.6758 91.0736 18.9011C92.2972 17.6842 93.8777 16.7715 95.5602 16.3659Z" fill="#193B1B"/>
<path fill-rule="evenodd" clip-rule="evenodd" d="M131.249 25.4927V25.6955C131.249 32.3378 128.547 38.3717 124.162 42.7323C119.778 47.0929 113.711 49.7802 107.032 49.7802C100.353 49.7802 94.2855 47.0929 89.9008 42.7323C85.5161 38.3717 82.814 32.3378 82.814 25.6955V25.4927H83.3238V25.6955C83.3238 32.1857 85.975 38.1182 90.2577 42.3774C94.5404 46.6365 100.506 49.2732 107.032 49.2732C113.558 49.2732 119.523 46.6365 123.806 42.3774C128.088 38.1182 130.739 32.1857 130.739 25.6955V25.4927H131.249Z" fill="#193B1B"/>
<path d="M106.573 2.37142C107.079 2.37142 107.49 1.9628 107.49 1.45874C107.49 0.954682 107.079 0.546051 106.573 0.546051C106.066 0.546051 105.655 0.954682 105.655 1.45874C105.655 1.9628 106.066 2.37142 106.573 2.37142Z" fill="#193B1B"/>
<path d="M110.499 2.62493C111.006 2.62493 111.416 2.21631 111.416 1.71225C111.416 1.20819 111.006 0.799561 110.499 0.799561C109.992 0.799561 109.581 1.20819 109.581 1.71225C109.581 2.21631 109.992 2.62493 110.499 2.62493Z" fill="#193B1B"/>
<path d="M102.851 2.72634C103.358 2.72634 103.769 2.31771 103.769 1.81365C103.769 1.30959 103.358 0.90097 102.851 0.90097C102.344 0.90097 101.933 1.30959 101.933 1.81365C101.933 2.31771 102.344 2.72634 102.851 2.72634Z" fill="#193B1B"/>
</svg>
