<svg width="37" height="36" viewBox="0 0 37 36" fill="none" xmlns="http://www.w3.org/2000/svg">
<path d="M0 0H37V36H17.6957H0V0Z" fill="#53A981"/>
<path d="M12.9629 23H11.0903L6.54541 15.5923H6.48828C6.50521 15.842 6.52002 16.1064 6.53271 16.3857C6.54964 16.665 6.56234 16.9528 6.5708 17.249C6.5835 17.5452 6.59408 17.8457 6.60254 18.1504V23H5.21875V13.7197H7.07861L11.6172 21.0767H11.6616C11.6532 20.8608 11.6426 20.6133 11.6299 20.334C11.6172 20.0547 11.6045 19.7669 11.5918 19.4707C11.5833 19.1702 11.577 18.8804 11.5728 18.6011V13.7197H12.9629V23ZM20.6562 23H15.4004V13.7197H20.6562V15.002H16.9238V17.522H20.4214V18.7979H16.9238V21.7114H20.6562V23ZM33.6372 13.7197L31.2124 23H29.5493L28.0005 17.4395C27.9624 17.304 27.9201 17.1432 27.8735 16.957C27.827 16.7708 27.7804 16.5804 27.7339 16.3857C27.6916 16.1911 27.6535 16.0133 27.6196 15.8525C27.59 15.6875 27.5688 15.5605 27.5562 15.4717C27.5477 15.5605 27.5286 15.6854 27.499 15.8462C27.4694 16.007 27.4334 16.1847 27.3911 16.3794C27.353 16.5698 27.3107 16.7603 27.2642 16.9507C27.2176 17.1369 27.1753 17.3019 27.1372 17.4458L25.6138 23H23.957L21.5386 13.7197H23.0684L24.4077 19.1597C24.45 19.3332 24.4924 19.5215 24.5347 19.7246C24.5812 19.9235 24.6235 20.1245 24.6616 20.3276C24.7039 20.5308 24.742 20.7297 24.7759 20.9243C24.8097 21.1147 24.8372 21.2882 24.8584 21.4448C24.8796 21.284 24.9071 21.1063 24.9409 20.9116C24.9748 20.7127 25.0107 20.5117 25.0488 20.3086C25.0911 20.1012 25.1335 19.9023 25.1758 19.7119C25.2223 19.5215 25.2689 19.3501 25.3154 19.1978L26.8262 13.7197H28.3115L29.854 19.2168C29.9006 19.3734 29.945 19.549 29.9873 19.7437C30.0339 19.9383 30.0783 20.1372 30.1206 20.3403C30.1629 20.5435 30.201 20.7402 30.2349 20.9307C30.2687 21.1211 30.2962 21.2925 30.3174 21.4448C30.347 21.2375 30.3851 21.0005 30.4316 20.7339C30.4782 20.4673 30.5311 20.1965 30.5903 19.9214C30.6496 19.6463 30.7088 19.3924 30.7681 19.1597L32.1011 13.7197H33.6372Z" fill="white"/>
</svg>
