<svg width="40" height="38" viewBox="0 0 40 38" fill="none" xmlns="http://www.w3.org/2000/svg">
<path d="M10.7 24.1746C11.0736 23.9591 11.2014 23.4809 10.986 23.1073C10.7702 22.7341 10.2923 22.6059 9.91879 22.8214C9.54526 23.0372 9.41708 23.5154 9.63284 23.8886C9.8483 24.2621 10.3265 24.3903 10.7 24.1746Z" fill="#2B2B2B"/>
<path d="M7.49895 29.5667L11.4333 36.3816C12.2823 37.8537 14.1921 38.3988 15.7024 37.5257C17.1968 36.662 17.7104 34.7525 16.8459 33.2569L14.5021 29.1968L16.5319 28.025C16.9054 27.8089 17.0336 27.3313 16.8178 26.9578L15.8019 25.1981C15.923 25.1746 16.7195 25.0184 30.7659 22.2629C32.5023 22.1686 33.5427 20.2695 32.6656 18.7513L30.0691 14.2542L31.7284 11.7411C31.8913 11.4939 31.9011 11.1762 31.7531 10.9198L30.1906 8.21355C30.0426 7.9572 29.7615 7.80705 29.467 7.82445L26.4614 8.00481L23.579 3.01213C23.1615 2.28887 22.4135 1.85094 21.5785 1.84056C21.5685 1.84026 21.5587 1.84026 21.5486 1.84026C20.7418 1.84026 20.0093 2.24187 19.5754 2.92088L9.36968 15.922L2.73485 19.7526C0.125293 21.2586 -0.778638 24.6064 0.733203 27.2229C2.11443 29.6155 5.02642 30.5567 7.49895 29.5667ZM15.493 34.0384C15.9246 34.7849 15.6691 35.7401 14.9205 36.1725C14.1695 36.6068 13.2131 36.3401 12.7864 35.6006L8.88018 28.834L11.5865 27.2715C16.1074 35.1029 15.4204 33.913 15.493 34.0384ZM13.7209 27.8434L12.9396 26.4902L14.2928 25.709L15.074 27.0621L13.7209 27.8434ZM29.0788 9.41289L30.1586 11.283L29.1957 12.7411L27.3348 9.51756L29.0788 9.41289ZM20.8821 3.77751C21.0918 3.43449 21.4244 3.39909 21.5593 3.40276C21.6927 3.40428 22.025 3.44579 22.2255 3.79308L31.3124 19.5325C31.6084 20.0449 31.2486 20.6891 30.6551 20.7038C30.5486 20.7062 30.4994 20.7255 30.2266 20.7764L20.6145 4.12755C20.8162 3.86815 20.8422 3.84313 20.8821 3.77751ZM19.5748 5.45201L28.6058 21.0944L14.9761 23.7677L10.8318 16.5897L19.5748 5.45201ZM2.08635 26.4417C1.74334 25.8481 1.56206 25.1743 1.56206 24.4925C1.56206 23.0991 2.31096 21.8015 3.5161 21.1057L9.60527 17.5901L13.5115 24.3558L7.42235 27.8718C5.55681 28.9484 3.16332 28.3069 2.08635 26.4417Z" fill="#2B2B2B"/>
<path d="M8.2797 24.6698C8.06394 24.2963 7.58603 24.1681 7.2125 24.3839L5.85935 25.1651C5.48642 25.3806 5.0076 25.2521 4.79215 24.8792C4.57639 24.5056 4.09848 24.3775 3.72495 24.5932C3.35141 24.809 3.22324 25.2869 3.439 25.6604C4.08201 26.7743 5.51633 27.1671 6.6406 26.5183L7.99375 25.737C8.36728 25.5213 8.49546 25.0437 8.2797 24.6698Z" fill="#2B2B2B"/>
<path d="M38.8391 3.51141L34.4858 5.93389C34.1089 6.14385 33.9731 6.61962 34.1831 6.99651C34.3924 7.3731 34.8679 7.50951 35.2457 7.29925L39.5987 4.87676C39.9759 4.6668 40.1114 4.19103 39.9014 3.81414C39.6918 3.43694 39.216 3.30145 38.8391 3.51141Z" fill="#2B2B2B"/>
<path d="M38.3819 11.6028L35.3634 10.7941C34.9466 10.6824 34.5181 10.9296 34.4064 11.3465C34.2947 11.7633 34.5422 12.1915 34.9591 12.3032L37.9779 13.1119C38.3972 13.2245 38.8235 12.9734 38.9346 12.5595C39.0463 12.1427 38.7988 11.7142 38.3819 11.6028Z" fill="#2B2B2B"/>
<path d="M30.7971 0.67295L29.9875 3.69175C29.8758 4.10862 30.123 4.53678 30.5399 4.64878C30.9564 4.76017 31.3849 4.51358 31.4969 4.09641L32.3062 1.07761C32.4179 0.660743 32.1707 0.232277 31.7538 0.120582C31.3373 0.00888804 30.9088 0.25608 30.7971 0.67295Z" fill="#2B2B2B"/>
</svg>
