<svg width="38" height="38" viewBox="0 0 38 38" fill="none" xmlns="http://www.w3.org/2000/svg">
<path d="M10.25 2.75H11.5V4H10.25V2.75Z" fill="#2B2B2B"/>
<path d="M12.75 2.75H17.75V4H12.75V2.75Z" fill="#2B2B2B"/>
<path d="M24.6246 27.125C24.6236 27.9535 24.2941 28.7478 23.7082 29.3336C23.1224 29.9194 22.3281 30.249 21.4996 30.25H10.0821L12.2309 26.5288C12.1629 26.7203 12.127 26.9218 12.1246 27.125C12.1246 27.6223 12.3222 28.0992 12.6738 28.4508C13.0254 28.8025 13.5024 29 13.9996 29H16.4996C16.9969 29 17.4738 28.8025 17.8255 28.4508C18.1771 28.0992 18.3746 27.6223 18.3746 27.125C18.3746 26.6277 18.1771 26.1508 17.8255 25.7992C17.4738 25.4475 16.9969 25.25 16.4996 25.25H13.9996C13.702 25.2506 13.4089 25.3221 13.1445 25.4588C12.8801 25.5954 12.6522 25.7932 12.4796 26.0356C12.7278 25.4509 12.7436 24.7935 12.5236 24.1976C12.3036 23.6017 11.8645 23.1122 11.2959 22.829C10.7273 22.5458 10.072 22.4903 9.46387 22.6738C8.85572 22.8572 8.34051 23.2659 8.02338 23.8162L5.89838 27.4987C5.88296 27.3748 5.87503 27.2499 5.87463 27.125V4.625C5.87563 3.7965 6.20518 3.00222 6.79102 2.41639C7.37686 1.83055 8.17114 1.50099 8.99963 1.5H21.4996C22.0479 1.50127 22.5863 1.64621 23.0611 1.92036C23.536 2.19451 23.9307 2.5883 24.2059 3.0625L25.2878 2.4375C24.9025 1.77371 24.35 1.22246 23.6854 0.838655C23.0207 0.454851 22.2671 0.251893 21.4996 0.25H8.99963C7.83972 0.251323 6.72769 0.712685 5.9075 1.53287C5.08732 2.35305 4.62596 3.46508 4.62463 4.625V16.6875C4.2269 16.8726 3.90665 17.1913 3.71963 17.5881L0.882759 23.7425C0.462799 24.6452 0.246646 25.6294 0.249634 26.625V37.75H1.49963V26.625C1.49685 25.8109 1.67354 25.0062 2.01713 24.2681L4.62463 18.6106V27.125C4.62421 27.8715 4.81553 28.6056 5.18026 29.2569C5.22731 29.3623 5.30263 29.4525 5.39785 29.5177C5.49307 29.5829 5.60449 29.6205 5.71975 29.6263C5.83501 29.632 5.94962 29.6058 6.05087 29.5504C6.15212 29.495 6.23606 29.4127 6.29338 29.3125L9.10588 24.4412C9.27282 24.1565 9.54562 23.9493 9.86474 23.865C10.1839 23.7806 10.5234 23.8259 10.8093 23.9909C11.0951 24.156 11.3041 24.4274 11.3906 24.7459C11.4771 25.0645 11.434 25.4043 11.2709 25.6912L8.45838 30.5625C8.4025 30.6592 8.37355 30.7691 8.37454 30.8808C8.37553 30.9924 8.40642 31.1018 8.46401 31.1975L9.80276 33.4225C10.0948 33.9092 10.2492 34.4661 10.2496 35.0337V37.7438H11.4996V35.0337C11.4995 34.2393 11.2835 33.4599 10.8746 32.7788L10.1053 31.5H21.4996C22.6595 31.4987 23.7716 31.0373 24.5918 30.2171C25.412 29.3969 25.8733 28.2849 25.8746 27.125V24H24.6246V27.125ZM13.9996 26.5H16.4996C16.6654 26.5 16.8244 26.5658 16.9416 26.6831C17.0588 26.8003 17.1246 26.9592 17.1246 27.125C17.1246 27.2908 17.0588 27.4497 16.9416 27.5669C16.8244 27.6842 16.6654 27.75 16.4996 27.75H13.9996C13.8339 27.75 13.6749 27.6842 13.5577 27.5669C13.4405 27.4497 13.3746 27.2908 13.3746 27.125C13.3746 26.9592 13.4405 26.8003 13.5577 26.6831C13.6749 26.5658 13.8339 26.5 13.9996 26.5Z" fill="#2B2B2B"/>
<path d="M35.9438 7.63742C34.5381 5.62547 32.4417 4.20069 30.0536 3.63437C27.6655 3.06805 25.1526 3.39974 22.9932 4.56628C20.8338 5.73282 19.1788 7.65274 18.3434 9.9605C17.5079 12.2682 17.5503 14.8027 18.4625 17.0812L16.35 20.6624C16.2891 20.7655 16.259 20.8839 16.2635 21.0036C16.2679 21.1233 16.3066 21.2391 16.375 21.3374C16.4452 21.4355 16.5417 21.5117 16.6535 21.557C16.7652 21.6024 16.8876 21.6151 17.0063 21.5937L21.0875 20.8312C22.4733 22.0735 24.1795 22.9027 26.0125 23.2249C26.5885 23.3239 27.1718 23.3741 27.7563 23.3749C29.5856 23.3744 31.3798 22.8721 32.9434 21.9227C34.5071 20.9732 35.7804 19.6131 36.6247 17.9902C37.469 16.3674 37.852 14.544 37.7319 12.7186C37.6118 10.8932 36.9934 9.13571 35.9438 7.63742ZM36.3688 14.8937C36.0939 16.4528 35.4011 17.9081 34.3643 19.1046C33.3276 20.3011 31.9856 21.1938 30.4814 21.6877C28.9772 22.1816 27.3673 22.2582 25.823 21.9092C24.2788 21.5603 22.8581 20.7989 21.7125 19.7062C21.5953 19.5974 21.4412 19.5371 21.2813 19.5374C21.2437 19.5364 21.206 19.5385 21.1688 19.5437L18.125 20.1124L19.7 17.4499C19.749 17.3642 19.7778 17.2684 19.7843 17.1699C19.7908 17.0713 19.7748 16.9726 19.7375 16.8812C19.0404 15.3037 18.8294 13.5542 19.1313 11.8562C19.5341 9.57034 20.8284 7.53814 22.7296 6.20663C23.6709 5.54733 24.7329 5.0799 25.8549 4.83103C26.9769 4.58216 28.1369 4.55673 29.2688 4.75617C30.4006 4.95562 31.4821 5.37604 32.4514 5.99344C33.4208 6.61083 34.259 7.41311 34.9183 8.35446C35.5776 9.29582 36.045 10.3578 36.2939 11.4798C36.5428 12.6018 36.5682 13.7618 36.3688 14.8937Z" fill="#2B2B2B"/>
<path d="M32.125 9.625H30.25V9C30.25 8.33696 29.9866 7.70107 29.5178 7.23223C29.0489 6.76339 28.413 6.5 27.75 6.5C27.087 6.5 26.4511 6.76339 25.9822 7.23223C25.5134 7.70107 25.25 8.33696 25.25 9V9.625H23.375C23.2092 9.625 23.0503 9.69085 22.9331 9.80806C22.8158 9.92527 22.75 10.0842 22.75 10.25V17.75C22.7515 18.2468 22.9495 18.7229 23.3008 19.0742C23.6521 19.4255 24.1282 19.6235 24.625 19.625H30.875C31.3718 19.6235 31.8479 19.4255 32.1992 19.0742C32.5505 18.7229 32.7485 18.2468 32.75 17.75V10.25C32.75 10.0842 32.6842 9.92527 32.5669 9.80806C32.4497 9.69085 32.2908 9.625 32.125 9.625ZM26.5 9C26.5 8.66848 26.6317 8.35054 26.8661 8.11612C27.1005 7.8817 27.4185 7.75 27.75 7.75C28.0815 7.75 28.3995 7.8817 28.6339 8.11612C28.8683 8.35054 29 8.66848 29 9V9.625H26.5V9ZM31.5 17.75C31.5 17.9158 31.4342 18.0747 31.3169 18.1919C31.1997 18.3092 31.0408 18.375 30.875 18.375H24.625C24.4592 18.375 24.3003 18.3092 24.1831 18.1919C24.0658 18.0747 24 17.9158 24 17.75V17.125H31.5V17.75ZM31.5 15.875H24V10.875H25.25V12.125H26.5V10.875H29V12.125H30.25V10.875H31.5V15.875Z" fill="#2B2B2B"/>
<path d="M12.9319 8.55811L11.9694 9.5206C11.3215 9.0918 10.5375 8.91888 9.76936 9.0354C9.00123 9.15191 8.30374 9.54955 7.81218 10.1512C7.32062 10.7528 7.07002 11.5156 7.10899 12.2915C7.14796 13.0675 7.47372 13.8013 8.02308 14.3507C8.57245 14.9 9.30626 15.2258 10.0822 15.2647C10.8581 15.3037 11.6209 15.0531 12.2226 14.5616C12.8242 14.07 13.2218 13.3725 13.3383 12.6044C13.4549 11.8362 13.2819 11.0522 12.8531 10.4044L13.8156 9.44185L12.9319 8.55811ZM12.1238 12.125C12.1238 12.4958 12.0138 12.8583 11.8078 13.1667C11.6017 13.475 11.3089 13.7153 10.9663 13.8572C10.6237 13.9992 10.2467 14.0363 9.88297 13.9639C9.51925 13.8916 9.18516 13.713 8.92294 13.4508C8.66071 13.1886 8.48214 12.8545 8.40979 12.4908C8.33744 12.1271 8.37457 11.7501 8.51649 11.4074C8.6584 11.0648 8.89873 10.772 9.20707 10.566C9.51541 10.3599 9.87792 10.25 10.2488 10.25C10.5272 10.2511 10.8018 10.3152 11.0519 10.4375L9.18189 12.3075L10.0656 13.1912L11.9363 11.3219C12.0586 11.572 12.1227 11.8465 12.1238 12.125Z" fill="#2B2B2B"/>
<path d="M14.625 10.25H17.125V11.5H14.625V10.25Z" fill="#2B2B2B"/>
<path d="M14.625 12.75H17.125V14H14.625V12.75Z" fill="#2B2B2B"/>
</svg>
