<svg width="40" height="34" viewBox="0 0 40 34" fill="none" xmlns="http://www.w3.org/2000/svg">
<path d="M38.2431 0.046875H1.7569C0.786743 0.046875 0 0.833618 0 1.80377V26.1248C0 27.0952 0.786743 27.8817 1.7569 27.8817H15.6824V30.9523H14.024C13.1891 30.9523 12.5119 31.6292 12.5119 32.4645C12.5119 33.2994 13.1891 33.9766 14.024 33.9766H25.976C26.8112 33.9766 27.4881 33.2994 27.4881 32.4645C27.4881 31.6292 26.8109 30.9523 25.976 30.9523H24.3176V27.8817H38.2431C39.2133 27.8817 40 27.0952 40 26.1248V1.80377C40 0.833618 39.2133 0.046875 38.2431 0.046875V0.046875ZM26.3168 32.4645C26.3168 32.6528 26.1642 32.8054 25.976 32.8054H14.024C13.8358 32.8054 13.6832 32.6528 13.6832 32.4645C13.6832 32.2762 13.8358 32.1236 14.024 32.1236H25.9756C26.1639 32.1236 26.3168 32.2762 26.3168 32.4645ZM38.8287 26.1248C38.8287 26.4476 38.566 26.7104 38.2431 26.7104H19.8828C19.5593 26.7104 19.2972 26.9725 19.2972 27.296C19.2972 27.6195 19.5593 27.8817 19.8828 27.8817H23.1461V30.9523H16.8539V27.8817H17.1497C17.4731 27.8817 17.7353 27.6195 17.7353 27.296C17.7353 26.9725 17.4731 26.7104 17.1497 26.7104H1.7569C1.43402 26.7104 1.17126 26.4476 1.17126 26.1248V1.80377C1.17126 1.4809 1.43402 1.21814 1.7569 1.21814H38.2431C38.566 1.21814 38.8287 1.4809 38.8287 1.80377V26.1248Z" fill="#2B2B2B"/>
<path d="M36.6326 2.68506H3.36658C2.82855 2.68506 2.39062 3.12268 2.39062 3.66101V23.2475C2.39062 23.7855 2.82855 24.2234 3.36658 24.2234H36.6326C37.1706 24.2234 37.6085 23.7855 37.6085 23.2475V3.66101C37.6085 3.12268 37.1706 2.68506 36.6326 2.68506ZM7.80414 3.85632V10.3767H5.74847C5.42468 10.3767 5.16254 10.6389 5.16254 10.9623C5.16254 11.2858 5.42468 11.548 5.74847 11.548H7.80414V14.8256C7.80414 14.9333 7.71655 15.0209 7.60883 15.0209H3.56189V3.85632H7.80414ZM3.56189 23.0522V16.1921H7.60883C8.3623 16.1921 8.9754 15.579 8.9754 14.8256V3.85632H36.4373V14.9882H32.0772C31.9698 14.9882 31.8822 14.9006 31.8822 14.7929V5.96906C31.8822 5.64557 31.6198 5.38312 31.2963 5.38312C30.9728 5.38312 30.7106 5.64526 30.7106 5.96906V14.7929C30.7106 15.5464 31.3237 16.1595 32.0772 16.1595H36.4373V23.0522H3.56189Z" fill="#2B2B2B"/>
<path d="M35.3865 20.1842H30.6474C30.3959 19.3575 29.6269 18.7542 28.719 18.7542C27.8111 18.7542 27.0417 19.3575 26.7903 20.1842H12.3652C12.1138 19.3575 11.3444 18.7542 10.4365 18.7542C9.52893 18.7542 8.75958 19.3575 8.50812 20.1842H4.89423C4.57074 20.1842 4.30859 20.4464 4.30859 20.7698C4.30859 21.0933 4.57074 21.3558 4.89423 21.3558H8.50781C8.75928 22.1825 9.52863 22.7858 10.4365 22.7858C11.3444 22.7858 12.1138 22.1825 12.3652 21.3558H26.7903C27.0417 22.1825 27.8111 22.7858 28.7187 22.7858C29.6266 22.7858 30.3959 22.1825 30.6474 21.3558H35.3862C35.7097 21.3558 35.9718 21.0933 35.9718 20.7698C35.9721 20.4464 35.7097 20.1842 35.3865 20.1842ZM10.4365 21.6143C9.97113 21.6143 9.59241 21.2355 9.59241 20.7698C9.59241 20.3041 9.97113 19.9254 10.4365 19.9254C10.9022 19.9254 11.2809 20.3041 11.2809 20.7698C11.2809 21.2355 10.9022 21.6143 10.4365 21.6143ZM28.719 21.6143C28.2533 21.6143 27.8746 21.2355 27.8746 20.7698C27.8746 20.3041 28.2533 19.9254 28.719 19.9254C29.1844 19.9254 29.5631 20.3041 29.5631 20.7698C29.5631 21.2355 29.1844 21.6143 28.719 21.6143Z" fill="#2B2B2B"/>
<path d="M35.3865 17.3148H18.3061C18.0546 16.4881 17.2853 15.8848 16.3774 15.8848C15.4698 15.8848 14.7004 16.4881 14.449 17.3148H4.89423C4.57074 17.3148 4.30859 17.577 4.30859 17.9005C4.30859 18.2242 4.57074 18.4864 4.89423 18.4864H14.449C14.7004 19.3131 15.4698 19.9164 16.3774 19.9164C17.2853 19.9164 18.0546 19.3131 18.3061 18.4864H35.3862C35.7097 18.4864 35.9721 18.2242 35.9721 17.9005C35.9721 17.577 35.7097 17.3148 35.3865 17.3148ZM16.3774 18.7449C15.9123 18.7449 15.5336 18.3665 15.5333 17.9014C15.5333 17.9011 15.5333 17.9008 15.5333 17.9005C15.5333 17.9001 15.5333 17.9001 15.5333 17.8998C15.5336 17.4344 15.9123 17.056 16.3774 17.056C16.8431 17.056 17.2218 17.4348 17.2218 17.9005C17.2218 18.3661 16.8431 18.7449 16.3774 18.7449Z" fill="#2B2B2B"/>
<path d="M16.7868 15.379C17.0007 15.5026 17.2354 15.5643 17.4704 15.5643C17.7048 15.5643 17.9395 15.5026 18.1534 15.379L25.3009 11.2524C25.7288 11.0055 25.9842 10.563 25.9842 10.069C25.9842 9.57518 25.7288 9.13268 25.3009 8.88548L18.1534 4.7589C17.7258 4.51201 17.2147 4.51201 16.7868 4.7589C16.3589 5.00609 16.1035 5.44859 16.1035 5.94237V14.1955C16.1035 14.6896 16.3589 15.1321 16.7868 15.379ZM17.2751 5.94237C17.2751 5.84441 17.3361 5.79436 17.3724 5.7733C17.3941 5.76079 17.4286 5.74614 17.4707 5.74614C17.5 5.74614 17.533 5.75316 17.5677 5.7733L24.7153 9.89989C24.8001 9.94872 24.8126 10.0268 24.8126 10.069C24.8126 10.1111 24.8001 10.1889 24.7153 10.238L17.5677 14.3646C17.4829 14.4137 17.4091 14.3857 17.3724 14.3646C17.3361 14.3436 17.2751 14.2935 17.2751 14.1955V5.94237Z" fill="#2B2B2B"/>
</svg>
