<svg width="40" height="40" viewBox="0 0 40 40" fill="none" xmlns="http://www.w3.org/2000/svg">
<path d="M1.3 27.255C1.32187 27.53 1.52125 27.7581 1.79125 27.8162L3.96937 28.2862C4.04625 28.6575 4.14375 29.0237 4.26187 29.3812L2.61313 30.875C2.40875 31.06 2.35 31.3575 2.46875 31.6069C2.77 32.2406 3.10563 32.8262 3.46625 33.3475C3.6225 33.5737 3.90875 33.6712 4.17188 33.5869L6.28875 32.905C6.54188 33.1887 6.81125 33.4581 7.095 33.7112L6.41313 35.8281C6.32875 36.09 6.42562 36.3769 6.6525 36.5337C7.17375 36.8944 7.75938 37.23 8.39313 37.5312C8.64313 37.65 8.94 37.5906 9.125 37.3869L10.6187 35.7381C10.9769 35.8556 11.3431 35.9537 11.7144 36.0306L12.1844 38.2087C12.2425 38.4781 12.4706 38.6775 12.745 38.7C13.0775 38.7262 13.4106 38.75 13.75 38.75C14.0894 38.75 14.4225 38.7262 14.755 38.7C15.03 38.6781 15.2581 38.4787 15.3162 38.2087L15.7862 36.0306C16.1575 35.9537 16.5244 35.8562 16.8819 35.7381L18.3756 37.3869C18.5612 37.5912 18.8587 37.6506 19.1075 37.5312C19.7413 37.23 20.3269 36.8937 20.8481 36.5337C21.075 36.3769 21.1719 36.09 21.0875 35.8281L20.4056 33.7112C20.6894 33.4581 20.9587 33.1887 21.2119 32.9056L23.3288 33.5875C23.5906 33.6725 23.8775 33.575 24.0344 33.3481C24.395 32.8269 24.7306 32.2412 25.0319 31.6075C25.1506 31.3581 25.0919 31.0606 24.8875 30.8756L23.2388 29.3819C23.3562 29.0237 23.4544 28.6575 23.5312 28.2862L25.7094 27.8162C25.9787 27.7581 26.1781 27.53 26.2006 27.2556C26.2263 26.9225 26.25 26.5894 26.25 26.25C26.25 25.9106 26.2262 25.5775 26.2 25.245C26.1781 24.97 25.9788 24.7419 25.7087 24.6837L23.5306 24.2137C23.4537 23.8425 23.3563 23.4756 23.2381 23.1181L24.8869 21.6244C25.0912 21.4394 25.15 21.1419 25.0312 20.8925C24.73 20.2587 24.3937 19.6731 24.0337 19.1519C23.8769 18.925 23.59 18.8275 23.3281 18.9125L21.2113 19.5944C20.9581 19.3106 20.6887 19.0412 20.405 18.7881L21.0869 16.6712C21.1712 16.4094 21.0744 16.1225 20.8475 15.9656C20.3263 15.605 19.7406 15.2694 19.1069 14.9681C18.8569 14.8487 18.56 14.9081 18.375 15.1125L16.8813 16.7612C16.5231 16.6437 16.1569 16.5456 15.7856 16.4687L15.3156 14.2906C15.2575 14.0212 15.0294 13.8219 14.755 13.7994C14.0894 13.7456 13.41 13.7469 12.7444 13.7994C12.4694 13.8212 12.2413 14.0206 12.1831 14.2906L11.7131 16.4687C11.3419 16.5456 10.9756 16.6431 10.6181 16.7612L9.12437 15.1125C8.93937 14.9081 8.6425 14.8494 8.3925 14.9681C7.75875 15.2694 7.17312 15.605 6.65187 15.9656C6.425 16.1225 6.32812 16.4094 6.4125 16.6712L7.09437 18.7881C6.81063 19.0412 6.54125 19.3106 6.28813 19.5944L4.17188 18.9125C3.90938 18.8275 3.6225 18.925 3.46625 19.1519C3.10563 19.6731 2.77 20.2587 2.46875 20.8925C2.35 21.1419 2.40875 21.4394 2.61313 21.6244L4.26187 23.1181C4.14437 23.4762 4.04625 23.8425 3.96937 24.2137L1.79125 24.6837C1.52187 24.7419 1.3225 24.97 1.3 25.2444C1.27375 25.5775 1.25 25.9106 1.25 26.25C1.25 26.5894 1.27375 26.9225 1.3 27.255ZM2.51312 25.8069L4.63937 25.3475C4.89062 25.2931 5.08313 25.0906 5.12438 24.8369C5.21813 24.2606 5.36938 23.695 5.57375 23.155C5.665 22.915 5.59938 22.6431 5.40875 22.4706L3.80312 21.0156C3.94313 20.7475 4.08938 20.4906 4.24062 20.2475L6.30063 20.9112C6.54438 20.9894 6.81312 20.9112 6.97625 20.7125C7.345 20.2612 7.76125 19.8456 8.2125 19.4762C8.41125 19.3137 8.49062 19.0456 8.41125 18.8006L7.7475 16.7406C7.99062 16.5887 8.24687 16.4425 8.51562 16.3031L9.97062 17.9094C10.1438 18.1 10.4163 18.1656 10.6556 18.0744C11.1944 17.87 11.76 17.7187 12.3369 17.625C12.5906 17.5837 12.7931 17.3912 12.8475 17.14L13.3063 15.0137C13.6006 14.9981 13.9 14.9975 14.1931 15.0137L14.6525 17.14C14.7069 17.3912 14.9094 17.5837 15.1631 17.625C15.7394 17.7187 16.305 17.87 16.845 18.0744C17.0837 18.1656 17.3563 18.1006 17.5294 17.9094L18.9844 16.3037C19.2525 16.4437 19.5094 16.59 19.7525 16.7412L19.0887 18.8012C19.01 19.0462 19.0888 19.3137 19.2875 19.4769C19.7388 19.8456 20.1544 20.2619 20.5238 20.7131C20.6869 20.9125 20.955 20.9919 21.1994 20.9119L23.2594 20.2481C23.4112 20.4912 23.5575 20.7475 23.6969 21.0156L22.0906 22.4706C21.9 22.6431 21.8344 22.915 21.9256 23.1556C22.13 23.6944 22.2812 24.26 22.375 24.8369C22.4163 25.0906 22.6087 25.2931 22.86 25.3475L24.9862 25.8062C24.9944 25.9531 25 26.1012 25 26.25C25 26.3987 24.995 26.5469 24.9869 26.6931L22.8606 27.1525C22.6094 27.2069 22.4169 27.4094 22.3756 27.6631C22.2819 28.2394 22.1306 28.805 21.9263 29.345C21.835 29.585 21.9006 29.8569 22.0913 30.0294L23.6969 31.4844C23.5569 31.7525 23.4106 32.0094 23.2594 32.2525L21.1994 31.5887C20.9537 31.5087 20.6869 31.5881 20.5238 31.7875C20.1556 32.2375 19.7394 32.6537 19.2875 33.0237C19.0888 33.1862 19.01 33.4544 19.0887 33.6987L19.7525 35.7587C19.5094 35.9106 19.2531 36.0569 18.985 36.1962L17.53 34.59C17.3575 34.3994 17.0856 34.335 16.845 34.425C16.3062 34.6294 15.7406 34.7806 15.1637 34.8744C14.91 34.9156 14.7075 35.1081 14.6531 35.3594L14.1944 37.4856C13.9 37.5012 13.6006 37.5019 13.3075 37.4856L12.8481 35.3594C12.7937 35.1081 12.5912 34.9156 12.3375 34.8744C11.7612 34.7806 11.1956 34.6294 10.6556 34.425C10.4163 34.3337 10.1438 34.3987 9.97125 34.59L8.51625 36.1956C8.24813 36.0556 7.99125 35.9094 7.74813 35.7581L8.41187 33.6981C8.49062 33.4531 8.41187 33.1856 8.21312 33.0225C7.76187 32.6537 7.34625 32.2375 6.97688 31.7862C6.81375 31.5869 6.545 31.5081 6.30125 31.5875L4.24125 32.2512C4.08937 32.0081 3.94313 31.7519 3.80375 31.4831L5.41 30.0281C5.60063 29.8556 5.66625 29.5837 5.575 29.3431C5.37063 28.8044 5.21938 28.2387 5.12563 27.6619C5.08438 27.4081 4.89188 27.2056 4.64062 27.1512L2.51312 26.6937C2.50562 26.5469 2.5 26.3987 2.5 26.25C2.5 26.1012 2.505 25.9531 2.51312 25.8069Z" fill="#2B2B2B"/>
<path d="M33.8869 10.1468C34.1219 10.0731 34.2919 9.86743 34.32 9.62243C34.3575 9.30681 34.375 9.02118 34.375 8.74993C34.375 8.47868 34.3575 8.19306 34.3206 7.87743C34.2925 7.63243 34.1225 7.42681 33.8875 7.35306L32.1544 6.80868C32.1025 6.66681 32.045 6.52743 31.9819 6.39118L32.8219 4.78181C32.9356 4.56368 32.9106 4.29868 32.7581 4.10493C32.3962 3.64743 31.98 3.23118 31.5212 2.86806C31.3275 2.71493 31.0625 2.69056 30.8444 2.80368L29.2337 3.64368C29.0975 3.58118 28.9581 3.52368 28.8162 3.47181L28.2719 1.73868C28.1981 1.50368 27.9925 1.33368 27.7475 1.30556C27.115 1.23181 26.6344 1.23181 26.0019 1.30556C25.7569 1.33368 25.5512 1.50368 25.4775 1.73868L24.9331 3.47181C24.7913 3.52368 24.6519 3.58118 24.5156 3.64431L22.9063 2.80431C22.6881 2.69118 22.4238 2.71556 22.2294 2.86806C21.7719 3.22993 21.3556 3.64618 20.9925 4.10493C20.8394 4.29868 20.8144 4.56306 20.9281 4.78181L21.7675 6.39118C21.705 6.52743 21.6475 6.66681 21.5956 6.80868L19.8625 7.35306C19.6275 7.42681 19.4575 7.63243 19.4294 7.87743C19.3925 8.19306 19.375 8.47868 19.375 8.74993C19.375 9.02118 19.3925 9.30681 19.4294 9.62243C19.4575 9.86743 19.6275 10.0731 19.8625 10.1468L21.5956 10.6912C21.6475 10.8331 21.705 10.9724 21.7681 11.1087L20.9281 12.7181C20.8144 12.9362 20.8394 13.2012 20.9919 13.3949C21.3538 13.8524 21.77 14.2687 22.2288 14.6318C22.4219 14.7849 22.6875 14.8093 22.9056 14.6962L24.515 13.8568C24.6512 13.9193 24.7906 13.9768 24.9325 14.0287L25.4769 15.7618C25.5506 15.9968 25.7563 16.1668 26.0013 16.1949C26.3181 16.2324 26.6038 16.2499 26.875 16.2499C27.1462 16.2499 27.4319 16.2324 27.7475 16.1956C27.9925 16.1674 28.1981 15.9974 28.2719 15.7624L28.8162 14.0293C28.9581 13.9774 29.0975 13.9199 29.2337 13.8568L30.8431 14.6968C31.0612 14.8106 31.3262 14.7862 31.52 14.6331C31.9775 14.2712 32.3937 13.8549 32.7569 13.3962C32.91 13.2024 32.935 12.9381 32.8212 12.7193L31.9812 11.1099C32.0444 10.9737 32.1019 10.8343 32.1537 10.6924L33.8869 10.1468ZM31.4744 9.59431C31.2769 9.65681 31.1231 9.81243 31.0631 10.0112C30.9781 10.2937 30.8656 10.5656 30.7294 10.8199C30.6312 11.0024 30.6294 11.2218 30.7256 11.4049L31.5188 12.9249C31.3706 13.0893 31.2137 13.2462 31.05 13.3937L29.53 12.6006C29.3463 12.5043 29.1269 12.5068 28.945 12.6043C28.6906 12.7406 28.4188 12.8531 28.1363 12.9381C27.9381 12.9974 27.7819 13.1518 27.7194 13.3493L27.2044 14.9893C26.9763 15.0031 26.7744 15.0031 26.5456 14.9893L26.0306 13.3493C25.9681 13.1518 25.8125 12.9981 25.6137 12.9381C25.3306 12.8531 25.0587 12.7406 24.8056 12.6043C24.6231 12.5062 24.4037 12.5043 24.22 12.6006L22.7 13.3937C22.5356 13.2456 22.3787 13.0887 22.2312 12.9249L23.0244 11.4049C23.12 11.2218 23.1188 11.0018 23.0206 10.8199C22.8844 10.5656 22.7719 10.2937 22.6869 10.0112C22.6275 9.81306 22.4731 9.65681 22.2756 9.59431L20.6356 9.07931C20.6281 8.96493 20.625 8.85556 20.625 8.74993C20.625 8.64431 20.6281 8.53493 20.6356 8.42056L22.2756 7.90556C22.4731 7.84306 22.6269 7.68743 22.6869 7.48868C22.7719 7.20556 22.8844 6.93368 23.0206 6.68056C23.1188 6.49806 23.1206 6.27868 23.0244 6.09493L22.2312 4.57493C22.3794 4.41056 22.5362 4.25368 22.7 4.10618L24.22 4.89931C24.4031 4.99493 24.6231 4.99306 24.805 4.89556C25.0594 4.75931 25.3312 4.64681 25.6137 4.56181C25.8119 4.50243 25.9681 4.34806 26.0306 4.15056L26.5456 2.51056C26.7737 2.49681 26.9756 2.49681 27.2044 2.51056L27.7194 4.15056C27.7819 4.34806 27.9375 4.50181 28.1363 4.56181C28.4194 4.64681 28.6913 4.75931 28.9444 4.89556C29.1269 4.99368 29.3463 4.99556 29.53 4.89931L31.05 4.10618C31.2144 4.25431 31.3713 4.41118 31.5188 4.57493L30.7256 6.09493C30.63 6.27806 30.6312 6.49806 30.7294 6.67993C30.8656 6.93431 30.9781 7.20618 31.0631 7.48868C31.1225 7.68681 31.2769 7.84306 31.4744 7.90556L33.1144 8.42056C33.1219 8.53493 33.125 8.64431 33.125 8.74993C33.125 8.85556 33.1219 8.96493 33.1144 9.07931L31.4744 9.59431Z" fill="#2B2B2B"/>
<path d="M38.2888 21.8525L37.215 21.4713C37.1537 21.2969 37.0838 21.1263 37.0044 20.9606L37.4925 19.9325C37.5944 19.7188 37.5663 19.4663 37.42 19.28C37.1075 18.8806 36.7463 18.5188 36.3456 18.205C36.1587 18.0588 35.905 18.0313 35.6925 18.1325L34.6638 18.6206C34.4988 18.5419 34.3281 18.4713 34.1537 18.4106L33.7719 17.3369C33.6925 17.1138 33.4931 16.9544 33.2581 16.9256C32.7013 16.8588 32.2981 16.8588 31.7412 16.9256C31.5062 16.9538 31.3069 17.1131 31.2275 17.3369L30.8463 18.4106C30.6719 18.4719 30.5012 18.5419 30.3356 18.6213L29.3075 18.1331C29.095 18.0319 28.8419 18.06 28.655 18.2056C28.2556 18.5181 27.8937 18.8794 27.58 19.28C27.4344 19.4663 27.4063 19.7194 27.5075 19.9331L27.9956 20.9619C27.9169 21.1269 27.8463 21.2975 27.7856 21.4719L26.7119 21.8538C26.4887 21.9331 26.3294 22.1325 26.3006 22.3675C26.2663 22.6444 26.25 22.8925 26.25 23.125C26.25 23.3575 26.2663 23.605 26.3 23.8831C26.3281 24.1181 26.4875 24.3175 26.7112 24.3969L27.785 24.7781C27.8463 24.9525 27.9162 25.1231 27.9956 25.2888L27.5075 26.3169C27.4056 26.5306 27.4337 26.7831 27.58 26.9694C27.8925 27.3688 28.2538 27.7306 28.6544 28.0444C28.8406 28.19 29.0944 28.2181 29.3075 28.1169L30.3362 27.6288C30.5012 27.7075 30.6719 27.7781 30.8463 27.8388L31.2281 28.9125C31.3075 29.1356 31.5069 29.295 31.7419 29.3238C32.02 29.3588 32.2675 29.375 32.5 29.375C32.7325 29.375 32.98 29.3588 33.2581 29.325C33.4931 29.2969 33.6925 29.1375 33.7719 28.9138L34.1531 27.84C34.3275 27.7788 34.4981 27.7088 34.6638 27.6294L35.6919 28.1175C35.905 28.2194 36.1588 28.1919 36.3444 28.045C36.7438 27.7325 37.1056 27.3713 37.4194 26.9706C37.565 26.7844 37.5931 26.5313 37.4919 26.3175L37.0038 25.2888C37.0825 25.1238 37.1531 24.9531 37.2137 24.7788L38.2875 24.3969C38.5106 24.3175 38.67 24.1181 38.6987 23.8831C38.7337 23.605 38.75 23.3575 38.75 23.125C38.75 22.8925 38.7337 22.645 38.7 22.3669C38.6719 22.1313 38.5125 21.9325 38.2888 21.8525ZM37.4938 23.3531L36.5031 23.705C36.3112 23.7731 36.1644 23.9306 36.11 24.1269C36.0281 24.4238 35.9113 24.7069 35.7631 24.9688C35.6631 25.1456 35.6556 25.3606 35.7425 25.5444L36.1912 26.49C36.0875 26.6038 35.9787 26.7125 35.8656 26.8156L34.92 26.3669C34.7375 26.28 34.5219 26.2875 34.3444 26.3875C34.0819 26.5363 33.7987 26.6525 33.5031 26.7344C33.3069 26.7888 33.1494 26.9356 33.0806 27.1275L32.7288 28.1181C32.5775 28.1263 32.4238 28.1263 32.2725 28.1181L31.9206 27.1275C31.8525 26.9356 31.695 26.7888 31.4987 26.7344C31.2019 26.6525 30.9187 26.5356 30.6569 26.3875C30.48 26.2881 30.2656 26.2806 30.0813 26.3669L29.1356 26.8156C29.0219 26.7119 28.9131 26.6031 28.81 26.49L29.2587 25.5444C29.3462 25.3606 29.3381 25.1456 29.2381 24.9688C29.0894 24.7063 28.9731 24.4231 28.8913 24.1275C28.8369 23.9313 28.69 23.7738 28.4981 23.705L27.5075 23.3531C27.5025 23.2775 27.5 23.2019 27.5 23.125C27.5 23.0481 27.5025 22.9719 27.5062 22.8969L28.4969 22.5444C28.6888 22.4763 28.8356 22.3188 28.8894 22.1225C28.9719 21.825 29.0887 21.5425 29.2369 21.2806C29.3369 21.1038 29.3444 20.8888 29.2575 20.705L28.8088 19.7594C28.9125 19.6456 29.0213 19.5369 29.1344 19.4338L30.08 19.8825C30.2637 19.97 30.4787 19.9625 30.6556 19.8619C30.9181 19.7131 31.2013 19.5969 31.4969 19.515C31.6931 19.4606 31.8506 19.3138 31.9194 19.1219L32.2712 18.1313C32.4225 18.1231 32.5762 18.1231 32.7275 18.1313L33.0794 19.1219C33.1475 19.3138 33.305 19.4606 33.5013 19.515C33.7981 19.5969 34.0813 19.7138 34.3431 19.8619C34.5206 19.9625 34.735 19.97 34.9187 19.8825L35.8644 19.4338C35.9781 19.5375 36.0869 19.6463 36.19 19.7594L35.7413 20.705C35.6538 20.8888 35.6619 21.1038 35.7619 21.2806C35.9106 21.5431 36.0269 21.8263 36.1087 22.1219C36.1631 22.3181 36.31 22.4756 36.5019 22.5444L37.4925 22.8963C37.4975 22.9725 37.5 23.0481 37.5 23.125C37.5 23.2019 37.4975 23.2775 37.4938 23.3531Z" fill="#2B2B2B"/>
<path d="M13.75 33.125C17.5406 33.125 20.625 30.0406 20.625 26.25C20.625 22.4594 17.5406 19.375 13.75 19.375C9.95937 19.375 6.875 22.4594 6.875 26.25C6.875 30.0406 9.95937 33.125 13.75 33.125ZM13.75 20.625C16.8512 20.625 19.375 23.1488 19.375 26.25C19.375 29.3512 16.8512 31.875 13.75 31.875C10.6488 31.875 8.125 29.3512 8.125 26.25C8.125 23.1488 10.6488 20.625 13.75 20.625Z" fill="#2B2B2B"/>
<path d="M1.26398 15.8493L2.22398 16.65C5.08585 13.2181 9.28648 11.25 13.7502 11.25C14.0684 11.25 14.3859 11.2681 14.7034 11.2881L13.9334 12.0581L14.8171 12.9419L16.6921 11.0669C16.9365 10.8225 16.9365 10.4275 16.6921 10.1831L14.8171 8.30811L13.9334 9.19185L14.7827 10.0412C14.439 10.0194 14.0946 9.99998 13.7502 9.99998C8.91523 9.99998 4.36398 12.1319 1.26398 15.8493Z" fill="#2B2B2B"/>
<path d="M26.875 5.625C25.1519 5.625 23.75 7.02688 23.75 8.75C23.75 10.4731 25.1519 11.875 26.875 11.875C28.5981 11.875 30 10.4731 30 8.75C30 7.02688 28.5981 5.625 26.875 5.625ZM26.875 10.625C25.8412 10.625 25 9.78375 25 8.75C25 7.71625 25.8412 6.875 26.875 6.875C27.9088 6.875 28.75 7.71625 28.75 8.75C28.75 9.78375 27.9088 10.625 26.875 10.625Z" fill="#2B2B2B"/>
<path d="M32.5 20.625C31.1212 20.625 30 21.7462 30 23.125C30 24.5038 31.1212 25.625 32.5 25.625C33.8788 25.625 35 24.5038 35 23.125C35 21.7462 33.8788 20.625 32.5 20.625ZM32.5 24.375C31.8106 24.375 31.25 23.8144 31.25 23.125C31.25 22.4356 31.8106 21.875 32.5 21.875C33.1894 21.875 33.75 22.4356 33.75 23.125C33.75 23.8144 33.1894 24.375 32.5 24.375Z" fill="#2B2B2B"/>
<path d="M38.2472 3.13755L35.1222 2.51255C34.7822 2.4438 34.4541 2.66443 34.3866 3.00255L33.7616 6.12755L34.9872 6.37318L35.3241 4.69068C35.9297 5.95068 36.2497 7.33943 36.2497 8.75005C36.2497 10.9051 35.5385 12.9313 34.1935 14.6094L35.1691 15.3913C36.6722 13.5157 37.4997 11.1576 37.4997 8.75005C37.4997 7.11318 37.1216 5.49943 36.4022 4.04318L38.0022 4.36318L38.2472 3.13755Z" fill="#2B2B2B"/>
</svg>
