<svg width="40" height="40" viewBox="0 0 40 40" fill="none" xmlns="http://www.w3.org/2000/svg">
<g clip-path="url(#clip0_0_332)">
<path d="M23.6966 31.6395H16.302C15.9784 31.6395 15.7161 31.9019 15.7161 32.2255C15.7161 32.5491 15.9784 32.8114 16.302 32.8114H23.6966C24.0203 32.8114 24.2825 32.5491 24.2825 32.2255C24.2825 31.9019 24.0202 31.6395 23.6966 31.6395Z" fill="#2B2B2B"/>
<path d="M23.6966 28.7493H16.302C15.9784 28.7493 15.7161 29.0116 15.7161 29.3352C15.7161 29.6588 15.9784 29.9211 16.302 29.9211H23.6966C24.0203 29.9211 24.2825 29.6588 24.2825 29.3352C24.2825 29.0116 24.0202 28.7493 23.6966 28.7493Z" fill="#2B2B2B"/>
<path d="M34.1422 5.85789C30.3646 2.08039 25.3422 0 20 0C12.6103 0 5.85039 4.05031 2.35828 10.5702C2.20547 10.8554 2.31289 11.2105 2.59812 11.3633C2.88328 11.5162 3.23844 11.4088 3.39125 11.1234C6.67906 4.98508 13.0431 1.17188 20 1.17188C25.0292 1.17188 29.7573 3.13031 33.3135 6.68648C36.8697 10.2427 38.8281 14.9709 38.8281 20C38.8281 25.0291 36.8697 29.7573 33.3134 33.3135C29.7573 36.8697 25.0292 38.8281 20 38.8281C14.9708 38.8281 10.2427 36.8697 6.68648 33.3135C3.13031 29.7573 1.17188 25.0292 1.17188 20C1.17188 17.7745 1.55617 15.5964 2.31422 13.5262C2.42547 13.2223 2.26938 12.8859 1.96547 12.7746C1.66141 12.6632 1.32508 12.8195 1.21383 13.1234C0.408359 15.323 0 17.6366 0 20C0 25.3422 2.08031 30.3646 5.85781 34.1422C9.63539 37.9196 14.6578 40 20 40C25.3422 40 30.3646 37.9196 34.1422 34.1422C37.9197 30.3647 40 25.3422 40 20C40 14.6578 37.9197 9.63539 34.1422 5.85789Z" fill="#2B2B2B"/>
<path d="M32.665 9.2612C33.5872 8.01777 32.0173 6.44644 30.7732 7.36941C28.0087 9.41988 25.3748 11.6918 22.9447 14.1221L20.2127 16.8539C18.2938 16.7268 16.6905 18.3162 16.8188 20.2478L15.7835 21.2832C14.9653 22.1014 14.9653 23.4326 15.7835 24.2508C16.6016 25.0689 17.9329 25.069 18.7511 24.2508L19.7863 23.2156C21.7064 23.343 23.3085 21.7523 23.1804 19.8216L25.9123 17.0897C28.3425 14.6594 30.6144 12.0256 32.665 9.2612ZM17.9225 23.4221C17.5612 23.7834 16.9734 23.7834 16.6122 23.4221C16.2509 23.0608 16.2509 22.4731 16.6122 22.1118L17.1876 21.5364C17.4853 22.0917 17.9426 22.549 18.4979 22.8468L17.9225 23.4221ZM19.9996 22.0516C18.8899 22.0516 17.9828 21.1487 17.9828 20.0347C17.9828 18.9226 18.8876 18.0179 19.9996 18.0179C21.0039 18.0179 21.8389 18.7558 21.9914 19.7178C21.9915 19.7182 21.9915 19.7185 21.9916 19.7189C22.1859 20.9489 21.2308 22.0516 19.9996 22.0516ZM22.8116 18.533C22.5139 17.9777 22.0566 17.5204 21.5012 17.2227L23.7733 14.9507C26.163 12.561 28.7529 10.3269 31.4712 8.31066C31.64 8.18574 31.8483 8.39503 31.7237 8.56308C29.7073 11.2814 27.4733 13.8714 25.0836 16.261L22.8116 18.533Z" fill="#2B2B2B"/>
<path d="M28.8953 5.94289C22.5318 1.90711 13.8979 2.55906 8.21778 8.25812C8.21762 8.25828 8.21739 8.25843 8.21723 8.25859C1.74903 14.7491 1.7452 25.2523 8.22293 31.746C8.22786 31.7512 8.23223 31.7568 8.23731 31.7619C11.379 34.9036 15.5561 36.6338 19.9992 36.6338C24.4277 36.6338 28.5951 34.9134 31.7337 31.7892C31.7365 31.7866 31.7386 31.7836 31.7413 31.7809C37.4546 26.0861 38.0629 17.4728 34.0885 11.1555C33.9161 10.8815 33.5545 10.7993 33.2804 10.9716C33.0065 11.1439 32.9242 11.5056 33.0965 11.7795C34.5467 14.0844 35.3559 16.7269 35.4515 19.4533H33.1252C33.05 17.5855 32.5888 15.7952 31.7511 14.1234C31.6061 13.8341 31.2544 13.717 30.9647 13.8621C30.6754 14.007 30.5585 14.3591 30.7034 14.6484C32.9234 19.079 32.2386 24.7034 28.4343 28.4855C28.2045 28.7141 28.2038 29.0862 28.433 29.3154L30.4822 31.3645C27.6186 34.0107 23.9193 35.462 19.9991 35.462C16.0775 35.462 12.3795 34.0111 9.51598 31.3646L11.5652 29.3154C11.7943 29.0862 11.794 28.7141 11.564 28.4855C6.86575 23.8146 6.86348 16.2353 11.52 11.5584C15.3014 7.76047 20.9343 7.05929 25.3962 9.31843C25.4811 9.3614 25.5714 9.38171 25.6604 9.38171C25.8743 9.38171 26.0804 9.26421 26.1836 9.06031C26.3298 8.77164 26.2143 8.41906 25.9255 8.27289C24.2517 7.42539 22.4578 6.9564 20.585 6.8757V4.54914C23.3173 4.65171 25.9619 5.47039 28.2675 6.93257C28.5406 7.10586 28.9027 7.02484 29.0761 6.75156C29.2496 6.4782 29.1686 6.11617 28.8953 5.94289ZM33.1208 20.6251H35.4473C35.3006 24.3391 33.8497 27.8201 31.3133 30.5384L29.6681 28.8931C31.7669 26.6159 32.9768 23.7181 33.1208 20.6251ZM19.4132 4.54992V6.87617C16.3089 7.0114 13.3997 8.21968 11.113 10.3244L9.46778 8.67921C12.1953 6.13711 15.6879 4.68773 19.4132 4.54992ZM10.3302 28.8931L8.68504 30.5384C6.14864 27.8202 4.69778 24.3391 4.55106 20.6251H6.87754C7.02153 23.718 8.23145 26.6159 10.3302 28.8931ZM6.87332 19.4532H4.54668C4.67528 15.7334 6.11434 12.2412 8.64145 9.51L10.2865 11.155C8.19661 13.4452 6.9995 16.3546 6.87332 19.4532Z" fill="#2B2B2B"/>
</g>
<defs>
<clipPath id="clip0_0_332">
<rect width="40" height="40" fill="white"/>
</clipPath>
</defs>
</svg>
