<svg width="25" height="25" viewBox="0 0 25 25" fill="none" xmlns="http://www.w3.org/2000/svg">
<path d="M10.0606 9.90536C10.0606 8.72607 9.25829 8.72607 9.25829 8.72607H8.83348H5.95752V11.2565H9.05368C9.58872 11.2563 10.0606 11.0852 10.0606 9.90536Z" fill="#1666F7"/>
<path d="M9.25854 13.0042H5.95752V16.0348H9.10611C9.57977 16.0213 10.4539 15.873 10.4539 14.5617C10.4539 12.9883 9.25854 13.0042 9.25854 13.0042Z" fill="#1666F7"/>
<path d="M17.7092 11.2561C15.9576 11.2561 15.7133 13.0042 15.7133 13.0042H19.4384C19.4386 13.0042 19.4609 11.2561 17.7092 11.2561Z" fill="#1666F7"/>
<path d="M12.5 0C5.59642 0 0 5.59667 0 12.5C0 19.4033 5.59642 25 12.5 25C19.4036 25 25 19.4033 25 12.5C25 5.59667 19.4036 0 12.5 0ZM15.2253 7.37801H19.9041V8.77442H15.2253V7.37801ZM12.8606 14.7023C12.8606 18.1634 9.25857 18.0496 9.25857 18.0496H5.95754H5.86061H3.35754V6.70997H5.86061H5.95754H9.25831C11.0517 6.70997 12.4673 7.7 12.4673 9.72916C12.4673 11.7586 10.7368 11.8872 10.7368 11.8872C13.0179 11.8872 12.8606 14.7023 12.8606 14.7023ZM17.7315 16.4908C19.6164 16.4908 19.5496 15.2708 19.5496 15.2708H21.5453C21.5453 18.5084 17.665 18.2867 17.665 18.2867C13.0084 18.2867 13.3079 13.9517 13.3079 13.9517C13.3079 13.9517 13.3043 9.59514 17.6644 9.59514C22.2545 9.59514 21.6118 14.5171 21.6118 14.5171H15.7358C15.7358 16.6243 17.7315 16.4908 17.7315 16.4908Z" fill="#1666F7"/>
</svg>
