<svg width="25" height="25" viewBox="0 0 25 25" fill="none" xmlns="http://www.w3.org/2000/svg">
<path d="M16.2256 6.65112H8.77443C7.58512 6.65112 6.61752 7.61873 6.61752 8.80803V16.2592C6.61752 17.4485 7.58512 18.4164 8.77443 18.4164H16.2256C17.4149 18.4164 18.3828 17.4488 18.3828 16.2592V8.80803C18.3828 7.61873 17.4152 6.65112 16.2256 6.65112ZM12.5 16.4068C10.3645 16.4068 8.62709 14.6694 8.62709 12.5336C8.62709 10.3981 10.3645 8.66069 12.5 8.66069C14.6357 8.66069 16.3732 10.3981 16.3732 12.5336C16.3732 14.6691 14.6355 16.4068 12.5 16.4068ZM16.4977 9.46146C15.9922 9.46146 15.5811 9.05035 15.5811 8.54511C15.5811 8.03986 15.9922 7.62875 16.4977 7.62875C17.0029 7.62875 17.4141 8.03986 17.4141 8.54511C17.4141 9.05035 17.0029 9.46146 16.4977 9.46146Z" fill="url(#paint0_linear_280_31)"/>
<path d="M12.5 10.2974C11.2672 10.2974 10.2634 11.3006 10.2634 12.5334C10.2634 13.7667 11.2672 14.7702 12.5 14.7702C13.7333 14.7702 14.7363 13.7667 14.7363 12.5334C14.7363 11.3009 13.733 10.2974 12.5 10.2974Z" fill="url(#paint1_linear_280_31)"/>
<path d="M12.5 0C5.59672 0 0 5.59672 0 12.5C0 19.4033 5.59672 25 12.5 25C19.4033 25 25 19.4033 25 12.5C25 5.59672 19.4033 0 12.5 0ZM20.0191 16.2593C20.0191 18.3513 18.3176 20.0528 16.2256 20.0528H8.77443C6.68269 20.0528 4.98089 18.3513 4.98089 16.2593V8.80813C4.98089 6.71639 6.68269 5.01459 8.77443 5.01459H16.2256C18.3176 5.01459 20.0191 6.71639 20.0191 8.80813V16.2593Z" fill="url(#paint2_linear_280_31)"/>
<defs>
<linearGradient id="paint0_linear_280_31" x1="7.40746" y1="17.6499" x2="18.3088" y2="8.21307" gradientUnits="userSpaceOnUse">
<stop stop-color="#FFDD55"/>
<stop offset="0.5" stop-color="#FF543E"/>
<stop offset="1" stop-color="#C837AB"/>
</linearGradient>
<linearGradient id="paint1_linear_280_31" x1="10.5637" y1="14.4788" x2="14.7082" y2="10.8912" gradientUnits="userSpaceOnUse">
<stop stop-color="#FFDD55"/>
<stop offset="0.5" stop-color="#FF543E"/>
<stop offset="1" stop-color="#C837AB"/>
</linearGradient>
<linearGradient id="paint2_linear_280_31" x1="1.67854" y1="23.3713" x2="24.8427" y2="3.31897" gradientUnits="userSpaceOnUse">
<stop stop-color="#FFDD55"/>
<stop offset="0.5" stop-color="#FF543E"/>
<stop offset="1" stop-color="#C837AB"/>
</linearGradient>
</defs>
</svg>
