<svg width="25" height="25" viewBox="0 0 25 25" fill="none" xmlns="http://www.w3.org/2000/svg">
<circle cx="12.5" cy="12.5" r="12.5" fill="#E44B84"/>
<path d="M12.5 4.16675C7.91145 4.16675 4.16666 7.91187 4.16666 12.5001C4.16666 17.0886 7.91177 20.8334 12.5 20.8334C17.0885 20.8334 20.8333 17.0883 20.8333 12.5001C20.8333 7.91154 17.0882 4.16675 12.5 4.16675ZM18.1523 7.79663C19.1927 9.04468 19.8278 10.6414 19.8551 12.3829C18.5511 12.0779 17.1029 12.0574 15.6279 12.3263C15.2441 12.3962 14.8603 12.4851 14.4788 12.5919C14.3519 12.2465 14.2171 11.9041 14.0739 11.5649C13.9277 11.2188 13.7734 10.8787 13.612 10.5434C15.3695 9.87215 17.2738 8.8728 18.1523 7.79663ZM12.5 5.14331C14.4147 5.14331 16.1605 5.87866 17.4707 7.08146C16.9596 7.7784 15.5032 8.79305 13.1667 9.66805C12.3509 8.14917 11.3727 6.75334 10.2425 5.49813C10.9541 5.26798 11.7129 5.14331 12.5 5.14331ZM9.27571 5.88875C10.4284 7.12345 11.4199 8.50236 12.2366 9.99194C9.80565 10.7787 7.34439 11.0997 5.32063 10.8923C5.81347 8.69019 7.29621 6.85783 9.27571 5.88875ZM5.14322 12.5001C5.14322 12.2839 5.15331 12.0701 5.17154 11.8588C5.61815 11.906 6.08397 11.9298 6.56542 11.9298C8.46418 11.9298 10.5973 11.5645 12.692 10.8708C13.0117 11.5251 13.2991 12.1983 13.5527 12.8881C12.736 13.1817 11.9411 13.5551 11.1947 13.9994C9.36457 15.0889 8.02571 16.4906 7.47037 17.8637C6.03905 16.5206 5.14322 14.613 5.14322 12.5001ZM12.5 19.8569C10.928 19.8569 9.46972 19.3611 8.27278 18.5177C8.64387 17.2638 9.89908 15.9073 11.6943 14.8386C12.3268 14.4617 13.0664 14.1065 13.8714 13.8178C14.442 15.6114 14.7917 17.5046 14.9027 19.4535C14.1494 19.7146 13.3411 19.8569 12.5 19.8569ZM15.8551 19.0463C15.7197 17.1479 15.3662 15.2996 14.7988 13.5242C16.3808 13.0893 18.138 12.9434 19.8044 13.3757C19.5094 15.85 17.9821 17.9516 15.8551 19.0463Z" fill="white"/>
</svg>
